<svg xmlns="http://www.w3.org/2000/svg" xmlns:xlink="http://www.w3.org/1999/xlink" width="500" zoomAndPan="magnify" viewBox="0 0 375 374.999991" height="500" preserveAspectRatio="xMidYMid meet" version="1.0"><path fill="#000000" d="M 331.394531 209.347656 L 325.601562 227.585938 C 310.253906 263.453125 284.382812 288.882812 247.988281 303.875 C 211.386719 318.796875 172.421875 319.074219 131.101562 304.703125 C 92.117188 289.113281 63.949219 264.058594 46.601562 229.542969 C 41.0625 218.402344 37.089844 206.757812 34.6875 194.605469 L 32.394531 176.210938 C 31.695312 163.761719 32.835938 151.21875 35.820312 138.582031 C 46.15625 100.085938 68.304688 71.296875 102.265625 52.222656 C 136.226562 33.148438 174.257812 28.132812 216.359375 37.179688 C 257.992188 48.179688 289.625 69.875 311.265625 102.261719 C 332.90625 134.648438 339.617188 170.34375 331.394531 209.347656 " fill-opacity="1" fill-rule="nonzero"/></svg>