<svg xmlns="http://www.w3.org/2000/svg" xmlns:xlink="http://www.w3.org/1999/xlink" width="762" zoomAndPan="magnify" viewBox="0 0 571.5 627.000003" height="836" preserveAspectRatio="xMidYMid meet" version="1.0"><defs><clipPath id="5eeeb9ab5d"><path d="M 0.207031 0 L 570.796875 0 L 570.796875 626 L 0.207031 626 Z M 0.207031 0 " clip-rule="nonzero"/></clipPath><clipPath id="1474b619f2"><path d="M 291 0 L 570.796875 0 L 570.796875 458 L 291 458 Z M 291 0 " clip-rule="nonzero"/></clipPath><clipPath id="dd8a7e90d5"><path d="M 290.917969 0 L 570.796875 0 L 570.796875 465.894531 L 290.917969 465.894531 Z M 290.917969 0 " clip-rule="nonzero"/></clipPath><clipPath id="cc18965981"><path d="M 0.207031 313 L 196 313 L 196 626 L 0.207031 626 Z M 0.207031 313 " clip-rule="nonzero"/></clipPath><clipPath id="210258a85b"><path d="M 0.207031 313 L 203.140625 313 L 203.140625 626 L 0.207031 626 Z M 0.207031 313 " clip-rule="nonzero"/></clipPath></defs><g clip-path="url(#5eeeb9ab5d)"><path fill="#ffffff" d="M 0.207031 0 L 570.796875 0 L 570.796875 626 L 0.207031 626 Z M 0.207031 0 " fill-opacity="1" fill-rule="nonzero"/><path fill="#ffffff" d="M 0.207031 0 L 570.796875 0 L 570.796875 626 L 0.207031 626 Z M 0.207031 0 " fill-opacity="1" fill-rule="nonzero"/><rect x="-57.15" width="685.8" fill="#ffffff" y="-62.7" height="752.400004" fill-opacity="1"/><rect x="-57.15" width="685.8" fill="#f9bc60" y="-62.7" height="752.400004" fill-opacity="1"/></g><g clip-path="url(#1474b619f2)"><path fill="#ffffff" d="M 680.351562 117.765625 L 631.75 117.765625 L 631.75 20.566406 L 583.144531 20.566406 L 583.144531 -28.039062 L 388.738281 -28.039062 L 388.738281 69.167969 L 291.53125 69.167969 L 291.53125 214.972656 L 437.335938 214.972656 L 437.335938 360.777344 L 340.136719 360.777344 L 340.136719 457.984375 L 534.542969 457.984375 L 534.542969 360.777344 L 631.75 360.777344 L 631.75 263.574219 L 680.351562 263.574219 L 680.351562 166.371094 L 728.949219 166.371094 L 728.949219 117.765625 Z M 680.351562 117.765625 " fill-opacity="1" fill-rule="nonzero"/></g><g clip-path="url(#dd8a7e90d5)"><path fill="#000000" d="M 729.5625 126.289062 L 729.5625 117.160156 L 640.265625 117.160156 L 640.265625 29.082031 L 632.355469 29.082031 L 632.355469 19.953125 L 591.660156 19.953125 L 591.660156 -19.515625 L 583.757812 -19.515625 L 583.757812 -28.644531 L 388.128906 -28.644531 L 388.128906 68.558594 L 290.925781 68.558594 L 290.925781 215.578125 L 300.046875 215.578125 L 300.046875 223.488281 L 436.730469 223.488281 L 436.730469 360.171875 L 339.523438 360.171875 L 339.523438 458.59375 L 348.652344 458.59375 L 348.652344 466.5 L 543.058594 466.5 L 543.058594 369.296875 L 640.265625 369.296875 L 640.265625 272.09375 L 688.867188 272.09375 L 688.867188 174.890625 L 737.464844 174.890625 L 737.464844 126.289062 Z M 680.957031 118.378906 L 728.34375 118.378906 L 728.34375 165.761719 L 680.957031 165.761719 Z M 679.742188 214.367188 L 632.355469 214.367188 L 632.355469 166.980469 L 679.742188 166.980469 Z M 583.757812 165.761719 L 583.757812 118.378906 L 631.136719 118.378906 L 631.136719 165.761719 Z M 631.136719 215.578125 L 631.136719 262.964844 L 583.757812 262.964844 L 583.757812 215.578125 Z M 583.757812 312.785156 L 631.136719 312.785156 L 631.136719 360.171875 L 583.757812 360.171875 Z M 631.136719 68.558594 L 583.757812 68.558594 L 583.757812 21.171875 L 631.136719 21.171875 Z M 535.148438 -27.425781 L 582.535156 -27.425781 L 582.535156 19.953125 L 535.148438 19.953125 Z M 535.148438 69.773438 L 582.535156 69.773438 L 582.535156 117.160156 L 535.148438 117.160156 Z M 535.148438 166.980469 L 582.535156 166.980469 L 582.535156 214.367188 L 535.148438 214.367188 Z M 535.148438 264.1875 L 582.535156 264.1875 L 582.535156 311.566406 L 535.148438 311.566406 Z M 486.550781 21.171875 L 533.9375 21.171875 L 533.9375 68.558594 L 486.550781 68.558594 Z M 486.550781 118.378906 L 533.9375 118.378906 L 533.9375 165.761719 L 486.550781 165.761719 Z M 486.550781 215.578125 L 533.9375 215.578125 L 533.9375 262.964844 L 486.550781 262.964844 Z M 486.550781 312.785156 L 533.9375 312.785156 L 533.9375 360.171875 L 486.550781 360.171875 Z M 486.550781 409.992188 L 533.9375 409.992188 L 533.9375 457.371094 L 486.550781 457.371094 Z M 437.945312 -27.425781 L 485.332031 -27.425781 L 485.332031 19.953125 L 437.945312 19.953125 Z M 437.945312 69.773438 L 485.332031 69.773438 L 485.332031 117.160156 L 437.945312 117.160156 Z M 437.945312 166.980469 L 485.332031 166.980469 L 485.332031 214.367188 L 437.945312 214.367188 Z M 437.945312 264.1875 L 485.332031 264.1875 L 485.332031 311.566406 L 437.945312 311.566406 Z M 437.945312 361.386719 L 485.332031 361.386719 L 485.332031 408.773438 L 437.945312 408.773438 Z M 389.34375 21.171875 L 436.730469 21.171875 L 436.730469 68.558594 L 389.34375 68.558594 Z M 389.34375 118.378906 L 436.730469 118.378906 L 436.730469 165.761719 L 389.34375 165.761719 Z M 340.742188 69.773438 L 388.128906 69.773438 L 388.128906 117.160156 L 340.742188 117.160156 Z M 340.742188 166.980469 L 388.128906 166.980469 L 388.128906 214.367188 L 340.742188 214.367188 Z M 292.144531 118.378906 L 339.523438 118.378906 L 339.523438 165.761719 L 292.144531 165.761719 Z M 389.34375 409.992188 L 436.730469 409.992188 L 436.730469 457.371094 L 389.34375 457.371094 Z M 340.742188 361.386719 L 388.128906 361.386719 L 388.128906 408.773438 L 340.742188 408.773438 Z M 340.742188 361.386719 " fill-opacity="1" fill-rule="nonzero"/></g><g clip-path="url(#cc18965981)"><path fill="#ffffff" d="M 153.257812 441.117188 L 110.734375 441.117188 L 110.734375 356.066406 L 68.203125 356.066406 L 68.203125 313.535156 L -101.898438 313.535156 L -101.898438 398.585938 L -186.949219 398.585938 L -186.949219 526.167969 L -59.375 526.167969 L -59.375 653.746094 L -144.425781 653.746094 L -144.425781 738.800781 L 25.683594 738.800781 L 25.683594 653.746094 L 110.734375 653.746094 L 110.734375 568.691406 L 153.257812 568.691406 L 153.257812 483.636719 L 195.785156 483.636719 L 195.785156 441.117188 Z M 153.257812 441.117188 " fill-opacity="1" fill-rule="nonzero"/></g><g clip-path="url(#210258a85b)"><path fill="#000000" d="M 196.320312 448.570312 L 196.320312 440.582031 L 118.1875 440.582031 L 118.1875 363.511719 L 111.261719 363.511719 L 111.261719 355.53125 L 75.65625 355.53125 L 75.65625 320.988281 L 68.738281 320.988281 L 68.738281 313 L -102.433594 313 L -102.433594 398.050781 L -187.484375 398.050781 L -187.484375 526.695312 L -179.496094 526.695312 L -179.496094 533.621094 L -59.902344 533.621094 L -59.902344 653.214844 L -144.957031 653.214844 L -144.957031 739.328125 L -136.972656 739.328125 L -136.972656 746.253906 L 33.136719 746.253906 L 33.136719 661.203125 L 118.1875 661.203125 L 118.1875 576.144531 L 160.710938 576.144531 L 160.710938 491.089844 L 203.238281 491.089844 L 203.238281 448.570312 Z M 153.789062 441.644531 L 195.25 441.644531 L 195.25 483.109375 L 153.789062 483.109375 Z M 152.726562 525.632812 L 111.261719 525.632812 L 111.261719 484.171875 L 152.726562 484.171875 Z M 68.738281 483.109375 L 68.738281 441.644531 L 110.199219 441.644531 L 110.199219 483.109375 Z M 110.199219 526.695312 L 110.199219 568.160156 L 68.738281 568.160156 L 68.738281 526.695312 Z M 68.738281 611.753906 L 110.199219 611.753906 L 110.199219 653.214844 L 68.738281 653.214844 Z M 110.199219 398.050781 L 68.738281 398.050781 L 68.738281 356.59375 L 110.199219 356.59375 Z M 26.210938 314.070312 L 67.675781 314.070312 L 67.675781 355.53125 L 26.210938 355.53125 Z M 26.210938 399.121094 L 67.675781 399.121094 L 67.675781 440.582031 L 26.210938 440.582031 Z M 26.210938 484.171875 L 67.675781 484.171875 L 67.675781 525.632812 L 26.210938 525.632812 Z M 26.210938 569.222656 L 67.675781 569.222656 L 67.675781 610.683594 L 26.210938 610.683594 Z M -16.3125 356.59375 L 25.148438 356.59375 L 25.148438 398.050781 L -16.3125 398.050781 Z M -16.3125 441.644531 L 25.148438 441.644531 L 25.148438 483.109375 L -16.3125 483.109375 Z M -16.3125 526.695312 L 25.148438 526.695312 L 25.148438 568.160156 L -16.3125 568.160156 Z M -16.3125 611.753906 L 25.148438 611.753906 L 25.148438 653.214844 L -16.3125 653.214844 Z M -16.3125 696.804688 L 25.148438 696.804688 L 25.148438 738.265625 L -16.3125 738.265625 Z M -58.839844 314.070312 L -17.382812 314.070312 L -17.382812 355.53125 L -58.839844 355.53125 Z M -58.839844 399.121094 L -17.382812 399.121094 L -17.382812 440.582031 L -58.839844 440.582031 Z M -58.839844 484.171875 L -17.382812 484.171875 L -17.382812 525.632812 L -58.839844 525.632812 Z M -58.839844 569.222656 L -17.382812 569.222656 L -17.382812 610.683594 L -58.839844 610.683594 Z M -58.839844 654.277344 L -17.382812 654.277344 L -17.382812 695.742188 L -58.839844 695.742188 Z M -101.371094 356.59375 L -59.902344 356.59375 L -59.902344 398.050781 L -101.371094 398.050781 Z M -101.371094 441.644531 L -59.902344 441.644531 L -59.902344 483.109375 L -101.371094 483.109375 Z M -143.890625 399.121094 L -102.433594 399.121094 L -102.433594 440.582031 L -143.890625 440.582031 Z M -143.890625 484.171875 L -102.433594 484.171875 L -102.433594 525.632812 L -143.890625 525.632812 Z M -186.421875 441.644531 L -144.957031 441.644531 L -144.957031 483.109375 L -186.421875 483.109375 Z M -101.371094 696.804688 L -59.902344 696.804688 L -59.902344 738.265625 L -101.371094 738.265625 Z M -143.890625 654.277344 L -102.433594 654.277344 L -102.433594 695.742188 L -143.890625 695.742188 Z M -143.890625 654.277344 " fill-opacity="1" fill-rule="nonzero"/></g></svg>