<svg xmlns="http://www.w3.org/2000/svg" xmlns:xlink="http://www.w3.org/1999/xlink" width="500" zoomAndPan="magnify" viewBox="0 0 375 374.999991" height="500" preserveAspectRatio="xMidYMid meet" version="1.0"><defs><clipPath id="33a328cbb9"><path d="M 203.75 0 L 375 0 L 375 279.089844 L 203.75 279.089844 Z M 203.75 0 " clip-rule="nonzero"/></clipPath><clipPath id="fcca41aeb8"><path d="M 0 187.5 L 147 187.5 L 147 375 L 0 375 Z M 0 187.5 " clip-rule="nonzero"/></clipPath><clipPath id="34708d52b2"><path d="M 0 187.5 L 151.167969 187.5 L 151.167969 375 L 0 375 Z M 0 187.5 " clip-rule="nonzero"/></clipPath></defs><rect x="-37.5" width="450" fill="#ffffff" y="-37.499999" height="449.999989" fill-opacity="1"/><rect x="-37.5" width="450" fill="#f9bc60" y="-37.499999" height="449.999989" fill-opacity="1"/><path fill="#ffffff" d="M 437.035156 70.546875 L 407.921875 70.546875 L 407.921875 12.320312 L 378.804688 12.320312 L 378.804688 -16.796875 L 262.347656 -16.796875 L 262.347656 41.433594 L 204.117188 41.433594 L 204.117188 128.777344 L 291.460938 128.777344 L 291.460938 216.121094 L 233.234375 216.121094 L 233.234375 274.351562 L 349.691406 274.351562 L 349.691406 216.121094 L 407.921875 216.121094 L 407.921875 157.890625 L 437.035156 157.890625 L 437.035156 99.664062 L 466.148438 99.664062 L 466.148438 70.546875 Z M 437.035156 70.546875 " fill-opacity="1" fill-rule="nonzero"/><g clip-path="url(#33a328cbb9)"><path fill="#000000" d="M 466.515625 75.652344 L 466.515625 70.183594 L 413.023438 70.183594 L 413.023438 17.421875 L 408.285156 17.421875 L 408.285156 11.953125 L 383.90625 11.953125 L 383.90625 -11.691406 L 379.171875 -11.691406 L 379.171875 -17.160156 L 261.984375 -17.160156 L 261.984375 41.070312 L 203.753906 41.070312 L 203.753906 129.140625 L 209.21875 129.140625 L 209.21875 133.878906 L 291.097656 133.878906 L 291.097656 215.757812 L 232.867188 215.757812 L 232.867188 274.714844 L 238.335938 274.714844 L 238.335938 279.453125 L 354.792969 279.453125 L 354.792969 221.222656 L 413.023438 221.222656 L 413.023438 162.996094 L 442.136719 162.996094 L 442.136719 104.765625 L 471.25 104.765625 L 471.25 75.652344 Z M 437.398438 70.914062 L 465.785156 70.914062 L 465.785156 99.296875 L 437.398438 99.296875 Z M 436.671875 128.414062 L 408.285156 128.414062 L 408.285156 100.027344 L 436.671875 100.027344 Z M 379.171875 99.296875 L 379.171875 70.914062 L 407.554688 70.914062 L 407.554688 99.296875 Z M 407.554688 129.140625 L 407.554688 157.527344 L 379.171875 157.527344 L 379.171875 129.140625 Z M 379.171875 187.371094 L 407.554688 187.371094 L 407.554688 215.757812 L 379.171875 215.757812 Z M 407.554688 41.070312 L 379.171875 41.070312 L 379.171875 12.683594 L 407.554688 12.683594 Z M 350.054688 -16.429688 L 378.441406 -16.429688 L 378.441406 11.953125 L 350.054688 11.953125 Z M 350.054688 41.796875 L 378.441406 41.796875 L 378.441406 70.183594 L 350.054688 70.183594 Z M 350.054688 100.027344 L 378.441406 100.027344 L 378.441406 128.414062 L 350.054688 128.414062 Z M 350.054688 158.257812 L 378.441406 158.257812 L 378.441406 186.640625 L 350.054688 186.640625 Z M 320.941406 12.683594 L 349.328125 12.683594 L 349.328125 41.070312 L 320.941406 41.070312 Z M 320.941406 70.914062 L 349.328125 70.914062 L 349.328125 99.296875 L 320.941406 99.296875 Z M 320.941406 129.140625 L 349.328125 129.140625 L 349.328125 157.527344 L 320.941406 157.527344 Z M 320.941406 187.371094 L 349.328125 187.371094 L 349.328125 215.757812 L 320.941406 215.757812 Z M 320.941406 245.601562 L 349.328125 245.601562 L 349.328125 273.984375 L 320.941406 273.984375 Z M 291.824219 -16.429688 L 320.210938 -16.429688 L 320.210938 11.953125 L 291.824219 11.953125 Z M 291.824219 41.796875 L 320.210938 41.796875 L 320.210938 70.183594 L 291.824219 70.183594 Z M 291.824219 100.027344 L 320.210938 100.027344 L 320.210938 128.414062 L 291.824219 128.414062 Z M 291.824219 158.257812 L 320.210938 158.257812 L 320.210938 186.640625 L 291.824219 186.640625 Z M 291.824219 216.484375 L 320.210938 216.484375 L 320.210938 244.871094 L 291.824219 244.871094 Z M 262.710938 12.683594 L 291.097656 12.683594 L 291.097656 41.070312 L 262.710938 41.070312 Z M 262.710938 70.914062 L 291.097656 70.914062 L 291.097656 99.296875 L 262.710938 99.296875 Z M 233.597656 41.796875 L 261.984375 41.796875 L 261.984375 70.183594 L 233.597656 70.183594 Z M 233.597656 100.027344 L 261.984375 100.027344 L 261.984375 128.414062 L 233.597656 128.414062 Z M 204.484375 70.914062 L 232.867188 70.914062 L 232.867188 99.296875 L 204.484375 99.296875 Z M 262.710938 245.601562 L 291.097656 245.601562 L 291.097656 273.984375 L 262.710938 273.984375 Z M 233.597656 216.484375 L 261.984375 216.484375 L 261.984375 244.871094 L 233.597656 244.871094 Z M 233.597656 216.484375 " fill-opacity="1" fill-rule="nonzero"/></g><g clip-path="url(#fcca41aeb8)"><path fill="#ffffff" d="M 121.285156 264.246094 L 95.8125 264.246094 L 95.8125 213.296875 L 70.335938 213.296875 L 70.335938 187.820312 L -31.5625 187.820312 L -31.5625 238.769531 L -82.511719 238.769531 L -82.511719 315.195312 L -6.089844 315.195312 L -6.089844 391.621094 L -57.039062 391.621094 L -57.039062 442.570312 L 44.863281 442.570312 L 44.863281 391.621094 L 95.8125 391.621094 L 95.8125 340.667969 L 121.285156 340.667969 L 121.285156 289.71875 L 146.761719 289.71875 L 146.761719 264.246094 Z M 121.285156 264.246094 " fill-opacity="1" fill-rule="nonzero"/></g><g clip-path="url(#34708d52b2)"><path fill="#000000" d="M 147.082031 268.710938 L 147.082031 263.925781 L 100.277344 263.925781 L 100.277344 217.757812 L 96.128906 217.757812 L 96.128906 212.976562 L 74.800781 212.976562 L 74.800781 192.285156 L 70.65625 192.285156 L 70.65625 187.5 L -31.882812 187.5 L -31.882812 238.449219 L -82.832031 238.449219 L -82.832031 315.511719 L -78.046875 315.511719 L -78.046875 319.660156 L -6.40625 319.660156 L -6.40625 391.300781 L -57.355469 391.300781 L -57.355469 442.886719 L -52.574219 442.886719 L -52.574219 447.035156 L 49.328125 447.035156 L 49.328125 396.085938 L 100.277344 396.085938 L 100.277344 345.132812 L 125.75 345.132812 L 125.75 294.183594 L 151.226562 294.183594 L 151.226562 268.710938 Z M 121.605469 264.5625 L 146.441406 264.5625 L 146.441406 289.402344 L 121.605469 289.402344 Z M 120.96875 314.875 L 96.128906 314.875 L 96.128906 290.039062 L 120.96875 290.039062 Z M 70.65625 289.402344 L 70.65625 264.5625 L 95.492188 264.5625 L 95.492188 289.402344 Z M 95.492188 315.511719 L 95.492188 340.351562 L 70.65625 340.351562 L 70.65625 315.511719 Z M 70.65625 366.464844 L 95.492188 366.464844 L 95.492188 391.300781 L 70.65625 391.300781 Z M 95.492188 238.449219 L 70.65625 238.449219 L 70.65625 213.613281 L 95.492188 213.613281 Z M 45.179688 188.140625 L 70.019531 188.140625 L 70.019531 212.976562 L 45.179688 212.976562 Z M 45.179688 239.089844 L 70.019531 239.089844 L 70.019531 263.925781 L 45.179688 263.925781 Z M 45.179688 290.039062 L 70.019531 290.039062 L 70.019531 314.875 L 45.179688 314.875 Z M 45.179688 340.988281 L 70.019531 340.988281 L 70.019531 365.824219 L 45.179688 365.824219 Z M 19.707031 213.613281 L 44.542969 213.613281 L 44.542969 238.449219 L 19.707031 238.449219 Z M 19.707031 264.5625 L 44.542969 264.5625 L 44.542969 289.402344 L 19.707031 289.402344 Z M 19.707031 315.511719 L 44.542969 315.511719 L 44.542969 340.351562 L 19.707031 340.351562 Z M 19.707031 366.464844 L 44.542969 366.464844 L 44.542969 391.300781 L 19.707031 391.300781 Z M 19.707031 417.414062 L 44.542969 417.414062 L 44.542969 442.25 L 19.707031 442.25 Z M -5.769531 188.140625 L 19.066406 188.140625 L 19.066406 212.976562 L -5.769531 212.976562 Z M -5.769531 239.089844 L 19.066406 239.089844 L 19.066406 263.925781 L -5.769531 263.925781 Z M -5.769531 290.039062 L 19.066406 290.039062 L 19.066406 314.875 L -5.769531 314.875 Z M -5.769531 340.988281 L 19.066406 340.988281 L 19.066406 365.824219 L -5.769531 365.824219 Z M -5.769531 391.9375 L 19.066406 391.9375 L 19.066406 416.777344 L -5.769531 416.777344 Z M -31.246094 213.613281 L -6.40625 213.613281 L -6.40625 238.449219 L -31.246094 238.449219 Z M -31.246094 264.5625 L -6.40625 264.5625 L -6.40625 289.402344 L -31.246094 289.402344 Z M -56.71875 239.089844 L -31.882812 239.089844 L -31.882812 263.925781 L -56.71875 263.925781 Z M -56.71875 290.039062 L -31.882812 290.039062 L -31.882812 314.875 L -56.71875 314.875 Z M -82.195312 264.5625 L -57.355469 264.5625 L -57.355469 289.402344 L -82.195312 289.402344 Z M -31.246094 417.414062 L -6.40625 417.414062 L -6.40625 442.25 L -31.246094 442.25 Z M -56.71875 391.9375 L -31.882812 391.9375 L -31.882812 416.777344 L -56.71875 416.777344 Z M -56.71875 391.9375 " fill-opacity="1" fill-rule="nonzero"/></g></svg>