<svg xmlns="http://www.w3.org/2000/svg" xmlns:xlink="http://www.w3.org/1999/xlink" width="500" zoomAndPan="magnify" viewBox="0 0 375 374.999991" height="500" preserveAspectRatio="xMidYMid meet" version="1.0"><defs><g/></defs><g fill="#ffffff" fill-opacity="1"><g transform="translate(30.5353, 284.893116)"><g><path d="M -22.332031 -62.242188 C -23.746094 -58.667969 -22.886719 -54.6875 -20.980469 -51.539062 C -19.746094 -49.320312 -16.480469 -51.386719 -17.128906 -53.609375 C -17.894531 -56.261719 -17.84375 -58.839844 -18.0625 -61.578125 C -18.160156 -63.6875 -21.492188 -64.4375 -22.332031 -62.242188 Z M -15.261719 -54.957031 C -14.332031 -51.796875 -9.386719 -53.640625 -10.3125 -56.800781 C -11.160156 -59.414062 -11.226562 -62.226562 -11.875 -64.84375 C -12.484375 -67.183594 -15.839844 -66.445312 -16.292969 -64.449219 C -17.007812 -61.429688 -16.152344 -57.839844 -15.261719 -54.957031 Z M -15.261719 -54.957031 "/></g></g></g><g fill="#ffffff" fill-opacity="1"><g transform="translate(44.699566, 277.642534)"><g><path d="M 32.886719 -8.484375 C 34.128906 -9.511719 34.300781 -11.664062 33.625 -12.988281 C 32.628906 -14.933594 30.433594 -15.382812 28.566406 -14.621094 C 25.136719 -13.261719 22.144531 -11.238281 18.957031 -9.410156 C 17.554688 -8.496094 16.039062 -7.621094 14.5625 -6.667969 C 12.851562 -5.597656 10.945312 -4.523438 9.472656 -3.179688 C 7.144531 -1.203125 9.183594 3.355469 12.339844 2.425781 C 15.890625 1.296875 19.230469 -0.808594 22.5 -2.480469 C 24.175781 -3.4375 25.808594 -4.273438 27.519531 -5.148438 C 29.390625 -6.105469 31.097656 -7.175781 32.886719 -8.484375 Z M 32.886719 -8.484375 "/></g></g></g><g fill="#ffffff" fill-opacity="1"><g transform="translate(73.417976, 262.941795)"><g><path d="M 29.183594 -52.363281 C 28.542969 -54.195312 27.359375 -55.359375 25.632812 -55.65625 C 24.222656 -55.914062 22.695312 -56.214844 21.207031 -56.433594 C 20.734375 -56.976562 20.105469 -57.441406 19.242188 -57.589844 C 8.984375 -58.820312 -1.429688 -60.171875 -11.386719 -58.511719 C -11.464844 -58.472656 -11.582031 -58.507812 -11.660156 -58.46875 C -12.324219 -58.425781 -12.949219 -58.300781 -13.613281 -58.253906 C -13.847656 -58.332031 -14.160156 -58.367188 -14.472656 -58.207031 C -17.28125 -57.359375 -22.46875 -55.980469 -22.472656 -52.34375 C -22.414062 -50.117188 -20.441406 -48.375 -18.324219 -47.886719 C -18.433594 -46.949219 -18.699219 -46.125 -19.082031 -45.339844 C -17.105469 -43.011719 -15.167969 -40.566406 -13.265625 -38.199219 C -13.734375 -37.957031 -14.199219 -37.71875 -14.628906 -37.402344 C -16.960938 -36.207031 -15.90625 -31.835938 -13.007812 -31.550781 C -12.070312 -31.445312 -10.972656 -31.414062 -10.035156 -31.503906 L -11.707031 -30.351562 C -10.691406 -30.480469 -9.675781 -30.605469 -8.699219 -30.8125 C -8.347656 -30.894531 -8.074219 -30.738281 -7.953125 -30.503906 C -7.796875 -30.585938 -7.640625 -30.664062 -7.488281 -30.746094 L -5.625 -28.257812 C -3.128906 -24.917969 -0.632812 -21.582031 1.859375 -18.242188 L 5.191406 -13.460938 C 6.222656 -11.828125 7.023438 -9.882812 8.25 -8.445312 C 8.6875 -7.589844 9.746094 -7.445312 10.289062 -7.917969 C 10.605469 -7.492188 10.960938 -7.183594 11.390625 -6.914062 C 12.882812 -6.300781 14.402344 -7.175781 14.976562 -8.550781 C 15.433594 -9.570312 15.582031 -10.628906 15.570312 -11.800781 C 15.371094 -12.191406 15.132812 -12.65625 14.816406 -13.085938 C 13.09375 -17.019531 10.675781 -20.789062 8.488281 -24.480469 C 6.5 -27.984375 4.355469 -31.402344 2.175781 -34.707031 C 4.238281 -35.664062 6.417969 -36.585938 8.480469 -37.542969 C 9.230469 -37.042969 10.09375 -36.503906 10.921875 -36.042969 L 10.960938 -35.964844 C 11.828125 -35.425781 12.613281 -34.84375 13.441406 -34.1875 C 16.394531 -32.066406 21.125 -28.003906 23.019531 -26.417969 C 26.40625 -23.636719 29.835938 -20.773438 33.109375 -17.832031 C 33.5 -17.835938 33.886719 -18.230469 34.003906 -18.585938 C 34.042969 -18.507812 34.121094 -18.546875 34.199219 -18.585938 C 35.058594 -18.632812 35.757812 -18.992188 36.417969 -19.429688 C 38.019531 -19.5625 39.613281 -20.867188 38.96875 -22.699219 C 37 -28.078125 31.765625 -31.585938 27.394531 -34.945312 C 24.046875 -37.457031 20.546875 -39.691406 16.851562 -41.730469 C 20.667969 -43.289062 24.484375 -44.851562 28.261719 -46.492188 C 29.589844 -46.972656 30.390625 -49.050781 29.789062 -50.609375 Z M -8.511719 -48.097656 L -9.382812 -49.222656 C -1.890625 -51.09375 6.046875 -50.933594 14.152344 -49.875 L 6.125 -46.945312 C 3.578125 -47.507812 -0.0664062 -48.292969 -1.644531 -45.621094 C -1.875 -45.109375 -1.867188 -44.523438 -1.746094 -44.09375 C -2.175781 -43.972656 -2.644531 -43.734375 -3.070312 -43.613281 C -4.21875 -45.089844 -5.445312 -46.523438 -6.671875 -47.957031 C -7.109375 -48.621094 -7.886719 -48.222656 -8.078125 -47.632812 C -8.234375 -47.75 -8.355469 -47.980469 -8.511719 -48.097656 Z M 14.945312 -15.902344 C 14.300781 -17.929688 14.523438 -19.027344 12.855469 -21.707031 C 10.074219 -26.179688 7.296875 -30.648438 4.207031 -34.765625 L 3.585938 -34.445312 C 7.785156 -28.542969 11.324219 -22.203125 14.945312 -15.902344 Z M 14.945312 -15.902344 "/></g></g></g><g fill="#ffffff" fill-opacity="1"><g transform="translate(112.254236, 243.061805)"><g><path d="M -19.246094 -42.011719 C -19.324219 -41.777344 -19.203125 -41.542969 -19.007812 -41.546875 C -17.695312 -43.199219 -16.339844 -44.777344 -14.828125 -46.238281 C -10.609375 -50.660156 -5.914062 -54.535156 -1.21875 -58.414062 C 1.460938 -60.667969 4.175781 -63.039062 6.8125 -65.371094 C 6.109375 -65.011719 5.410156 -64.652344 4.75 -64.21875 C 1.523438 -62.269531 -1.351562 -60.015625 -4.222656 -57.757812 L -5.773438 -56.375 C -10.621094 -52.027344 -15.503906 -47.367188 -19.246094 -42.011719 Z M 40.632812 -32.6875 C 41.210938 -33.863281 41.273438 -35.273438 40.480469 -36.632812 C 37.898438 -40.910156 32.910156 -47.003906 27.554688 -42.691406 C 26.820312 -42.019531 26.242188 -41.230469 25.503906 -40.558594 L 22.945312 -38.070312 C 21.398438 -36.492188 19.886719 -34.835938 18.378906 -33.179688 C 17.410156 -32.191406 16.480469 -31.128906 15.554688 -30.0625 L 10.253906 -24.109375 C 8.898438 -22.53125 7.542969 -20.953125 6.230469 -19.300781 L 6.078125 -19.023438 C 5.996094 -19.179688 5.957031 -19.257812 5.917969 -19.335938 L 2.859375 -24.15625 C 4.480469 -26.359375 6.027344 -28.527344 7.804688 -30.617188 C 10.667969 -34.042969 13.726562 -37.085938 16.945312 -40.007812 C 18.574219 -41.433594 20.320312 -42.816406 22.027344 -44.085938 C 23.621094 -45.390625 25.371094 -46.1875 26.609375 -47.804688 C 27.652344 -49.222656 27.707031 -51.414062 26.640625 -52.730469 C 26.085938 -53.429688 25.21875 -53.96875 24.320312 -54 C 24.242188 -53.960938 24.242188 -53.960938 24.125 -54 C 23.886719 -54.269531 23.574219 -54.5 23.257812 -54.734375 C 23.101562 -54.847656 22.902344 -55.042969 22.628906 -55.195312 C 20.582031 -56.507812 18.675781 -55.628906 16.769531 -54.554688 C 15.875 -54 15.058594 -53.484375 14.203125 -52.847656 L 13.3125 -52.097656 C 11.179688 -50.121094 8.96875 -48.105469 6.796875 -46.210938 C 3.195312 -42.304688 -0.128906 -38.242188 -3.53125 -34.144531 C -3.730469 -34.535156 -5.628906 -37.097656 -6.105469 -37.835938 L -6.03125 -38.070312 C -4.136719 -40.316406 -2.125 -42.527344 -0.0703125 -44.65625 C 0.585938 -45.484375 7.097656 -51.765625 10.507812 -54.886719 C 10.664062 -54.964844 10.78125 -55.125 10.894531 -55.28125 C 12.445312 -56.664062 13.957031 -58.125 15.390625 -59.546875 L 18.683594 -62.707031 C 18.199219 -64.421875 17.128906 -65.9375 15.75 -67.292969 C 15.199219 -67.40625 14.535156 -67.554688 13.984375 -67.667969 L 12.5 -67.496094 C 11.953125 -67.414062 11.367188 -67.214844 10.785156 -67.011719 C 7.292969 -63.851562 3.804688 -60.6875 0.15625 -57.644531 C -4.578125 -53.84375 -9.273438 -49.96875 -13.492188 -45.546875 C -14.847656 -44.167969 -16.242188 -42.667969 -17.519531 -41.128906 C -17.476562 -40.855469 -17.511719 -40.542969 -17.511719 -40.347656 C -18.121094 -38.855469 -18.226562 -37.328125 -17.582031 -35.695312 C -17.0625 -34.289062 -15.839844 -33.050781 -14.386719 -32.515625 L -8.910156 -24.121094 L -3.195312 -15.261719 C -1.566406 -12.65625 0.0234375 -9.933594 1.84375 -7.527344 C 2.179688 -5.144531 4.699219 -3.484375 7.042969 -3.703125 C 7.164062 -3.273438 7.324219 -2.964844 7.679688 -2.652344 C 8.980469 -1.648438 10.417969 -2.289062 11.546875 -3.160156 C 11.855469 -3.320312 12.285156 -3.636719 12.285156 -3.636719 C 12.246094 -3.519531 16.003906 -7.113281 16.621094 -8.214844 L 16.660156 -8.332031 C 17.316406 -9.160156 18.011719 -9.90625 18.667969 -10.734375 C 18.785156 -10.894531 18.980469 -11.089844 19.09375 -11.246094 L 19.171875 -11.289062 C 21.183594 -13.691406 23.351562 -15.980469 25.519531 -18.269531 C 30.050781 -23.042969 35.050781 -27.472656 40.253906 -31.507812 C 40.679688 -31.824219 40.753906 -32.257812 40.632812 -32.6875 Z M 13.351562 -39.542969 L 13.550781 -39.351562 C 13.160156 -38.957031 12.851562 -38.601562 12.503906 -38.128906 C 9.410156 -34.582031 6.121094 -31.03125 3.300781 -27.132812 C 3.644531 -27.996094 3.714844 -29.011719 3.429688 -29.949219 C 4.710938 -31.09375 5.949219 -32.320312 7.269531 -33.582031 C 9.28125 -35.597656 11.335938 -37.53125 13.351562 -39.542969 Z M 9.9375 -3.808594 C 11.292969 -4.996094 12.453125 -6.375 13.652344 -7.675781 C 14.894531 -8.902344 16.015625 -10.164062 17.136719 -11.425781 L 17.21875 -11.269531 C 16.367188 -10.046875 15.519531 -8.828125 14.59375 -7.566406 C 14.207031 -6.976562 13.746094 -6.347656 13.28125 -5.71875 C 13.242188 -5.601562 13.164062 -5.558594 13.085938 -5.519531 C 12.894531 -5.324219 11.183594 -4.25 9.9375 -3.808594 Z M 9.9375 -3.808594 "/></g></g></g><g fill="#ffffff" fill-opacity="1"><g transform="translate(151.868795, 222.783409)"><g><path d="M 13.898438 -60.355469 C 13.179688 -61.949219 12.144531 -63.777344 11 -65.058594 C 9.851562 -66.339844 8.664062 -67.890625 7.015625 -68.421875 C 6.234375 -68.609375 5.335938 -68.25 4.992188 -67.582031 C 3.074219 -67.683594 1.203125 -67.117188 -0.386719 -65.8125 C 6.304688 -52.929688 11.824219 -39.648438 11.554688 -22.90625 C 11.472656 -23.0625 11.078125 -23.648438 10.960938 -23.683594 C 10.433594 -38.148438 5.875 -52.613281 -1.203125 -65.097656 C -1.796875 -66.070312 -3.277344 -65.316406 -2.757812 -64.300781 C 1.140625 -57.261719 4.144531 -49.664062 6.445312 -41.902344 C 7.945312 -36.484375 8.9375 -30.898438 9.613281 -25.351562 C 8.824219 -26.324219 0.785156 -37.039062 -1.3125 -39.601562 C -4.242188 -43.40625 -7.367188 -47.207031 -10.570312 -50.777344 C -13.175781 -53.566406 -16.992188 -56.035156 -20.96875 -54.394531 C -25.953125 -52.234375 -20.851562 -46.496094 -18.605469 -44.402344 L -20.0625 -45.523438 C -20.335938 -45.679688 -20.648438 -45.324219 -20.410156 -45.050781 C -18.507812 -42.292969 -16.136719 -39.773438 -14 -37.136719 C -11.863281 -34.496094 -9.765625 -31.738281 -7.707031 -29.0625 C -5.644531 -26.382812 -3.664062 -23.664062 -1.761719 -20.90625 C -1.125 -19.855469 -0.453125 -18.921875 0.261719 -17.914062 C 0.460938 -17.523438 0.699219 -17.058594 1.015625 -16.628906 C 1.132812 -16.589844 1.214844 -16.4375 1.253906 -16.359375 C 2.207031 -14.882812 3.082031 -13.363281 3.757812 -11.84375 C 4.4375 -10.523438 5.574219 -10.023438 6.785156 -10.152344 C 7.457031 -9.417969 8.128906 -8.679688 8.878906 -7.984375 C 15.628906 -1.515625 20.207031 -17.515625 20.753906 -21.625 C 20.898438 -23.074219 21 -24.601562 21.066406 -26.007812 C 21.019531 -26.671875 21.054688 -27.378906 21.085938 -28.082031 C 21.007812 -28.238281 21.042969 -28.355469 21.042969 -28.550781 C 20.8125 -32.066406 20.621094 -35.703125 20.277344 -39.257812 C 19.929688 -42.8125 18.917969 -46.519531 17.945312 -49.953125 C 16.894531 -53.539062 15.609375 -57.007812 13.898438 -60.355469 Z M 13.898438 -60.355469 "/></g></g></g><g fill="#ffffff" fill-opacity="1"><g transform="translate(181.365502, 207.684266)"><g><path d="M -21.898438 -45.46875 C -21.34375 -44.769531 -19.9375 -44.703125 -19.117188 -44.828125 C -17.710938 -44.960938 -16.464844 -45.402344 -15.21875 -46.039062 C -13.738281 -46.796875 -12.226562 -48.0625 -11.851562 -49.628906 C -10.53125 -50.699219 -9.410156 -52.15625 -8.679688 -53.609375 C -8.296875 -54.394531 -8.152344 -55.453125 -8.898438 -56.148438 C -10.714844 -57.773438 -12.867188 -58.144531 -15.25 -57.613281 C -17.980469 -57.003906 -19.914062 -54.832031 -21.222656 -52.394531 C -21.339844 -52.238281 -21.414062 -52.003906 -21.488281 -51.769531 C -21.988281 -50.824219 -22.292969 -49.882812 -22.441406 -48.824219 C -22.585938 -47.769531 -22.730469 -46.320312 -21.898438 -45.46875 Z M -15.726562 -46.269531 C -16.703125 -45.871094 -17.636719 -45.585938 -18.652344 -45.460938 C -19.277344 -45.335938 -19.90625 -45.410156 -20.570312 -45.558594 C -21.472656 -45.785156 -21.671875 -46.371094 -21.71875 -47.230469 C -21.6875 -47.933594 -21.617188 -48.558594 -21.464844 -49.226562 C -21.328125 -47.039062 -19.554688 -45.6875 -17.058594 -46.375 C -15.109375 -46.980469 -14.175781 -47.652344 -13.363281 -48.363281 C -13.285156 -48.40625 -13.472656 -47.425781 -15.726562 -46.269531 Z M 12.289062 -11.496094 C 12.839844 -10.796875 14.046875 -11.511719 13.570312 -12.25 C 6.433594 -22.546875 0.152344 -33.28125 -5.230469 -44.570312 C -5.273438 -44.648438 -5.777344 -44.292969 -5.695312 -44.136719 C -3.179688 -38.449219 1.003906 -30.277344 4.066406 -24.871094 C 3.910156 -24.789062 2.28125 -27.394531 2.167969 -27.238281 C 1.730469 -27.898438 1.292969 -28.558594 1.015625 -29.105469 C -0.539062 -31.945312 -2.167969 -34.746094 -3.601562 -37.546875 C -5.074219 -40.425781 -6.355469 -43.308594 -7.828125 -46.1875 C -8.265625 -46.847656 -9.046875 -46.839844 -9.550781 -46.484375 C -12.390625 -48.960938 -14.886719 -44.046875 -15.964844 -42.121094 C -16.078125 -41.769531 -16.191406 -41.414062 -16.1875 -41.023438 C -16.644531 -39.613281 -16.351562 -37.894531 -15.828125 -36.296875 C -14.707031 -33.335938 -13.15625 -30.496094 -11.71875 -27.691406 C -8.808594 -21.816406 -5.472656 -16.253906 -1.824219 -10.855469 C -0.398438 -8.835938 0.875 -6.539062 3.308594 -5.820312 C 3.855469 -5.707031 4.363281 -5.671875 4.835938 -5.714844 L 5.109375 -5.5625 C 7.34375 -4.839844 9.917969 -5.570312 11.308594 -7.457031 C 11.851562 -8.128906 11.6875 -8.832031 11.332031 -9.335938 C 11.832031 -9.886719 12.21875 -10.675781 12.289062 -11.496094 Z M -12.609375 -38.828125 C -12.6875 -38.984375 -12.613281 -39.613281 -12.460938 -39.886719 L -12.382812 -39.925781 C -11.964844 -36.996094 -10.644531 -34.039062 -9.292969 -31.390625 C -7.578125 -27.851562 -5.707031 -24.386719 -3.914062 -20.882812 L -4.144531 -20.765625 C -5.335938 -22.511719 -6.527344 -24.261719 -7.636719 -26.050781 C -7.675781 -26.128906 -7.675781 -26.128906 -7.71875 -26.207031 L -8.117188 -26.984375 C -9.792969 -30.644531 -11.980469 -34.730469 -12.609375 -38.828125 Z M -12.609375 -38.828125 "/></g></g></g><g fill="#ffffff" fill-opacity="1"><g transform="translate(190.626501, 202.94363)"><g><path d="M -19.246094 -42.011719 C -19.324219 -41.777344 -19.203125 -41.542969 -19.007812 -41.546875 C -17.695312 -43.199219 -16.339844 -44.777344 -14.828125 -46.238281 C -10.609375 -50.660156 -5.914062 -54.535156 -1.21875 -58.414062 C 1.460938 -60.667969 4.175781 -63.039062 6.8125 -65.371094 C 6.109375 -65.011719 5.410156 -64.652344 4.75 -64.21875 C 1.523438 -62.269531 -1.351562 -60.015625 -4.222656 -57.757812 L -5.773438 -56.375 C -10.621094 -52.027344 -15.503906 -47.367188 -19.246094 -42.011719 Z M 40.632812 -32.6875 C 41.210938 -33.863281 41.273438 -35.273438 40.480469 -36.632812 C 37.898438 -40.910156 32.910156 -47.003906 27.554688 -42.691406 C 26.820312 -42.019531 26.242188 -41.230469 25.503906 -40.558594 L 22.945312 -38.070312 C 21.398438 -36.492188 19.886719 -34.835938 18.378906 -33.179688 C 17.410156 -32.191406 16.480469 -31.128906 15.554688 -30.0625 L 10.253906 -24.109375 C 8.898438 -22.53125 7.542969 -20.953125 6.230469 -19.300781 L 6.078125 -19.023438 C 5.996094 -19.179688 5.957031 -19.257812 5.917969 -19.335938 L 2.859375 -24.15625 C 4.480469 -26.359375 6.027344 -28.527344 7.804688 -30.617188 C 10.667969 -34.042969 13.726562 -37.085938 16.945312 -40.007812 C 18.574219 -41.433594 20.320312 -42.816406 22.027344 -44.085938 C 23.621094 -45.390625 25.371094 -46.1875 26.609375 -47.804688 C 27.652344 -49.222656 27.707031 -51.414062 26.640625 -52.730469 C 26.085938 -53.429688 25.21875 -53.96875 24.320312 -54 C 24.242188 -53.960938 24.242188 -53.960938 24.125 -54 C 23.886719 -54.269531 23.574219 -54.5 23.257812 -54.734375 C 23.101562 -54.847656 22.902344 -55.042969 22.628906 -55.195312 C 20.582031 -56.507812 18.675781 -55.628906 16.769531 -54.554688 C 15.875 -54 15.058594 -53.484375 14.203125 -52.847656 L 13.3125 -52.097656 C 11.179688 -50.121094 8.96875 -48.105469 6.796875 -46.210938 C 3.195312 -42.304688 -0.128906 -38.242188 -3.53125 -34.144531 C -3.730469 -34.535156 -5.628906 -37.097656 -6.105469 -37.835938 L -6.03125 -38.070312 C -4.136719 -40.316406 -2.125 -42.527344 -0.0703125 -44.65625 C 0.585938 -45.484375 7.097656 -51.765625 10.507812 -54.886719 C 10.664062 -54.964844 10.78125 -55.125 10.894531 -55.28125 C 12.445312 -56.664062 13.957031 -58.125 15.390625 -59.546875 L 18.683594 -62.707031 C 18.199219 -64.421875 17.128906 -65.9375 15.75 -67.292969 C 15.199219 -67.40625 14.535156 -67.554688 13.984375 -67.667969 L 12.5 -67.496094 C 11.953125 -67.414062 11.367188 -67.214844 10.785156 -67.011719 C 7.292969 -63.851562 3.804688 -60.6875 0.15625 -57.644531 C -4.578125 -53.84375 -9.273438 -49.96875 -13.492188 -45.546875 C -14.847656 -44.167969 -16.242188 -42.667969 -17.519531 -41.128906 C -17.476562 -40.855469 -17.511719 -40.542969 -17.511719 -40.347656 C -18.121094 -38.855469 -18.226562 -37.328125 -17.582031 -35.695312 C -17.0625 -34.289062 -15.839844 -33.050781 -14.386719 -32.515625 L -8.910156 -24.121094 L -3.195312 -15.261719 C -1.566406 -12.65625 0.0234375 -9.933594 1.84375 -7.527344 C 2.179688 -5.144531 4.699219 -3.484375 7.042969 -3.703125 C 7.164062 -3.273438 7.324219 -2.964844 7.679688 -2.652344 C 8.980469 -1.648438 10.417969 -2.289062 11.546875 -3.160156 C 11.855469 -3.320312 12.285156 -3.636719 12.285156 -3.636719 C 12.246094 -3.519531 16.003906 -7.113281 16.621094 -8.214844 L 16.660156 -8.332031 C 17.316406 -9.160156 18.011719 -9.90625 18.667969 -10.734375 C 18.785156 -10.894531 18.980469 -11.089844 19.09375 -11.246094 L 19.171875 -11.289062 C 21.183594 -13.691406 23.351562 -15.980469 25.519531 -18.269531 C 30.050781 -23.042969 35.050781 -27.472656 40.253906 -31.507812 C 40.679688 -31.824219 40.753906 -32.257812 40.632812 -32.6875 Z M 13.351562 -39.542969 L 13.550781 -39.351562 C 13.160156 -38.957031 12.851562 -38.601562 12.503906 -38.128906 C 9.410156 -34.582031 6.121094 -31.03125 3.300781 -27.132812 C 3.644531 -27.996094 3.714844 -29.011719 3.429688 -29.949219 C 4.710938 -31.09375 5.949219 -32.320312 7.269531 -33.582031 C 9.28125 -35.597656 11.335938 -37.53125 13.351562 -39.542969 Z M 9.9375 -3.808594 C 11.292969 -4.996094 12.453125 -6.375 13.652344 -7.675781 C 14.894531 -8.902344 16.015625 -10.164062 17.136719 -11.425781 L 17.21875 -11.269531 C 16.367188 -10.046875 15.519531 -8.828125 14.59375 -7.566406 C 14.207031 -6.976562 13.746094 -6.347656 13.28125 -5.71875 C 13.242188 -5.601562 13.164062 -5.558594 13.085938 -5.519531 C 12.894531 -5.324219 11.183594 -4.25 9.9375 -3.808594 Z M 9.9375 -3.808594 "/></g></g></g><g fill="#ffffff" fill-opacity="1"><g transform="translate(230.241061, 182.665234)"><g><path d="M 47.03125 -30.359375 C 40.039062 -45.9375 30.363281 -60.238281 19.949219 -73.667969 C 19.832031 -73.707031 19.675781 -73.625 19.757812 -73.472656 C 22.457031 -69.15625 25.039062 -64.683594 27.546875 -60.171875 C 27.46875 -60.128906 27.355469 -59.972656 27.277344 -59.933594 L 20.410156 -70.464844 C 19.023438 -72.605469 16.585938 -73.714844 14.175781 -72.480469 C 11.996094 -71.363281 10.769531 -68.378906 12.082031 -66.203125 C 16.292969 -59.320312 20.816406 -52.597656 25.101562 -45.757812 L 27.761719 -41.714844 C 21.261719 -46.738281 14.296875 -51.128906 7.027344 -54.972656 C 3.839844 -57.167969 0.253906 -59.753906 -3.65625 -59.914062 C -3.886719 -59.402344 -4 -58.855469 -4.03125 -58.347656 C -4.933594 -58.378906 -5.710938 -58.175781 -6.292969 -57.582031 C -8.226562 -55.414062 -6.882812 -53.546875 -5.84375 -51.328125 C -4.6875 -49.074219 -3.300781 -46.933594 -1.910156 -44.796875 C 0.671875 -40.714844 2.820312 -36.511719 4.625 -32.03125 C 5.308594 -30.121094 5.988281 -28.210938 6.515625 -26.222656 C 6.164062 -26.335938 5.847656 -26.570312 5.613281 -26.839844 C 1.53125 -32.511719 -2.164062 -38.382812 -5.894531 -44.328125 C -7.160156 -45.84375 -8.425781 -47.355469 -9.769531 -48.828125 C -11.191406 -50.457031 -12.734375 -52.320312 -14.351562 -53.75 C -16.640625 -55.722656 -19.597656 -54.40625 -18.683594 -52.617188 C -18.640625 -52.539062 -18.445312 -52.539062 -18.527344 -52.695312 C -18.855469 -54.492188 -16.503906 -53.925781 -15.796875 -53.308594 C -15.242188 -52.804688 -14.847656 -52.222656 -14.449219 -51.640625 C -14.289062 -51.328125 -14.09375 -51.132812 -13.894531 -50.941406 C -15.625 -51.824219 -17.546875 -52.3125 -19.5 -52.296875 C -22.160156 -52.308594 -23.074219 -49.679688 -21.6875 -47.738281 C -17.085938 -41.054688 -12.449219 -34.492188 -7.890625 -27.886719 C -3.328125 -21.085938 1.195312 -14.167969 6.105469 -7.644531 C 6.464844 -7.140625 6.894531 -6.871094 7.445312 -6.757812 C 8.234375 -5.789062 9.488281 -5.449219 10.660156 -5.652344 C 12.613281 -6.0625 13.496094 -7.792969 13.242188 -9.628906 C 13.160156 -10.175781 13.15625 -10.761719 13.070312 -11.308594 C 13.511719 -10.453125 14.21875 -10.027344 15.15625 -9.921875 C 15.351562 -9.921875 15.46875 -10.078125 15.464844 -10.273438 C 16.097656 -13.839844 15.710938 -17.667969 15.363281 -21.222656 C 14.816406 -25.167969 13.960938 -28.953125 12.90625 -32.734375 C 12.136719 -35.777344 11.167969 -38.820312 10.203125 -41.863281 C 11.339844 -41.363281 12.402344 -40.828125 13.460938 -40.289062 C 16.410156 -38.753906 19.320312 -37.097656 22.074219 -35.363281 C 27.582031 -31.898438 32.777344 -28.074219 37.550781 -23.742188 C 39.484375 -22.078125 42.53125 -22.261719 43.644531 -24.699219 C 44.652344 -25.605469 45.265625 -26.902344 44.820312 -28.347656 C 44.738281 -28.695312 44.578125 -29.007812 44.496094 -29.359375 L 44.617188 -29.125 C 45.492188 -27.609375 47.75 -28.765625 47.03125 -30.359375 Z M 13.070312 -11.503906 C 12.988281 -11.855469 12.90625 -12.207031 12.941406 -12.519531 C 13.148438 -15.375 13.121094 -18.308594 12.785156 -21.082031 C 13.675781 -17.609375 14.21875 -14.054688 14.839844 -10.542969 C 14.097656 -10.457031 13.546875 -10.765625 13.265625 -11.503906 C 13.226562 -11.582031 13.109375 -11.621094 13.070312 -11.503906 Z M 13.070312 -11.503906 "/></g></g></g><g fill="#ffffff" fill-opacity="1"><g transform="translate(275.303707, 159.598003)"><g><path d="M -19.246094 -42.011719 C -19.324219 -41.777344 -19.203125 -41.542969 -19.007812 -41.546875 C -17.695312 -43.199219 -16.339844 -44.777344 -14.828125 -46.238281 C -10.609375 -50.660156 -5.914062 -54.535156 -1.21875 -58.414062 C 1.460938 -60.667969 4.175781 -63.039062 6.8125 -65.371094 C 6.109375 -65.011719 5.410156 -64.652344 4.75 -64.21875 C 1.523438 -62.269531 -1.351562 -60.015625 -4.222656 -57.757812 L -5.773438 -56.375 C -10.621094 -52.027344 -15.503906 -47.367188 -19.246094 -42.011719 Z M 40.632812 -32.6875 C 41.210938 -33.863281 41.273438 -35.273438 40.480469 -36.632812 C 37.898438 -40.910156 32.910156 -47.003906 27.554688 -42.691406 C 26.820312 -42.019531 26.242188 -41.230469 25.503906 -40.558594 L 22.945312 -38.070312 C 21.398438 -36.492188 19.886719 -34.835938 18.378906 -33.179688 C 17.410156 -32.191406 16.480469 -31.128906 15.554688 -30.0625 L 10.253906 -24.109375 C 8.898438 -22.53125 7.542969 -20.953125 6.230469 -19.300781 L 6.078125 -19.023438 C 5.996094 -19.179688 5.957031 -19.257812 5.917969 -19.335938 L 2.859375 -24.15625 C 4.480469 -26.359375 6.027344 -28.527344 7.804688 -30.617188 C 10.667969 -34.042969 13.726562 -37.085938 16.945312 -40.007812 C 18.574219 -41.433594 20.320312 -42.816406 22.027344 -44.085938 C 23.621094 -45.390625 25.371094 -46.1875 26.609375 -47.804688 C 27.652344 -49.222656 27.707031 -51.414062 26.640625 -52.730469 C 26.085938 -53.429688 25.21875 -53.96875 24.320312 -54 C 24.242188 -53.960938 24.242188 -53.960938 24.125 -54 C 23.886719 -54.269531 23.574219 -54.5 23.257812 -54.734375 C 23.101562 -54.847656 22.902344 -55.042969 22.628906 -55.195312 C 20.582031 -56.507812 18.675781 -55.628906 16.769531 -54.554688 C 15.875 -54 15.058594 -53.484375 14.203125 -52.847656 L 13.3125 -52.097656 C 11.179688 -50.121094 8.96875 -48.105469 6.796875 -46.210938 C 3.195312 -42.304688 -0.128906 -38.242188 -3.53125 -34.144531 C -3.730469 -34.535156 -5.628906 -37.097656 -6.105469 -37.835938 L -6.03125 -38.070312 C -4.136719 -40.316406 -2.125 -42.527344 -0.0703125 -44.65625 C 0.585938 -45.484375 7.097656 -51.765625 10.507812 -54.886719 C 10.664062 -54.964844 10.78125 -55.125 10.894531 -55.28125 C 12.445312 -56.664062 13.957031 -58.125 15.390625 -59.546875 L 18.683594 -62.707031 C 18.199219 -64.421875 17.128906 -65.9375 15.75 -67.292969 C 15.199219 -67.40625 14.535156 -67.554688 13.984375 -67.667969 L 12.5 -67.496094 C 11.953125 -67.414062 11.367188 -67.214844 10.785156 -67.011719 C 7.292969 -63.851562 3.804688 -60.6875 0.15625 -57.644531 C -4.578125 -53.84375 -9.273438 -49.96875 -13.492188 -45.546875 C -14.847656 -44.167969 -16.242188 -42.667969 -17.519531 -41.128906 C -17.476562 -40.855469 -17.511719 -40.542969 -17.511719 -40.347656 C -18.121094 -38.855469 -18.226562 -37.328125 -17.582031 -35.695312 C -17.0625 -34.289062 -15.839844 -33.050781 -14.386719 -32.515625 L -8.910156 -24.121094 L -3.195312 -15.261719 C -1.566406 -12.65625 0.0234375 -9.933594 1.84375 -7.527344 C 2.179688 -5.144531 4.699219 -3.484375 7.042969 -3.703125 C 7.164062 -3.273438 7.324219 -2.964844 7.679688 -2.652344 C 8.980469 -1.648438 10.417969 -2.289062 11.546875 -3.160156 C 11.855469 -3.320312 12.285156 -3.636719 12.285156 -3.636719 C 12.246094 -3.519531 16.003906 -7.113281 16.621094 -8.214844 L 16.660156 -8.332031 C 17.316406 -9.160156 18.011719 -9.90625 18.667969 -10.734375 C 18.785156 -10.894531 18.980469 -11.089844 19.09375 -11.246094 L 19.171875 -11.289062 C 21.183594 -13.691406 23.351562 -15.980469 25.519531 -18.269531 C 30.050781 -23.042969 35.050781 -27.472656 40.253906 -31.507812 C 40.679688 -31.824219 40.753906 -32.257812 40.632812 -32.6875 Z M 13.351562 -39.542969 L 13.550781 -39.351562 C 13.160156 -38.957031 12.851562 -38.601562 12.503906 -38.128906 C 9.410156 -34.582031 6.121094 -31.03125 3.300781 -27.132812 C 3.644531 -27.996094 3.714844 -29.011719 3.429688 -29.949219 C 4.710938 -31.09375 5.949219 -32.320312 7.269531 -33.582031 C 9.28125 -35.597656 11.335938 -37.53125 13.351562 -39.542969 Z M 9.9375 -3.808594 C 11.292969 -4.996094 12.453125 -6.375 13.652344 -7.675781 C 14.894531 -8.902344 16.015625 -10.164062 17.136719 -11.425781 L 17.21875 -11.269531 C 16.367188 -10.046875 15.519531 -8.828125 14.59375 -7.566406 C 14.207031 -6.976562 13.746094 -6.347656 13.28125 -5.71875 C 13.242188 -5.601562 13.164062 -5.558594 13.085938 -5.519531 C 12.894531 -5.324219 11.183594 -4.25 9.9375 -3.808594 Z M 9.9375 -3.808594 "/></g></g></g><g fill="#ffffff" fill-opacity="1"><g transform="translate(314.918267, 139.319606)"><g><path d="M 22.820312 -47.339844 C 21.785156 -49.167969 20.828125 -51.035156 19.910156 -53.019531 C 18.351562 -56.835938 17.175781 -61.050781 14.835938 -64.46875 C 13.527344 -66.453125 11.328125 -67.484375 9.070312 -66.332031 C 7.046875 -65.296875 6.132812 -62.667969 7.207031 -60.566406 C 7.964844 -59.28125 8.640625 -57.957031 9.316406 -56.636719 L 8.730469 -56.824219 C 6.457031 -57.429688 4.144531 -57.71875 1.875 -57.933594 C -3.015625 -58.472656 -7.707031 -58.234375 -12.546875 -57.328125 C -13.09375 -57.242188 -13.484375 -57.042969 -13.753906 -56.808594 C -15.667969 -56.515625 -17.621094 -56.105469 -19.414062 -55.386719 C -22.179688 -54.265625 -23.597656 -51.472656 -22.90625 -48.585938 C -22.214844 -45.699219 -19.65625 -44.160156 -17.261719 -42.929688 C -12.46875 -40.667969 -7.449219 -39.113281 -2.277344 -38.027344 L -0.628906 -37.691406 C 1.015625 -37.160156 2.664062 -36.628906 4.273438 -35.980469 C 8.316406 -34.609375 12.238281 -33.082031 16.125 -31.4375 C 17.382812 -30.902344 18.640625 -30.367188 19.816406 -29.789062 C 20.214844 -29.402344 20.644531 -29.132812 21 -28.824219 C 21.628906 -28.359375 23.089844 -27.242188 23.136719 -26.183594 C 23.257812 -25.953125 23.375 -25.71875 23.261719 -25.363281 C 23.117188 -24.113281 21.640625 -23.160156 20.667969 -22.5625 C 19.035156 -21.53125 17.402344 -20.695312 15.6875 -20.015625 C 14.714844 -19.613281 13.699219 -19.292969 12.605469 -19.125 C 11.3125 -19.347656 10.019531 -19.765625 8.84375 -20.144531 C 6.683594 -20.90625 4.753906 -22.375 3.097656 -23.882812 C -1.320312 -28.105469 -4.382812 -33.511719 -8.648438 -37.8125 C -10.226562 -39.359375 -12.144531 -39.265625 -13.890625 -38.074219 C -15.328125 -37.042969 -15.738281 -34.96875 -15.332031 -33.40625 C -14.644531 -30.910156 -12.941406 -28.738281 -11.515625 -26.71875 C -9.929688 -24.386719 -8.34375 -22.054688 -6.484375 -19.960938 C -3.125 -16.277344 -0.0390625 -12.355469 2.660156 -8.238281 C 3.214844 -7.539062 3.804688 -6.957031 4.550781 -6.652344 C 5.503906 -5.371094 6.957031 -4.445312 8.253906 -4.027344 C 9.429688 -3.648438 10.675781 -4.285156 11.054688 -5.460938 C 11.628906 -6.835938 11.535156 -8.359375 11.167969 -9.84375 C 13.125 -9.667969 15.121094 -9.800781 17.03125 -10.289062 C 19.878906 -10.863281 22.996094 -12.066406 25.445312 -13.8125 L 25.679688 -13.929688 C 30.460938 -16.671875 33.882812 -23.042969 31.449219 -28.179688 C 30.722656 -30.363281 29.179688 -32.226562 27.328125 -33.734375 C 25.785156 -35.59375 23.699219 -36.984375 21.382812 -38.058594 C 18.042969 -39.589844 14.472656 -40.808594 10.980469 -42.0625 C 7.332031 -43.4375 3.566406 -44.652344 -0.160156 -45.792969 L -4.90625 -47.191406 C -2.640625 -47.761719 -0.183594 -48.136719 2.203125 -48.277344 C 6.816406 -48.476562 11.472656 -47.816406 15.445312 -45.625 C 15.523438 -45.664062 15.5625 -45.589844 15.640625 -45.628906 C 17.980469 -42.207031 21.933594 -37.75 25.269531 -40.636719 C 26.199219 -41.503906 26.222656 -42.992188 25.394531 -43.84375 C 24.484375 -45.046875 23.574219 -46.054688 22.820312 -47.339844 Z M 22.820312 -47.339844 "/></g></g></g><g fill="#ffffff" fill-opacity="1"><g transform="translate(347.528158, 122.626848)"><g><path d="M -9.441406 -59.507812 C -10.878906 -62.894531 -13.605469 -65.921875 -17.253906 -66.902344 C -19.449219 -67.546875 -20.789062 -64.40625 -19.09375 -63.015625 C -17.042969 -61.3125 -14.917969 -59.847656 -13.253906 -57.554688 C -11.828125 -55.730469 -8.324219 -57.132812 -9.441406 -59.507812 Z M -19.636719 -54.09375 C -17.695312 -51.453125 -13.457031 -54.308594 -15.398438 -56.949219 C -17.300781 -59.316406 -19.59375 -62.070312 -22.382812 -63.296875 C -24.265625 -64.097656 -26.746094 -61.847656 -25.246094 -60.0625 C -23.464844 -57.929688 -21.335938 -56.265625 -19.636719 -54.09375 Z M -19.636719 -54.09375 "/></g></g></g></svg>