<svg xmlns="http://www.w3.org/2000/svg" xmlns:xlink="http://www.w3.org/1999/xlink" width="500" zoomAndPan="magnify" viewBox="0 0 375 374.999991" height="500" preserveAspectRatio="xMidYMid meet" version="1.0"><defs><g/><clipPath id="00632c3193"><path d="M 154.117188 153.125 L 354.367188 153.125 L 354.367188 345.875 L 154.117188 345.875 Z M 154.117188 153.125 " clip-rule="nonzero"/></clipPath></defs><g fill="#ffffff" fill-opacity="1"><g transform="translate(234.016089, 87.39387)"><g><path d="M 14.117188 -16.023438 C 13.933594 -17.144531 13.707031 -18.300781 13.371094 -19.421875 C 13 -20.507812 12.476562 -21.550781 11.953125 -22.558594 C 11.765625 -22.894531 11.390625 -22.972656 11.09375 -22.859375 C 10.832031 -23.34375 10.457031 -23.980469 9.972656 -24.277344 C 9.523438 -24.539062 8.890625 -24.539062 8.367188 -24.429688 C 7.882812 -24.464844 7.394531 -24.316406 6.910156 -24.128906 C 5.714844 -23.867188 4.816406 -22.710938 4.183594 -21.328125 C 4.109375 -21.328125 3.996094 -21.363281 3.882812 -21.328125 C 4.035156 -21.738281 4.183594 -22.148438 4.371094 -22.558594 C 4.519531 -22.933594 4.742188 -23.308594 4.96875 -23.679688 C 5.003906 -23.753906 4.929688 -23.792969 4.894531 -23.71875 C 4.257812 -22.894531 3.773438 -22 3.398438 -21.027344 C 3.363281 -20.992188 3.363281 -20.953125 3.324219 -20.953125 C 0.820312 -16.769531 0.148438 -11.839844 0.894531 -7.058594 C 1.269531 -4.855469 2.015625 -2.613281 3.773438 -1.121094 C 4.78125 -0.296875 6.164062 0.148438 7.394531 -0.0742188 C 7.804688 -0.0390625 8.21875 -0.0390625 8.628906 -0.0742188 C 9.675781 -0.222656 10.53125 -0.710938 11.242188 -1.417969 C 11.765625 -1.867188 12.214844 -2.390625 12.625 -2.949219 C 13.855469 -4.707031 14.195312 -6.984375 14.378906 -9.039062 C 14.640625 -11.390625 14.492188 -13.707031 14.117188 -16.023438 Z M 9.449219 -5.15625 C 9.335938 -4.707031 9.152344 -4.296875 8.925781 -3.882812 C 8.703125 -3.472656 8.367188 -3.136719 7.917969 -2.988281 C 6.3125 -2.503906 5.003906 -4.035156 4.40625 -5.265625 C 4.78125 -5.042969 5.265625 -4.929688 5.714844 -5.042969 C 5.863281 -5.078125 6.011719 -5.15625 6.125 -5.230469 C 5.566406 -7.65625 5.265625 -10.195312 5.378906 -12.738281 C 5.453125 -13.597656 5.527344 -14.453125 5.675781 -15.3125 C 5.714844 -15.351562 5.714844 -15.390625 5.753906 -15.464844 C 6.050781 -16.996094 6.535156 -18.527344 7.246094 -19.910156 C 7.394531 -20.167969 7.546875 -20.46875 7.769531 -20.617188 C 5.640625 -16.136719 5.566406 -10.644531 6.609375 -5.789062 C 6.796875 -6.125 6.835938 -6.5 6.761719 -6.910156 C 6.3125 -9.675781 6.273438 -12.550781 6.609375 -15.3125 C 6.796875 -16.734375 7.132812 -18.117188 7.546875 -19.460938 C 7.65625 -19.832031 7.804688 -20.320312 8.03125 -20.730469 L 8.21875 -20.730469 C 8.253906 -20.730469 8.328125 -20.691406 8.367188 -20.65625 C 8.515625 -20.394531 8.628906 -20.09375 8.738281 -19.832031 C 9 -19.199219 9.226562 -18.527344 9.449219 -17.855469 C 9.5625 -17.332031 9.636719 -16.769531 9.75 -16.210938 C 10.046875 -14.378906 10.160156 -12.476562 10.308594 -10.609375 C 10.308594 -8.777344 10.085938 -6.910156 9.449219 -5.15625 Z M 9.449219 -5.15625 "/></g></g></g><g fill="#ffffff" fill-opacity="1"><g transform="translate(249.703436, 87.39387)"><g><path d="M 18.003906 -7.207031 C 18.863281 -10.195312 19.011719 -13.335938 18.863281 -16.433594 L 18.863281 -17.929688 C 18.863281 -18.824219 18.714844 -19.722656 18.636719 -20.617188 C 18.527344 -22 18.375 -23.792969 16.695312 -23.980469 C 16.285156 -24.015625 15.949219 -23.605469 15.949219 -23.234375 L 15.949219 -22.859375 C 15.015625 -23.382812 13.671875 -22.636719 13.707031 -21.515625 C 13.746094 -18.152344 13.78125 -14.828125 13.558594 -11.503906 C 13.484375 -10.234375 13.558594 -7.882812 12.699219 -6.609375 C 12.175781 -6.164062 11.542969 -5.863281 10.832031 -5.714844 C 10.160156 -5.753906 9.597656 -6.050781 9.078125 -6.460938 C 8.066406 -9.152344 7.394531 -11.953125 7.207031 -14.828125 C 7.132812 -16.210938 7.132812 -17.628906 7.246094 -19.050781 C 7.320312 -20.207031 7.917969 -21.589844 7.507812 -22.710938 C 7.171875 -23.53125 6.386719 -24.167969 5.492188 -24.277344 C 3.25 -24.613281 2.089844 -22.335938 1.679688 -20.46875 C 0.558594 -15.648438 0.746094 -10.421875 2.578125 -5.789062 C 2.800781 -5.230469 3.324219 -5.042969 3.773438 -5.078125 C 4.183594 -4.222656 4.707031 -3.398438 5.339844 -2.652344 C 7.207031 -0.484375 10.683594 0.894531 13.257812 -0.746094 C 13.894531 -1.046875 14.566406 -1.644531 14.902344 -2.015625 C 14.976562 -2.089844 15.050781 -2.167969 15.164062 -2.242188 C 16.585938 -3.546875 17.441406 -5.378906 18.003906 -7.207031 Z M 7.097656 -20.355469 C 6.535156 -17.070312 6.574219 -13.707031 7.171875 -10.421875 C 7.132812 -10.457031 7.097656 -10.457031 7.058594 -10.457031 C 6.949219 -10.90625 6.835938 -11.390625 6.761719 -11.878906 C 6.273438 -14.34375 6.273438 -16.921875 6.574219 -19.460938 C 6.722656 -19.757812 6.796875 -20.09375 6.871094 -20.429688 C 6.910156 -20.355469 7.023438 -20.320312 7.097656 -20.355469 Z M 7.097656 -20.355469 "/></g></g></g><g fill="#ffffff" fill-opacity="1"><g transform="translate(268.752355, 87.39387)"><g><path d="M 21.289062 -14.230469 C 21.402344 -15.050781 21.179688 -15.726562 20.582031 -16.171875 C 20.09375 -16.546875 19.570312 -16.957031 19.050781 -17.332031 C 18.972656 -17.628906 18.824219 -17.929688 18.527344 -18.152344 C 14.867188 -20.617188 11.167969 -23.15625 7.058594 -24.464844 C 7.023438 -24.464844 6.984375 -24.503906 6.949219 -24.503906 C 6.6875 -24.613281 6.425781 -24.6875 6.164062 -24.800781 C 6.089844 -24.875 5.976562 -24.949219 5.828125 -24.949219 C 4.59375 -25.175781 2.351562 -25.660156 1.644531 -24.277344 C 1.234375 -23.417969 1.644531 -22.375 2.351562 -21.777344 C 2.128906 -21.441406 1.867188 -21.179688 1.570312 -20.953125 C 1.867188 -19.683594 2.128906 -18.375 2.390625 -17.105469 C 2.167969 -17.105469 1.941406 -17.105469 1.71875 -17.070312 C 0.597656 -17.070312 0.148438 -15.203125 1.195312 -14.53125 C 1.53125 -14.304688 1.941406 -14.082031 2.316406 -13.933594 L 1.457031 -13.820312 C 1.867188 -13.671875 2.277344 -13.519531 2.6875 -13.410156 C 2.839844 -13.371094 2.914062 -13.257812 2.914062 -13.148438 C 2.988281 -13.148438 3.0625 -13.148438 3.136719 -13.148438 L 3.363281 -11.839844 C 3.660156 -10.085938 3.960938 -8.328125 4.257812 -6.574219 L 4.59375 -4.109375 C 4.667969 -3.285156 4.59375 -2.390625 4.78125 -1.605469 C 4.78125 -1.195312 5.15625 -0.933594 5.453125 -1.007812 C 5.492188 -0.785156 5.566406 -0.597656 5.675781 -0.410156 C 6.125 0.113281 6.871094 0.0742188 7.359375 -0.335938 C 7.730469 -0.636719 7.992188 -1.007812 8.21875 -1.457031 C 8.21875 -1.644531 8.21875 -1.867188 8.179688 -2.089844 C 8.292969 -3.921875 8.105469 -5.828125 7.992188 -7.65625 C 7.917969 -9.375 7.769531 -11.09375 7.582031 -12.773438 C 8.554688 -12.738281 9.5625 -12.664062 10.53125 -12.625 C 10.71875 -12.289062 10.945312 -11.914062 11.167969 -11.578125 L 11.167969 -11.542969 C 11.390625 -11.167969 11.578125 -10.792969 11.765625 -10.382812 C 12.476562 -9 13.484375 -6.535156 13.894531 -5.566406 C 14.640625 -3.847656 15.390625 -2.089844 16.0625 -0.335938 C 16.210938 -0.261719 16.433594 -0.335938 16.546875 -0.449219 C 16.546875 -0.410156 16.585938 -0.410156 16.621094 -0.410156 C 16.957031 -0.261719 17.292969 -0.261719 17.628906 -0.296875 C 18.265625 -0.0390625 19.125 -0.222656 19.234375 -1.046875 C 19.535156 -3.472656 18.226562 -5.828125 17.21875 -7.957031 C 16.433594 -9.5625 15.539062 -11.09375 14.53125 -12.585938 C 16.285156 -12.4375 18.039062 -12.289062 19.796875 -12.175781 C 20.394531 -12.101562 21.105469 -12.738281 21.179688 -13.445312 Z M 6.125 -19.945312 L 6.011719 -20.542969 C 9.226562 -19.796875 12.214844 -18.191406 15.089844 -16.210938 L 11.46875 -16.660156 C 10.609375 -17.367188 9.375 -18.375 8.253906 -17.667969 C 8.066406 -17.519531 7.957031 -17.292969 7.917969 -17.105469 C 7.730469 -17.144531 7.507812 -17.144531 7.320312 -17.183594 C 7.171875 -17.964844 6.984375 -18.75 6.796875 -19.535156 C 6.761719 -19.871094 6.386719 -19.871094 6.199219 -19.683594 C 6.164062 -19.757812 6.164062 -19.871094 6.125 -19.945312 Z M 8.777344 -3.136719 C 8.925781 -4.035156 9.226562 -4.40625 9.113281 -5.753906 C 8.925781 -7.992188 8.738281 -10.234375 8.367188 -12.402344 L 8.066406 -12.402344 C 8.515625 -9.335938 8.628906 -6.238281 8.777344 -3.136719 Z M 8.777344 -3.136719 "/></g></g></g><g fill="#ffffff" fill-opacity="1"><g transform="translate(181.72493, 114.484645)"><g><path d="M 18.003906 -14.15625 C 17.332031 -15.128906 16.0625 -15.574219 15.015625 -14.941406 C 13.894531 -14.304688 13.746094 -13.035156 14.230469 -11.953125 C 14.453125 -11.429688 14.492188 -10.871094 14.53125 -10.273438 C 14.566406 -8.964844 14.417969 -7.546875 13.746094 -6.351562 C 13.519531 -5.902344 13.148438 -5.453125 12.773438 -5.117188 C 11.765625 -4.222656 10.457031 -3.734375 9.078125 -3.699219 C 8.925781 -3.699219 8.738281 -3.734375 8.589844 -3.734375 C 6.164062 -3.882812 4.855469 -5.976562 4.144531 -8.179688 C 3.882812 -9 3.734375 -9.859375 3.773438 -10.757812 C 3.773438 -10.945312 3.773438 -11.167969 3.808594 -11.355469 C 3.808594 -11.578125 3.847656 -11.578125 3.882812 -11.878906 C 4.480469 -15.050781 5.863281 -17.59375 8.402344 -19.535156 C 8.589844 -19.648438 8.738281 -19.757812 8.890625 -19.871094 L 9.113281 -12.664062 C 9.152344 -11.46875 9.113281 -10.234375 9.636719 -9.078125 C 10.046875 -8.179688 11.054688 -7.546875 12.027344 -7.65625 C 12.8125 -7.730469 12.664062 -8.890625 11.878906 -8.738281 C 10.792969 -8.554688 10.273438 -9.75 10.046875 -10.609375 L 10.046875 -10.71875 L 10.160156 -10.71875 C 10.234375 -10.496094 10.308594 -10.234375 10.457031 -10.011719 C 10.683594 -9.5625 11.019531 -9.1875 11.503906 -9.039062 C 11.578125 -9.039062 11.691406 -9 11.804688 -9.039062 C 11.839844 -8.964844 11.914062 -8.925781 12.027344 -8.851562 C 12.214844 -8.738281 12.511719 -8.851562 12.550781 -9.078125 C 12.664062 -9.5625 12.585938 -10.085938 12.585938 -10.609375 C 12.550781 -11.207031 12.511719 -11.839844 12.511719 -12.476562 L 12.402344 -16.023438 C 12.363281 -17.21875 12.324219 -20.878906 12.402344 -21.515625 C 12.4375 -22.074219 12.476562 -22.523438 12.25 -22.972656 C 12.25 -23.605469 11.765625 -24.167969 10.980469 -24.242188 C 10.085938 -24.316406 9.152344 -24.054688 8.402344 -23.605469 C 7.621094 -23.15625 6.871094 -22.671875 6.164062 -22.148438 C 4.632812 -21.066406 2.988281 -19.386719 1.867188 -17.890625 C 0.1875 -15.726562 -0.375 -13.035156 -0.410156 -10.308594 C -0.410156 -9.488281 -0.296875 -8.664062 -0.148438 -7.882812 C 0.558594 -4.59375 2.988281 -1.867188 6.050781 -0.636719 C 9.1875 0.636719 12.886719 -0.1875 15.425781 -2.242188 C 16.996094 -3.472656 17.929688 -5.453125 18.414062 -7.359375 C 18.972656 -9.449219 19.234375 -12.25 18.003906 -14.15625 Z M 9.636719 -20.394531 C 9.523438 -19.011719 9.523438 -17.628906 9.597656 -16.246094 L 9.414062 -16.246094 C 9.300781 -17.480469 9.152344 -18.714844 9.039062 -19.984375 C 9.226562 -20.09375 9.449219 -20.246094 9.636719 -20.394531 Z M 14.195312 -12.027344 C 14.195312 -12.066406 14.15625 -12.101562 14.15625 -12.101562 C 14.15625 -12.066406 14.195312 -12.066406 14.195312 -12.027344 Z M 14.230469 -11.953125 C 14.230469 -11.988281 14.195312 -11.988281 14.195312 -12.027344 C 14.195312 -11.988281 14.195312 -11.988281 14.230469 -11.953125 Z M 14.230469 -11.953125 "/></g></g></g><g fill="#ffffff" fill-opacity="1"><g transform="translate(201.147359, 114.484645)"><g><path d="M 18.003906 -7.207031 C 18.863281 -10.195312 19.011719 -13.335938 18.863281 -16.433594 L 18.863281 -17.929688 C 18.863281 -18.824219 18.714844 -19.722656 18.636719 -20.617188 C 18.527344 -22 18.375 -23.792969 16.695312 -23.980469 C 16.285156 -24.015625 15.949219 -23.605469 15.949219 -23.234375 L 15.949219 -22.859375 C 15.015625 -23.382812 13.671875 -22.636719 13.707031 -21.515625 C 13.746094 -18.152344 13.78125 -14.828125 13.558594 -11.503906 C 13.484375 -10.234375 13.558594 -7.882812 12.699219 -6.609375 C 12.175781 -6.164062 11.542969 -5.863281 10.832031 -5.714844 C 10.160156 -5.753906 9.597656 -6.050781 9.078125 -6.460938 C 8.066406 -9.152344 7.394531 -11.953125 7.207031 -14.828125 C 7.132812 -16.210938 7.132812 -17.628906 7.246094 -19.050781 C 7.320312 -20.207031 7.917969 -21.589844 7.507812 -22.710938 C 7.171875 -23.53125 6.386719 -24.167969 5.492188 -24.277344 C 3.25 -24.613281 2.089844 -22.335938 1.679688 -20.46875 C 0.558594 -15.648438 0.746094 -10.421875 2.578125 -5.789062 C 2.800781 -5.230469 3.324219 -5.042969 3.773438 -5.078125 C 4.183594 -4.222656 4.707031 -3.398438 5.339844 -2.652344 C 7.207031 -0.484375 10.683594 0.894531 13.257812 -0.746094 C 13.894531 -1.046875 14.566406 -1.644531 14.902344 -2.015625 C 14.976562 -2.089844 15.050781 -2.167969 15.164062 -2.242188 C 16.585938 -3.546875 17.441406 -5.378906 18.003906 -7.207031 Z M 7.097656 -20.355469 C 6.535156 -17.070312 6.574219 -13.707031 7.171875 -10.421875 C 7.132812 -10.457031 7.097656 -10.457031 7.058594 -10.457031 C 6.949219 -10.90625 6.835938 -11.390625 6.761719 -11.878906 C 6.273438 -14.34375 6.273438 -16.921875 6.574219 -19.460938 C 6.722656 -19.757812 6.796875 -20.09375 6.871094 -20.429688 C 6.910156 -20.355469 7.023438 -20.320312 7.097656 -20.355469 Z M 7.097656 -20.355469 "/></g></g></g><g fill="#ffffff" fill-opacity="1"><g transform="translate(220.196279, 114.484645)"><g><path d="M 17.890625 -13.558594 C 17.855469 -14.453125 17.855469 -15.351562 17.890625 -16.285156 C 18.039062 -18.039062 18.414062 -19.871094 18.191406 -21.625 C 18.078125 -22.636719 17.441406 -23.457031 16.359375 -23.457031 C 15.390625 -23.457031 14.53125 -22.636719 14.53125 -21.625 C 14.566406 -20.992188 14.566406 -20.355469 14.566406 -19.722656 L 14.378906 -19.910156 C 13.632812 -20.582031 12.8125 -21.140625 11.988281 -21.664062 C 10.234375 -22.820312 8.402344 -23.644531 6.386719 -24.242188 C 6.164062 -24.316406 5.976562 -24.316406 5.828125 -24.277344 C 5.042969 -24.539062 4.222656 -24.765625 3.398438 -24.839844 C 2.128906 -24.949219 1.046875 -24.167969 0.746094 -22.933594 C 0.449219 -21.699219 1.121094 -20.617188 1.792969 -19.683594 C 3.175781 -17.890625 4.78125 -16.324219 6.535156 -14.902344 L 7.097656 -14.453125 C 7.621094 -13.933594 8.144531 -13.410156 8.628906 -12.847656 C 9.898438 -11.542969 11.09375 -10.195312 12.25 -8.816406 C 12.625 -8.367188 13 -7.917969 13.335938 -7.46875 C 13.410156 -7.246094 13.519531 -7.058594 13.597656 -6.871094 C 13.746094 -6.574219 14.082031 -5.863281 13.894531 -5.453125 C 13.894531 -5.339844 13.894531 -5.230469 13.78125 -5.117188 C 13.484375 -4.667969 12.738281 -4.59375 12.25 -4.558594 C 11.429688 -4.480469 10.644531 -4.480469 9.859375 -4.558594 C 9.414062 -4.59375 8.964844 -4.667969 8.515625 -4.816406 C 8.066406 -5.15625 7.65625 -5.566406 7.285156 -5.9375 C 6.609375 -6.648438 6.164062 -7.582031 5.828125 -8.480469 C 4.96875 -10.945312 4.855469 -13.597656 4.070312 -16.0625 C 3.773438 -16.957031 3.027344 -17.292969 2.128906 -17.183594 C 1.382812 -17.070312 0.820312 -16.359375 0.671875 -15.6875 C 0.449219 -14.605469 0.671875 -13.445312 0.820312 -12.402344 C 0.972656 -11.207031 1.121094 -10.011719 1.417969 -8.851562 C 1.980469 -6.796875 2.390625 -4.707031 2.613281 -2.613281 C 2.6875 -2.242188 2.800781 -1.90625 3.027344 -1.644531 C 3.136719 -0.972656 3.511719 -0.335938 3.921875 0.0742188 C 4.296875 0.449219 4.894531 0.449219 5.265625 0.0742188 C 5.753906 -0.335938 6.011719 -0.933594 6.164062 -1.570312 C 6.871094 -1.121094 7.65625 -0.785156 8.480469 -0.597656 C 9.675781 -0.261719 11.09375 -0.113281 12.363281 -0.296875 L 12.476562 -0.296875 C 14.828125 -0.410156 17.367188 -2.167969 17.441406 -4.59375 C 17.59375 -5.566406 17.367188 -6.574219 16.957031 -7.507812 C 16.734375 -8.515625 16.210938 -9.449219 15.539062 -10.308594 C 14.566406 -11.542969 13.445312 -12.699219 12.363281 -13.855469 C 11.242188 -15.089844 10.046875 -16.285156 8.851562 -17.441406 L 7.320312 -18.898438 C 8.292969 -18.675781 9.300781 -18.339844 10.234375 -17.929688 C 12.027344 -17.105469 13.671875 -15.949219 14.753906 -14.34375 C 14.792969 -14.34375 14.792969 -14.304688 14.828125 -14.304688 C 15.050781 -12.550781 15.6875 -10.085938 17.519531 -10.53125 C 18.039062 -10.683594 18.339844 -11.242188 18.191406 -11.726562 C 18.078125 -12.363281 17.929688 -12.921875 17.890625 -13.558594 Z M 17.890625 -13.558594 "/></g></g></g><g fill="#ffffff" fill-opacity="1"><g transform="translate(239.245199, 114.484645)"><g><path d="M 21.328125 -22 C 22.222656 -22.375 22.261719 -23.792969 21.402344 -24.277344 C 21.328125 -24.351562 21.253906 -24.390625 21.179688 -24.429688 C 21.253906 -24.464844 21.363281 -24.464844 21.441406 -24.464844 C 21.8125 -24.539062 21.699219 -25.175781 21.363281 -25.136719 C 20.804688 -25.0625 20.246094 -25.027344 19.683594 -24.949219 C 19.460938 -24.988281 19.234375 -24.949219 19.050781 -24.949219 C 18.675781 -24.914062 18.300781 -24.875 17.890625 -24.800781 C 12.699219 -24.351562 7.46875 -24.242188 2.242188 -24.539062 C 2.128906 -24.578125 2.089844 -24.351562 2.203125 -24.351562 C 4.222656 -24.015625 6.238281 -23.792969 8.253906 -23.679688 C 8.253906 -23.644531 8.21875 -23.605469 8.21875 -23.570312 C 6.164062 -23.570312 4.144531 -23.71875 2.089844 -23.90625 C 1.269531 -23.980469 0.523438 -23.269531 0.296875 -22.523438 C 0.0742188 -21.625 0.523438 -20.730469 1.269531 -20.320312 C 1.492188 -19.722656 1.980469 -19.199219 2.464844 -18.863281 C 3.136719 -18.453125 3.960938 -18.339844 4.742188 -18.226562 C 5.714844 -18.152344 6.722656 -18.117188 7.730469 -18.117188 C 8.21875 -18.117188 8.703125 -18.117188 9.1875 -18.117188 L 9.1875 -16.921875 L 9.113281 -15.277344 C 9.039062 -13.335938 8.925781 -11.390625 8.816406 -9.488281 C 8.738281 -7.582031 8.703125 -5.640625 8.816406 -3.734375 C 8.890625 -2.277344 9.226562 -0.558594 10.792969 -0.0742188 C 11.578125 0.148438 12.511719 -0.296875 12.773438 -1.121094 C 13.035156 -1.867188 13.074219 -2.914062 13.222656 -3.585938 L 13.222656 -2.167969 C 13.183594 -1.644531 13.183594 -1.121094 13.148438 -0.597656 L 13.148438 -0.523438 C 13.820312 -1.046875 13.96875 -1.941406 14.042969 -2.839844 C 14.007812 -4.144531 13.933594 -5.453125 13.894531 -6.761719 C 13.894531 -9.039062 13.855469 -11.316406 13.855469 -13.597656 C 13.855469 -15.238281 13.894531 -16.882812 13.894531 -18.527344 C 15.800781 -18.789062 17.667969 -19.125 19.570312 -19.496094 C 19.683594 -19.496094 19.757812 -19.570312 19.832031 -19.648438 C 20.019531 -19.683594 20.246094 -19.757812 20.394531 -19.871094 C 20.992188 -20.28125 21.140625 -20.953125 21.179688 -21.625 C 21.253906 -21.738281 21.289062 -21.851562 21.328125 -22 Z M 4.742188 -19.125 C 3.847656 -19.160156 2.875 -19.421875 2.277344 -19.984375 C 3.734375 -19.535156 5.230469 -19.273438 6.722656 -19.125 C 6.050781 -19.085938 5.378906 -19.085938 4.742188 -19.125 Z M 4.742188 -19.125 "/></g></g></g><g fill="#ffffff" fill-opacity="1"><g transform="translate(260.90867, 114.484645)"><g><path d="M 14.117188 -16.023438 C 13.933594 -17.144531 13.707031 -18.300781 13.371094 -19.421875 C 13 -20.507812 12.476562 -21.550781 11.953125 -22.558594 C 11.765625 -22.894531 11.390625 -22.972656 11.09375 -22.859375 C 10.832031 -23.34375 10.457031 -23.980469 9.972656 -24.277344 C 9.523438 -24.539062 8.890625 -24.539062 8.367188 -24.429688 C 7.882812 -24.464844 7.394531 -24.316406 6.910156 -24.128906 C 5.714844 -23.867188 4.816406 -22.710938 4.183594 -21.328125 C 4.109375 -21.328125 3.996094 -21.363281 3.882812 -21.328125 C 4.035156 -21.738281 4.183594 -22.148438 4.371094 -22.558594 C 4.519531 -22.933594 4.742188 -23.308594 4.96875 -23.679688 C 5.003906 -23.753906 4.929688 -23.792969 4.894531 -23.71875 C 4.257812 -22.894531 3.773438 -22 3.398438 -21.027344 C 3.363281 -20.992188 3.363281 -20.953125 3.324219 -20.953125 C 0.820312 -16.769531 0.148438 -11.839844 0.894531 -7.058594 C 1.269531 -4.855469 2.015625 -2.613281 3.773438 -1.121094 C 4.78125 -0.296875 6.164062 0.148438 7.394531 -0.0742188 C 7.804688 -0.0390625 8.21875 -0.0390625 8.628906 -0.0742188 C 9.675781 -0.222656 10.53125 -0.710938 11.242188 -1.417969 C 11.765625 -1.867188 12.214844 -2.390625 12.625 -2.949219 C 13.855469 -4.707031 14.195312 -6.984375 14.378906 -9.039062 C 14.640625 -11.390625 14.492188 -13.707031 14.117188 -16.023438 Z M 9.449219 -5.15625 C 9.335938 -4.707031 9.152344 -4.296875 8.925781 -3.882812 C 8.703125 -3.472656 8.367188 -3.136719 7.917969 -2.988281 C 6.3125 -2.503906 5.003906 -4.035156 4.40625 -5.265625 C 4.78125 -5.042969 5.265625 -4.929688 5.714844 -5.042969 C 5.863281 -5.078125 6.011719 -5.15625 6.125 -5.230469 C 5.566406 -7.65625 5.265625 -10.195312 5.378906 -12.738281 C 5.453125 -13.597656 5.527344 -14.453125 5.675781 -15.3125 C 5.714844 -15.351562 5.714844 -15.390625 5.753906 -15.464844 C 6.050781 -16.996094 6.535156 -18.527344 7.246094 -19.910156 C 7.394531 -20.167969 7.546875 -20.46875 7.769531 -20.617188 C 5.640625 -16.136719 5.566406 -10.644531 6.609375 -5.789062 C 6.796875 -6.125 6.835938 -6.5 6.761719 -6.910156 C 6.3125 -9.675781 6.273438 -12.550781 6.609375 -15.3125 C 6.796875 -16.734375 7.132812 -18.117188 7.546875 -19.460938 C 7.65625 -19.832031 7.804688 -20.320312 8.03125 -20.730469 L 8.21875 -20.730469 C 8.253906 -20.730469 8.328125 -20.691406 8.367188 -20.65625 C 8.515625 -20.394531 8.628906 -20.09375 8.738281 -19.832031 C 9 -19.199219 9.226562 -18.527344 9.449219 -17.855469 C 9.5625 -17.332031 9.636719 -16.769531 9.75 -16.210938 C 10.046875 -14.378906 10.160156 -12.476562 10.308594 -10.609375 C 10.308594 -8.777344 10.085938 -6.910156 9.449219 -5.15625 Z M 9.449219 -5.15625 "/></g></g></g><g fill="#ffffff" fill-opacity="1"><g transform="translate(276.596022, 114.484645)"><g><path d="M 22.484375 -3.808594 C 22.375 -4.894531 22.113281 -5.976562 21.886719 -7.058594 C 21.625 -8.292969 21.402344 -9.488281 21.179688 -10.71875 C 21.066406 -11.242188 20.953125 -11.804688 20.804688 -12.363281 C 20.730469 -13 20.617188 -13.671875 20.507812 -14.304688 C 20.207031 -15.988281 19.910156 -17.667969 19.496094 -19.347656 C 19.125 -20.878906 18.488281 -22.375 17.332031 -23.53125 C 16.882812 -24.015625 16.0625 -24.015625 15.539062 -23.605469 C 15.089844 -23.867188 14.53125 -23.941406 13.894531 -23.753906 C 13.484375 -23.679688 13.074219 -23.308594 13 -22.933594 C 12.550781 -19.683594 11.726562 -16.472656 11.019531 -13.257812 C 10.53125 -11.167969 10.085938 -9.078125 9.597656 -6.984375 C 8.738281 -10.757812 7.917969 -15.128906 7.285156 -18.972656 C 7.132812 -19.910156 6.949219 -20.84375 6.871094 -21.738281 C 6.835938 -22.113281 6.6875 -22.484375 6.460938 -22.746094 C 6.199219 -23.417969 5.640625 -23.90625 4.929688 -24.054688 C 4.332031 -24.242188 3.660156 -24.167969 3.0625 -23.792969 C 2.613281 -23.53125 2.429688 -23.15625 2.429688 -22.785156 C 2.089844 -22.074219 2.128906 -21.253906 2.167969 -20.507812 C 2.167969 -19.609375 2.203125 -18.75 2.203125 -17.855469 L 2.203125 -16.996094 C 2.128906 -16.996094 2.089844 -17.816406 2.015625 -17.816406 C 1.980469 -19.421875 1.941406 -21.140625 1.71875 -22.636719 C 1.679688 -22.820312 1.308594 -22.820312 1.269531 -22.636719 C 0.859375 -20.507812 1.007812 -18.265625 1.046875 -16.136719 C 1.046875 -13.933594 1.082031 -11.691406 1.15625 -9.488281 C 1.195312 -7.320312 1.34375 -5.230469 1.644531 -3.0625 C 1.753906 -2.167969 1.832031 -1.046875 2.503906 -0.375 C 2.839844 -0.0390625 3.363281 0.0390625 3.808594 -0.113281 C 3.847656 -0.0390625 3.882812 0 3.921875 0.0390625 C 4.070312 0.222656 4.332031 0.222656 4.558594 0.113281 C 5.753906 -0.410156 5.640625 -1.792969 5.601562 -2.875 C 5.527344 -6.011719 5.414062 -9.300781 5.265625 -12.4375 C 5.339844 -12.101562 5.453125 -11.804688 5.566406 -11.503906 C 5.863281 -10.273438 6.199219 -9 6.535156 -7.769531 L 8.144531 -2.054688 C 8.292969 -1.457031 8.441406 -0.894531 8.777344 -0.375 C 8.851562 -0.222656 9 -0.1875 9.113281 -0.261719 C 9.261719 -0.148438 9.449219 -0.113281 9.636719 -0.113281 C 9.75 -0.0390625 9.933594 -0.0390625 10.121094 -0.0742188 C 10.71875 -0.222656 10.945312 -0.636719 11.128906 -1.15625 C 11.242188 -1.53125 11.316406 -1.867188 11.390625 -2.242188 C 11.390625 -2.167969 11.503906 -2.128906 11.542969 -2.277344 C 11.839844 -3.847656 12.363281 -6.164062 12.847656 -8.21875 C 13.371094 -10.308594 14.304688 -13.558594 15.203125 -16.171875 C 15.539062 -14.605469 15.875 -13.035156 16.246094 -11.46875 C 17.070312 -8.21875 17.480469 -5.230469 17.554688 -1.941406 C 17.554688 -1.046875 18.226562 -0.296875 19.085938 -0.113281 C 20.019531 0.820312 21.402344 0.222656 21.960938 -0.746094 C 22.484375 -1.679688 22.558594 -2.765625 22.484375 -3.808594 Z M 6.984375 -13.96875 C 6.984375 -14.042969 6.949219 -14.117188 6.910156 -14.15625 C 6.425781 -16.472656 5.902344 -18.714844 5.339844 -20.992188 C 5.378906 -21.066406 5.378906 -21.105469 5.378906 -21.140625 C 5.566406 -21.179688 5.753906 -21.253906 5.902344 -21.363281 C 6.050781 -20.765625 6.125 -20.207031 6.199219 -19.648438 C 6.535156 -17.742188 7.023438 -15.015625 7.394531 -13.109375 C 7.171875 -13.335938 7.132812 -13.597656 6.984375 -13.96875 Z M 12.664062 -8.292969 L 12.625 -8.292969 C 12.585938 -8.292969 12.550781 -8.292969 12.511719 -8.328125 C 12.625 -8.890625 12.738281 -9.449219 12.8125 -10.011719 C 13.410156 -12.550781 14.082031 -15.050781 14.902344 -17.519531 C 14.976562 -17.257812 15.015625 -16.996094 15.089844 -16.769531 C 14.15625 -13.96875 13.335938 -11.128906 12.664062 -8.292969 Z M 12.664062 -8.292969 "/></g></g></g><g fill="#ffffff" fill-opacity="1"><g transform="translate(298.633009, 114.484645)"><g><path d="M 0.859375 -19.722656 C 0.785156 -19.648438 0.785156 -19.535156 0.859375 -19.496094 C 1.679688 -19.871094 2.503906 -20.207031 3.363281 -20.46875 C 5.828125 -21.328125 8.367188 -21.886719 10.90625 -22.449219 C 12.363281 -22.785156 13.855469 -23.15625 15.3125 -23.53125 C 14.976562 -23.53125 14.640625 -23.53125 14.304688 -23.492188 C 12.699219 -23.382812 11.167969 -23.082031 9.636719 -22.785156 L 8.777344 -22.558594 C 6.089844 -21.851562 3.324219 -21.027344 0.859375 -19.722656 Z M 21.8125 -4.519531 C 22.261719 -4.855469 22.558594 -5.378906 22.523438 -6.050781 C 22.375 -8.179688 21.664062 -11.46875 18.789062 -10.871094 C 18.375 -10.757812 18.003906 -10.570312 17.59375 -10.457031 L 16.136719 -10.011719 C 15.238281 -9.710938 14.34375 -9.375 13.445312 -9.039062 C 12.886719 -8.851562 12.324219 -8.628906 11.765625 -8.402344 L 8.589844 -7.171875 C 7.769531 -6.835938 6.949219 -6.5 6.125 -6.125 L 6.011719 -6.050781 C 6.011719 -6.125 6.011719 -6.164062 6.011719 -6.199219 L 5.789062 -8.628906 C 6.835938 -9.152344 7.84375 -9.675781 8.925781 -10.121094 C 10.683594 -10.871094 12.4375 -11.429688 14.230469 -11.914062 C 15.128906 -12.140625 16.0625 -12.324219 16.957031 -12.476562 C 17.816406 -12.664062 18.636719 -12.625 19.421875 -13 C 20.09375 -13.335938 20.542969 -14.15625 20.394531 -14.867188 C 20.320312 -15.238281 20.09375 -15.613281 19.757812 -15.800781 C 19.722656 -15.800781 19.722656 -15.800781 19.683594 -15.835938 C 19.648438 -15.988281 19.570312 -16.136719 19.496094 -16.285156 C 19.460938 -16.359375 19.421875 -16.472656 19.347656 -16.585938 C 18.824219 -17.480469 17.929688 -17.519531 16.996094 -17.480469 C 16.546875 -17.441406 16.136719 -17.40625 15.6875 -17.332031 L 15.203125 -17.21875 C 14.007812 -16.882812 12.773438 -16.546875 11.578125 -16.246094 C 9.449219 -15.464844 7.394531 -14.566406 5.304688 -13.671875 C 5.304688 -13.855469 5.078125 -15.203125 5.042969 -15.574219 L 5.117188 -15.648438 C 6.273438 -16.136719 7.46875 -16.585938 8.664062 -16.996094 C 9.078125 -17.183594 12.773438 -18.300781 14.679688 -18.824219 C 14.753906 -18.824219 14.828125 -18.863281 14.902344 -18.898438 C 15.761719 -19.125 16.621094 -19.386719 17.441406 -19.648438 L 19.3125 -20.207031 C 19.460938 -20.953125 19.347656 -21.738281 19.085938 -22.523438 C 18.898438 -22.671875 18.675781 -22.859375 18.488281 -23.007812 L 17.890625 -23.234375 C 17.667969 -23.308594 17.40625 -23.34375 17.144531 -23.382812 C 15.203125 -22.859375 13.257812 -22.335938 11.28125 -21.886719 C 8.738281 -21.363281 6.199219 -20.804688 3.734375 -19.945312 C 2.949219 -19.683594 2.128906 -19.386719 1.34375 -19.050781 C 1.308594 -18.9375 1.234375 -18.824219 1.195312 -18.75 C 0.671875 -18.300781 0.335938 -17.742188 0.261719 -16.996094 C 0.1875 -16.359375 0.410156 -15.648438 0.859375 -15.164062 L 1.308594 -10.90625 L 1.753906 -6.425781 C 1.867188 -5.117188 1.941406 -3.773438 2.167969 -2.503906 C 1.832031 -1.53125 2.464844 -0.410156 3.398438 -0.0390625 C 3.363281 0.148438 3.363281 0.296875 3.4375 0.484375 C 3.734375 1.121094 4.40625 1.15625 5.003906 1.046875 C 5.15625 1.046875 5.378906 1.007812 5.378906 1.007812 C 5.339844 1.046875 7.46875 0.410156 7.917969 0.113281 L 7.957031 0.0742188 C 8.367188 -0.113281 8.777344 -0.261719 9.1875 -0.449219 C 9.261719 -0.484375 9.375 -0.523438 9.449219 -0.558594 L 9.488281 -0.558594 C 10.71875 -1.082031 11.988281 -1.53125 13.257812 -1.980469 C 15.910156 -2.914062 18.675781 -3.625 21.441406 -4.144531 C 21.664062 -4.183594 21.777344 -4.332031 21.8125 -4.519531 Z M 12.773438 -12.4375 L 12.8125 -12.324219 C 12.585938 -12.25 12.402344 -12.175781 12.175781 -12.066406 C 10.308594 -11.316406 8.367188 -10.609375 6.535156 -9.675781 C 6.835938 -9.933594 7.058594 -10.308594 7.132812 -10.71875 C 7.84375 -10.90625 8.554688 -11.128906 9.300781 -11.355469 C 10.457031 -11.726562 11.617188 -12.066406 12.773438 -12.4375 Z M 4.519531 0.484375 C 5.265625 0.296875 5.976562 0 6.6875 -0.261719 C 7.394531 -0.484375 8.066406 -0.746094 8.738281 -1.007812 L 8.738281 -0.933594 C 8.179688 -0.636719 7.621094 -0.335938 7.023438 -0.0390625 C 6.761719 0.113281 6.460938 0.261719 6.164062 0.410156 C 6.125 0.449219 6.089844 0.449219 6.050781 0.449219 C 5.9375 0.484375 5.078125 0.558594 4.519531 0.484375 Z M 4.519531 0.484375 "/></g></g></g><g fill="#ffffff" fill-opacity="1"><g transform="translate(321.043506, 114.484645)"><g><path d="M 21.289062 -14.230469 C 21.402344 -15.050781 21.179688 -15.726562 20.582031 -16.171875 C 20.09375 -16.546875 19.570312 -16.957031 19.050781 -17.332031 C 18.972656 -17.628906 18.824219 -17.929688 18.527344 -18.152344 C 14.867188 -20.617188 11.167969 -23.15625 7.058594 -24.464844 C 7.023438 -24.464844 6.984375 -24.503906 6.949219 -24.503906 C 6.6875 -24.613281 6.425781 -24.6875 6.164062 -24.800781 C 6.089844 -24.875 5.976562 -24.949219 5.828125 -24.949219 C 4.59375 -25.175781 2.351562 -25.660156 1.644531 -24.277344 C 1.234375 -23.417969 1.644531 -22.375 2.351562 -21.777344 C 2.128906 -21.441406 1.867188 -21.179688 1.570312 -20.953125 C 1.867188 -19.683594 2.128906 -18.375 2.390625 -17.105469 C 2.167969 -17.105469 1.941406 -17.105469 1.71875 -17.070312 C 0.597656 -17.070312 0.148438 -15.203125 1.195312 -14.53125 C 1.53125 -14.304688 1.941406 -14.082031 2.316406 -13.933594 L 1.457031 -13.820312 C 1.867188 -13.671875 2.277344 -13.519531 2.6875 -13.410156 C 2.839844 -13.371094 2.914062 -13.257812 2.914062 -13.148438 C 2.988281 -13.148438 3.0625 -13.148438 3.136719 -13.148438 L 3.363281 -11.839844 C 3.660156 -10.085938 3.960938 -8.328125 4.257812 -6.574219 L 4.59375 -4.109375 C 4.667969 -3.285156 4.59375 -2.390625 4.78125 -1.605469 C 4.78125 -1.195312 5.15625 -0.933594 5.453125 -1.007812 C 5.492188 -0.785156 5.566406 -0.597656 5.675781 -0.410156 C 6.125 0.113281 6.871094 0.0742188 7.359375 -0.335938 C 7.730469 -0.636719 7.992188 -1.007812 8.21875 -1.457031 C 8.21875 -1.644531 8.21875 -1.867188 8.179688 -2.089844 C 8.292969 -3.921875 8.105469 -5.828125 7.992188 -7.65625 C 7.917969 -9.375 7.769531 -11.09375 7.582031 -12.773438 C 8.554688 -12.738281 9.5625 -12.664062 10.53125 -12.625 C 10.71875 -12.289062 10.945312 -11.914062 11.167969 -11.578125 L 11.167969 -11.542969 C 11.390625 -11.167969 11.578125 -10.792969 11.765625 -10.382812 C 12.476562 -9 13.484375 -6.535156 13.894531 -5.566406 C 14.640625 -3.847656 15.390625 -2.089844 16.0625 -0.335938 C 16.210938 -0.261719 16.433594 -0.335938 16.546875 -0.449219 C 16.546875 -0.410156 16.585938 -0.410156 16.621094 -0.410156 C 16.957031 -0.261719 17.292969 -0.261719 17.628906 -0.296875 C 18.265625 -0.0390625 19.125 -0.222656 19.234375 -1.046875 C 19.535156 -3.472656 18.226562 -5.828125 17.21875 -7.957031 C 16.433594 -9.5625 15.539062 -11.09375 14.53125 -12.585938 C 16.285156 -12.4375 18.039062 -12.289062 19.796875 -12.175781 C 20.394531 -12.101562 21.105469 -12.738281 21.179688 -13.445312 Z M 6.125 -19.945312 L 6.011719 -20.542969 C 9.226562 -19.796875 12.214844 -18.191406 15.089844 -16.210938 L 11.46875 -16.660156 C 10.609375 -17.367188 9.375 -18.375 8.253906 -17.667969 C 8.066406 -17.519531 7.957031 -17.292969 7.917969 -17.105469 C 7.730469 -17.144531 7.507812 -17.144531 7.320312 -17.183594 C 7.171875 -17.964844 6.984375 -18.75 6.796875 -19.535156 C 6.761719 -19.871094 6.386719 -19.871094 6.199219 -19.683594 C 6.164062 -19.757812 6.164062 -19.871094 6.125 -19.945312 Z M 8.777344 -3.136719 C 8.925781 -4.035156 9.226562 -4.40625 9.113281 -5.753906 C 8.925781 -7.992188 8.738281 -10.234375 8.367188 -12.402344 L 8.066406 -12.402344 C 8.515625 -9.335938 8.628906 -6.238281 8.777344 -3.136719 Z M 8.777344 -3.136719 "/></g></g></g><g clip-path="url(#00632c3193)"><path fill="#ffffff" d="M 344.933594 154.082031 C 344.65625 154.355469 344.125 154.273438 344.03125 153.898438 C 343.960938 153.160156 345.136719 153.394531 344.933594 154.082031 Z M 191.988281 313.378906 C 191.90625 313.132812 191.710938 312.988281 191.621094 312.742188 C 191.179688 312.785156 191.253906 313.335938 190.628906 313.195312 C 190.453125 312.785156 190.269531 312.40625 190.175781 311.925781 C 190.308594 311.699219 190.496094 311.515625 190.71875 311.382812 C 190.769531 311.027344 190.472656 311.015625 190.535156 310.65625 C 189.574219 310.863281 189.769531 312.089844 188.632812 312.292969 C 188.714844 311.527344 188.980469 310.945312 189.714844 310.839844 C 189.550781 310.503906 189.285156 310.09375 189.714844 309.839844 C 189.675781 309.632812 189.226562 309.847656 189.265625 309.574219 C 189.195312 308.949219 189.664062 308.886719 189.902344 308.570312 C 189.839844 308.234375 189.796875 307.886719 189.714844 307.566406 C 189.421875 307.507812 188.941406 308.355469 188.355469 308.027344 C 188.242188 307.324219 188.601562 306.339844 189.449219 306.300781 C 189.285156 304.980469 189.011719 303.785156 188.898438 302.402344 C 188.722656 302.25 188.050781 302.738281 187.8125 302.308594 C 187.8125 301.585938 188.367188 301.410156 188.722656 301.042969 C 188.644531 300.480469 188.550781 299.949219 188.539062 299.324219 C 187.957031 299.375 188.273438 299.875 188.355469 300.222656 C 188.039062 300.449219 187.863281 300.816406 187.445312 300.949219 C 187.261719 300.519531 187.394531 299.875 187.445312 299.40625 C 187.128906 298.832031 186.382812 298.667969 186.453125 297.6875 C 186.882812 297.585938 186.769531 298.035156 186.996094 298.136719 C 187.191406 297.523438 187.25 296.511719 186.996094 296.140625 C 186.359375 296.480469 186.269531 297.347656 185.367188 297.410156 C 185.042969 296.796875 184.878906 296.019531 184.367188 295.601562 C 184.347656 295.304688 184.695312 295.386719 184.816406 295.242188 C 184.859375 294.820312 184.722656 294.238281 184.910156 293.960938 C 185.410156 293.738281 185.796875 294.167969 186.09375 294.421875 C 186.175781 294.996094 185.542969 294.84375 185.367188 295.148438 C 185.257812 295.710938 185.5 295.917969 185.636719 296.234375 C 186.71875 296.027344 185.859375 293.902344 186.8125 293.789062 C 187.332031 293.726562 187.40625 294.105469 187.628906 294.515625 C 187.886719 294.042969 187.515625 293.421875 187.445312 292.96875 C 186.902344 293.328125 186.207031 293.410156 185.542969 293.328125 C 185.523438 292.183594 186.566406 292.183594 186.546875 291.242188 C 185.726562 290.761719 184.078125 288.703125 185.636719 288.070312 C 185.910156 288.253906 185.910156 288.429688 185.820312 288.796875 C 185.960938 288.613281 186.371094 288.683594 186.546875 288.519531 C 186.289062 288.488281 185.738281 288.5 185.910156 287.792969 C 185.257812 287.671875 185.113281 288.347656 184.644531 287.886719 C 185.410156 287.140625 184.480469 285.207031 185.367188 284.53125 C 185.042969 284.285156 184.804688 283.9375 184.273438 283.898438 C 184.40625 283.117188 184.109375 283.304688 183.824219 282.984375 C 184.007812 282.730469 184.171875 282.699219 184.007812 282.269531 C 183.9375 282.085938 183.671875 282.75 183.457031 282.441406 C 183.527344 281.933594 183.742188 281.175781 183.007812 281.082031 C 182.933594 280.714844 183.3125 280.507812 183.546875 280.726562 C 183.34375 280.386719 182.8125 280.101562 183.097656 279.546875 C 182.679688 279.597656 182.515625 279.40625 182.1875 279.363281 C 182.199219 279.058594 181.808594 278.65625 182.003906 278.453125 C 182.402344 278.125 182.125 279.078125 182.554688 278.996094 C 183.117188 278.625 183.648438 278.21875 183.730469 277.367188 C 183.578125 277.367188 183.425781 277.367188 183.28125 277.367188 C 182.894531 277.582031 183.621094 277.746094 183.191406 278.09375 C 182.707031 278.1875 182.707031 278.085938 182.371094 277.910156 C 183.261719 277.0625 182.636719 276.140625 182.371094 275.097656 C 182.320312 274.996094 181.929688 275.167969 181.738281 275.003906 C 181.511719 274.464844 181.71875 273.769531 182.1875 273.644531 C 182.300781 272.203125 181.101562 272.070312 181.101562 270.738281 C 181.164062 270.320312 181.585938 270.257812 181.828125 270.023438 C 181.636719 269.929688 180.960938 270.125 180.734375 269.839844 C 180.632812 269.183594 181 269.011719 181.371094 268.835938 C 181.011719 268.480469 180.171875 268.589844 179.835938 268.203125 C 179.578125 267.824219 179.546875 266.839844 179.925781 266.574219 C 180.378906 266.484375 180.40625 267.179688 180.828125 266.839844 C 179.875 265.226562 178.996094 262.75 178.648438 260.222656 C 177.972656 260.214844 177.214844 259.703125 177.746094 259.046875 C 178.226562 258.894531 178.035156 259.425781 178.472656 259.3125 C 179.273438 258.648438 178.167969 257.277344 178.105469 256.324219 C 177.921875 256.304688 177.625 256.449219 177.472656 256.050781 C 177.296875 255.546875 177.820312 255.730469 177.839844 255.414062 C 177.820312 255.003906 177.175781 255.21875 177.113281 254.871094 C 176.867188 254.585938 177.359375 254.453125 177.472656 254.238281 C 177.371094 253.953125 176.910156 254.011719 176.835938 253.6875 C 176.816406 253.226562 177.144531 253.675781 177.207031 253.328125 C 177.023438 252.785156 176.859375 252.214844 176.5625 251.785156 C 176.121094 248.324219 174.761719 245.398438 174.023438 242.074219 C 173.902344 241.820312 173.503906 241.820312 173.390625 241.53125 C 173.082031 238.503906 172.019531 236.101562 171.039062 233.644531 C 169.390625 229.535156 167.527344 225.226562 165.769531 220.859375 C 165.390625 219.898438 165.09375 218.722656 164.683594 218.402344 C 164.253906 218.078125 163.488281 217.941406 162.957031 217.675781 C 159.773438 216.0625 156.972656 213.945312 156.246094 209.699219 C 156.234375 209.339844 155.804688 209.410156 155.796875 209.0625 C 156.011719 208.707031 156.285156 208.410156 156.246094 207.796875 C 156.328125 207.40625 155.652344 207.785156 155.703125 207.425781 C 156.308594 207.089844 156.53125 206.382812 156.789062 205.710938 C 156.707031 205.515625 156.378906 205.585938 156.164062 205.472656 C 155.980469 206.109375 154.84375 205.71875 154.996094 205.054688 C 155.078125 204.992188 155.128906 204.890625 155.179688 204.789062 C 155.519531 204.839844 155.804688 204.941406 155.988281 205.136719 C 156.164062 204.421875 157.402344 204.757812 157.605469 204.074219 C 157.574219 203.777344 157.351562 203.671875 157.433594 203.253906 C 157.09375 203.328125 157.21875 203.835938 156.789062 203.808594 C 156.152344 203.683594 155.96875 203.121094 155.34375 202.988281 C 155.632812 201.769531 156.898438 203.714844 157.246094 202.527344 C 157.65625 202.578125 157.757812 202.925781 158.148438 202.988281 C 158.628906 203.007812 158.628906 202.558594 158.964844 202.445312 C 158.476562 202.230469 158.21875 201.433594 158.699219 200.992188 C 159.804688 201.085938 160.03125 200.195312 160.871094 199.808594 C 160.910156 199.4375 160.574219 199.449219 160.695312 199 C 161.074219 198.894531 161.042969 199.183594 161.328125 199.171875 C 161.554688 199.613281 160.941406 200.226562 161.511719 200.53125 C 161.726562 200.347656 161.890625 199.917969 162.085938 199.511719 C 162.023438 199.519531 161.964844 199.53125 161.890625 199.519531 C 161.851562 199.449219 161.808594 199.367188 161.707031 199.347656 C 161.617188 198.886719 162.117188 198.691406 162.453125 198.855469 C 162.617188 198.640625 162.8125 198.519531 163.046875 198.539062 C 163.425781 198.578125 163.550781 198.683594 163.589844 199.171875 C 163.84375 199.027344 163.867188 198.660156 164.316406 198.722656 C 164.949219 198.671875 164.734375 199.457031 165.226562 199.539062 C 165.296875 199.480469 165.175781 199.007812 165.277344 198.765625 C 165.042969 198.84375 164.714844 198.753906 164.613281 198.527344 C 164.574219 197.976562 165.214844 197.875 165.511719 198.160156 C 165.574219 198.375 165.542969 198.527344 165.472656 198.628906 C 166.476562 198.609375 166.773438 199.285156 167.496094 199.539062 C 167.875 199.613281 167.519531 198.9375 167.804688 198.90625 C 167.765625 198.90625 167.734375 198.898438 167.691406 198.886719 C 167.660156 198.519531 167.722656 198.261719 168.0625 198.253906 C 168.285156 198.40625 168.234375 198.886719 167.847656 198.90625 L 167.855469 198.90625 C 168.449219 198.886719 168.296875 199.621094 168.765625 199.726562 C 168.695312 199.164062 168.214844 198.710938 168.316406 198.273438 C 168.972656 197.964844 169.359375 198.652344 169.851562 198.816406 C 169.644531 199.089844 169.554688 199.480469 169.402344 199.808594 C 170.105469 200.074219 170.945312 200.195312 171.488281 200.625 C 171.765625 200.605469 171.640625 200.175781 172.03125 200.265625 C 171.847656 200.839844 172.109375 200.960938 172.480469 201.167969 C 172.683594 201.105469 172.46875 200.613281 172.847656 200.71875 C 172.816406 201.09375 173.289062 201.300781 173.03125 201.628906 C 174.1875 202.609375 175.464844 203.46875 176.296875 204.890625 C 176.621094 205.441406 176.734375 206.242188 177.113281 206.621094 C 177.421875 206.917969 178.363281 207.109375 179.109375 207.425781 C 183.566406 209.339844 188.160156 211.488281 192.253906 213.78125 C 196.96875 216.417969 201.492188 219.652344 205.859375 222.394531 C 208.109375 223.804688 210.410156 225.246094 212.488281 226.9375 C 214.542969 228.605469 216.539062 230.394531 218.75 231.746094 C 222.09375 233.789062 224.925781 236.644531 227.902344 239.273438 C 229.5625 240.738281 231.25 241.820312 232.261719 243.898438 C 233.03125 243.039062 231.320312 242.382812 231.984375 241.625 C 232.457031 241.636719 232.332031 242.097656 232.261719 242.445312 C 232.785156 242.054688 232.496094 240.871094 232.710938 240.175781 C 231.964844 239.355469 232.742188 238.730469 232.898438 237.820312 C 232.679688 237.359375 231.964844 237.921875 231.894531 237.277344 C 232.425781 237.269531 232.507812 236.878906 232.988281 236.460938 C 232.722656 236.277344 232.171875 236.367188 231.894531 236.183594 C 231.84375 235.796875 231.964844 235.582031 231.984375 235.273438 C 232.304688 235.570312 232.394531 235.34375 232.804688 235.273438 C 232.660156 234.875 232.304688 234.691406 232.167969 234.28125 C 232.304688 233.964844 232.496094 233.710938 232.710938 233.464844 C 232.703125 233.054688 232.355469 232.972656 232.445312 232.472656 C 232.609375 232.074219 233.183594 232.316406 233.4375 232.195312 C 233.53125 231.675781 232.988281 231.910156 232.988281 231.375 C 232.976562 230.824219 233.949219 230.539062 233.53125 229.75 C 233.417969 230.445312 232.628906 230.917969 232.527344 231.652344 C 232.191406 231.59375 232.199219 231.089844 232.445312 230.925781 C 232.273438 230.578125 231.832031 230.507812 231.894531 229.925781 C 232.121094 229.792969 232.25 229.710938 232.527344 229.832031 C 232.640625 229.339844 232.527344 229.363281 232.445312 228.933594 C 232.304688 229.371094 231.472656 229.546875 231.085938 229.199219 C 230.992188 228.378906 232.046875 228.347656 232.445312 228.75 C 232.742188 228.023438 232.089844 227.785156 231.800781 227.386719 C 231.824219 226.679688 232.652344 226.785156 232.527344 225.933594 C 232.375 225.710938 231.773438 226.140625 231.535156 225.84375 C 231.585938 225.332031 232.394531 225.484375 232.621094 225.394531 C 232.691406 224.492188 232.925781 223.765625 233.253906 223.121094 C 232.773438 222.253906 232.621094 220.339844 233.347656 219.5 C 233.5625 219.253906 233.929688 219.296875 234.074219 218.949219 C 233.796875 218.804688 233.328125 218.847656 233.164062 218.589844 C 233.070312 217.773438 233.265625 216.308594 233.808594 215.59375 C 234.566406 215.511719 234.390625 216.378906 234.441406 216.78125 C 234.648438 216.59375 234.472656 216.023438 234.523438 215.683594 C 233.738281 215.367188 233.246094 213.515625 233.890625 212.871094 C 234.164062 212.871094 233.980469 213.332031 234.257812 213.332031 C 234.675781 212.832031 233.839844 212.800781 233.714844 212.328125 C 233.5 212.667969 233.714844 213.425781 233.164062 213.425781 C 232.96875 212.953125 232.898438 212.351562 232.621094 211.972656 C 233.183594 212.15625 233.09375 211.808594 233.53125 211.695312 C 233.542969 210.835938 233.449219 209.855469 233.714844 209.25 C 233.601562 208.933594 233.132812 208.984375 233.164062 208.523438 C 233.542969 208.105469 234.09375 207.878906 234.800781 207.796875 C 234.605469 206.875 234.371094 206.4375 233.808594 205.804688 C 233.949219 205.3125 233.929688 204.625 233.625 204.351562 C 233.929688 204.054688 234 203.519531 234.074219 202.988281 C 234.214844 202.855469 234.75 202.855469 234.890625 202.988281 C 235.023438 202.304688 234.492188 202.292969 234.617188 201.628906 C 234.308594 201.484375 233.785156 201.546875 233.714844 201.167969 C 233.835938 200.246094 234.339844 199.683594 234.617188 198.90625 C 234.453125 198.652344 233.972656 198.703125 233.890625 198.367188 C 234.265625 197.753906 234.207031 197.261719 234.164062 196.277344 C 234.472656 195.828125 234.769531 195.367188 234.984375 194.828125 C 234.800781 194.640625 234.410156 194.664062 234.347656 194.367188 C 234.441406 193.578125 235.125 192.679688 234.707031 192.195312 C 234.644531 191.707031 235.199219 191.839844 235.074219 191.285156 C 235.054688 190.917969 234.480469 191.09375 234.523438 190.652344 C 234.984375 190.089844 235.617188 189.046875 234.800781 188.472656 C 234.984375 187.726562 235.308594 187.582031 234.984375 187.113281 C 235.003906 186.589844 235.535156 186.582031 235.617188 186.121094 C 235.394531 185.976562 235.054688 185.957031 234.984375 185.660156 C 235.015625 185.242188 235.339844 185.117188 235.710938 185.027344 C 235.289062 184.25 236.109375 183.410156 235.710938 182.398438 C 235.628906 182.109375 235.84375 182.109375 235.976562 182.039062 C 235.957031 181.660156 235.445312 181.78125 235.617188 181.21875 C 235.800781 181.035156 235.792969 180.71875 236.160156 180.945312 C 236.199219 180.523438 236.28125 180.339844 236.160156 179.953125 C 237.058594 175.480469 238.746094 171.316406 243.6875 170.695312 C 246.144531 170.386719 247.761719 171.71875 249.488281 172.875 C 250.984375 173.867188 252.171875 174.539062 253.304688 175.59375 C 254.460938 176.660156 255.453125 177.855469 256.566406 178.859375 C 259.933594 181.886719 262.941406 185.445312 265.640625 189.199219 C 267.484375 191.757812 269.449219 194.183594 271.175781 196.636719 C 273.015625 199.277344 274.460938 202.039062 276.433594 204.441406 C 282.214844 211.480469 287.964844 218.976562 293.394531 226.394531 C 295.828125 221.207031 298.285156 216.175781 300.832031 211.246094 C 302.058594 208.863281 303.6875 206.621094 305.097656 204.257812 C 306.5 201.90625 307.972656 199.550781 309.539062 197.457031 C 311.144531 195.316406 312.925781 193.25 314.53125 191.101562 C 316.15625 188.945312 317.761719 186.835938 319.523438 184.84375 C 323.042969 180.84375 325.957031 176.332031 330.039062 172.875 C 329.996094 172.546875 329.894531 172.351562 330.039062 172.054688 C 331.480469 171.953125 331.511719 170.4375 332.667969 170.058594 C 332.625 169.210938 333.667969 169.128906 333.578125 168.15625 C 334.039062 168.066406 334.203125 167.6875 334.488281 167.429688 C 334.957031 167.371094 335.328125 167.6875 335.574219 167.339844 C 335.359375 167.113281 335.132812 166.519531 335.480469 166.253906 C 336.023438 166.113281 335.953125 166.574219 336.390625 166.519531 C 337.1875 166.183594 337.027344 165.925781 336.757812 165.160156 C 337.066406 164.75 337.628906 164.945312 338.121094 165.070312 C 338.449219 164.527344 337.914062 164.148438 337.660156 163.890625 C 338.027344 163.644531 338.285156 163.296875 338.691406 163.105469 C 338.703125 163.074219 338.722656 163.054688 338.734375 163.042969 C 338.488281 162.164062 339.089844 161.601562 339.019531 160.90625 C 339.46875 160.957031 339.53125 160.628906 340.113281 160.628906 C 340.074219 160.457031 339.992188 160.320312 339.960938 160.1875 C 339.953125 160.210938 339.953125 160.230469 339.941406 160.25 C 338.96875 160.300781 339.683594 159.207031 340.0625 159.78125 C 340.339844 159.605469 340.605469 159.65625 340.941406 159.699219 C 340.941406 159.679688 340.941406 159.648438 340.941406 159.617188 C 341.023438 159.546875 341.136719 159.515625 341.238281 159.523438 C 341.261719 159.414062 341.28125 159.269531 341.382812 159.175781 C 341.667969 159.199219 341.761719 159.011719 342.109375 159.085938 C 342.476562 158.277344 343.417969 158.042969 343.921875 157.367188 C 344.972656 157.683594 345.8125 157.355469 347 157.367188 C 347.355469 157.417969 347.234375 156.988281 347.460938 156.90625 C 347.941406 156.855469 347.890625 157.324219 348.1875 157.457031 C 348.328125 157.476562 348.460938 157.519531 348.605469 157.550781 C 348.769531 157.324219 349.179688 157.292969 349.476562 157.4375 C 349.496094 157.589844 349.558594 157.691406 349.566406 157.855469 C 352.410156 158.921875 354.335938 161.335938 354.261719 164.710938 C 354.160156 168.875 351.347656 171.054688 348.359375 172.425781 C 348.238281 173.980469 348.359375 175.800781 347.460938 176.597656 C 347.367188 184.117188 347.4375 192.042969 346.824219 199.359375 C 346.078125 208.199219 346.335938 217.457031 345.914062 226.570312 C 345.476562 236.269531 346.222656 245.300781 346.640625 254.242188 C 346.957031 261.023438 347.347656 267.746094 348.277344 274.015625 C 348.523438 275.734375 348.699219 277.085938 349.363281 278.363281 C 350.046875 279.671875 350.324219 281.042969 350.722656 282.539062 C 351.121094 284.03125 351.847656 285.359375 351.992188 286.710938 C 352.574219 292.203125 348.667969 295.9375 343.46875 295.507812 C 339.738281 295.203125 337.699219 292.789062 336.300781 289.800781 C 326.796875 286.597656 313.703125 286.515625 301.652344 286.167969 C 301.179688 286.867188 301.414062 287.683594 301.375 288.441406 C 301.007812 296.65625 301.710938 305.75 301.742188 314.199219 C 305.925781 313.921875 310.296875 312.550781 314.898438 311.929688 C 318.550781 311.4375 321.292969 310.691406 324.421875 309.75 C 325.34375 309.472656 326.171875 308.625 326.957031 308.480469 C 329.914062 307.9375 330.609375 311.980469 328.136719 312.746094 C 327.582031 312.921875 326.980469 312.890625 326.417969 313.011719 C 325.046875 313.328125 323.46875 314.097656 321.964844 314.292969 C 322.015625 316.695312 322.375 320.113281 321.609375 321.996094 C 321.34375 322.128906 321.066406 322.238281 320.605469 322.179688 C 319.59375 320.839844 319.777344 318.292969 319.613281 316.101562 C 318.980469 315.949219 317.660156 316.582031 316.984375 316.101562 C 317.003906 317.410156 317.578125 320.316406 317.34375 321.902344 C 317.242188 322.617188 316.851562 323.804688 315.707031 323.539062 C 314.367188 322.3125 314.929688 319.179688 314.621094 316.921875 C 310.476562 318.097656 306.039062 318.976562 301.742188 320 C 302.109375 322.691406 301.414062 325.105469 301.648438 328.070312 C 301.761719 329.523438 302.375 331.660156 302.558594 333.246094 C 302.746094 334.882812 301.988281 337.738281 300.105469 336.324219 C 299.511719 335.886719 299.246094 334.402344 299.285156 333.429688 C 299.367188 331.691406 299.757812 329.472656 299.65625 327.171875 C 299.542969 324.664062 299.144531 322.425781 299.285156 320.542969 C 296.308594 320.898438 293.25 321.945312 289.945312 322.269531 C 289.332031 327.425781 290.519531 332.816406 290.398438 337.777344 C 291.503906 338.832031 290.9375 340.703125 289.945312 340.949219 C 288.496094 341.316406 287.667969 340.234375 287.769531 339.046875 C 287.808594 338.617188 288.175781 338.300781 288.230469 337.964844 C 288.269531 337.699219 288.15625 337.511719 288.136719 337.238281 C 287.777344 332.839844 288.25 326.742188 287.503906 322.90625 C 282.992188 323.835938 277.539062 324.613281 272.261719 325.082031 C 272.035156 325.511719 272.035156 326.179688 271.625 326.445312 C 271.492188 328.550781 271.503906 331.222656 271.625 333.882812 C 271.757812 336.847656 271.5625 340.140625 272.261719 342.046875 C 272.527344 342.75 273.335938 343.273438 273.078125 344.398438 C 272.710938 346.023438 270.152344 345.738281 269.90625 344.132812 C 269.816406 343.539062 269.9375 342.425781 269.90625 341.59375 C 269.671875 336.574219 270.050781 330.1875 269.445312 325.535156 C 258.878906 326.023438 247.542969 327.253906 235.800781 326.710938 C 231.984375 326.535156 228.210938 326.882812 224.546875 326.710938 C 221.191406 326.558594 218.011719 326.476562 214.667969 326.261719 C 212.199219 326.097656 209.625 325.566406 207.21875 325.175781 C 204.792969 324.777344 202.585938 324.171875 200.601562 323.355469 C 196.632812 321.71875 193.246094 318.824219 192.34375 314.648438 C 192.027344 314.671875 191.660156 315.417969 190.8125 315.191406 C 189.65625 314.542969 190.699219 312.589844 191.988281 313.378906 Z M 189.453125 312.46875 C 189.910156 312.40625 189.984375 313.296875 189.359375 313.101562 C 189.359375 312.867188 189.320312 312.589844 189.453125 312.46875 Z M 333.945312 168.515625 C 334.222656 168.523438 334.40625 168.433594 334.488281 168.25 C 334.214844 168.308594 334.316406 167.992188 334.027344 168.0625 C 334.070312 168.28125 333.863281 168.257812 333.945312 168.515625 Z M 288.589844 236.820312 C 287.371094 237.515625 287.597656 235.222656 286.59375 235.101562 C 286.542969 235.40625 286.550781 235.777344 286.234375 235.828125 C 286.011719 235.5625 285.785156 235.304688 285.867188 234.730469 C 286 234.261719 286.605469 234.671875 286.777344 234.375 C 286.308594 233.578125 285.816406 232.789062 285.050781 232.285156 C 284.996094 232.441406 285.160156 232.820312 284.957031 232.828125 C 283.535156 232.523438 284.476562 230.710938 283.515625 230.199219 C 283.496094 230.496094 283.71875 230.640625 283.328125 230.652344 C 282.726562 230.425781 282.992188 229.363281 282.328125 229.660156 C 282.019531 229.1875 281.90625 228.871094 282.234375 228.390625 C 282.011719 227.96875 281.375 228.71875 281.058594 228.207031 C 281.058594 227.542969 281.265625 227.058594 280.875 226.570312 C 280.648438 226.3125 280.640625 227.089844 280.332031 226.753906 C 280.199219 225.28125 279.207031 224.675781 278.152344 224.125 C 277.917969 223.859375 278.195312 223.5625 278.152344 223.214844 C 277.242188 222.578125 276.84375 221.453125 276.078125 220.675781 C 275.8125 220.410156 275.496094 220.339844 275.257812 220.042969 C 275.054688 219.777344 274.972656 219.410156 274.800781 219.132812 C 272.875 216.113281 270.132812 213.558594 267.820312 210.785156 C 265.449219 207.953125 263.3125 204.984375 260.742188 202.449219 C 260.886719 205.546875 260.546875 208.839844 260.558594 211.972656 C 260.570312 213.324219 261.285156 217.128906 260.199219 217.414062 C 259.453125 217.597656 258.992188 216.78125 258.933594 216.410156 C 258.828125 215.828125 259.402344 215.265625 259.472656 214.601562 C 259.597656 213.375 259.371094 211.441406 259.289062 209.609375 C 259.199219 207.554688 259.035156 205.332031 258.933594 203.625 C 258.851562 202.429688 259.144531 200.996094 258.933594 200.175781 C 258.777344 199.605469 257.898438 198.816406 257.480469 198.273438 C 256.925781 197.558594 256.3125 196.839844 255.933594 196.371094 C 254.746094 194.878906 253.847656 193.578125 252.761719 192.832031 C 252.785156 197.886719 253.164062 204.789062 253.664062 209.515625 C 253.714844 209.957031 253.929688 210.316406 253.847656 210.703125 C 253.5625 212.125 251.464844 211.664062 251.3125 210.613281 C 251.238281 210.089844 251.617188 209.597656 251.667969 209.066406 C 251.84375 207.335938 251.332031 204.761719 251.21875 202.355469 C 251.105469 199.777344 251.042969 196.554688 250.859375 194.007812 C 250.757812 192.667969 251.238281 191.15625 250.398438 190.109375 C 248.824219 197.558594 247.339844 205.710938 246.410156 214.140625 C 245.304688 224.226562 243.515625 234.152344 243.054688 244.625 C 242.953125 246.886719 243.515625 249.136719 243.332031 251.246094 C 243.042969 254.417969 240.710938 256.851562 237.703125 257.054688 C 235.046875 257.226562 233.171875 255.753906 232.261719 254.414062 C 231.78125 253.710938 231.742188 252.789062 231.167969 251.96875 C 230.59375 251.132812 229.234375 250.355469 228.179688 249.523438 C 227.105469 248.675781 226.136719 247.652344 225.277344 246.886719 C 223.269531 245.09375 221.011719 243.632812 218.921875 242.171875 C 210.105469 235.992188 201.65625 229.933594 191.894531 225.035156 C 186.984375 222.558594 181.972656 220.238281 176.746094 218.046875 C 179.652344 223.949219 183.078125 229.554688 185.542969 235.917969 C 188.050781 242.363281 189.71875 249.269531 192.171875 256.050781 C 194.503906 262.515625 196.808594 269.113281 199.058594 275.824219 C 201.347656 282.640625 203.097656 289.644531 204.777344 296.867188 C 210.953125 293.195312 217.492188 289.871094 224.828125 287.34375 C 224.96875 285.492188 224.898438 283.425781 224.917969 281.453125 C 221.949219 281.941406 218.257812 283.722656 214.933594 284.53125 C 211.332031 285.421875 208.160156 283.242188 207.863281 280.183594 C 207.539062 276.898438 209.605469 275.355469 211.761719 274.375 C 211.9375 274.160156 211.90625 273.738281 212.210938 273.648438 C 212.847656 273.65625 213.203125 273.085938 213.664062 273.648438 C 213.625 272.5 215.597656 272.765625 216.203125 272.828125 C 216.3125 272.523438 215.445312 272.171875 215.84375 271.558594 C 216.324219 271.394531 217.328125 271.304688 218.023438 271.46875 C 218.492188 271.589844 218.6875 272.144531 219.015625 271.929688 C 219.15625 271.773438 218.472656 271.683594 218.65625 271.203125 C 218.707031 270.917969 219.097656 270.976562 219.292969 270.835938 C 218.914062 270.804688 218.667969 270.527344 218.832031 270.199219 C 220.273438 269.636719 220.109375 271.078125 220.746094 271.46875 C 220.519531 271.078125 220.324219 270.8125 220.746094 270.660156 C 221.335938 270.433594 221.683594 271.507812 222.277344 271.019531 C 222.433594 270.753906 221.992188 270.273438 222.371094 269.933594 C 223.507812 269.484375 224.632812 269.492188 225.367188 270.199219 C 226.09375 270.179688 225.960938 269.289062 226.453125 269.023438 C 226.863281 269.023438 227.015625 269.492188 227.28125 269.597656 C 227.269531 269.433594 227.34375 269.238281 227.382812 269.09375 C 227.578125 269.042969 227.710938 269.085938 227.800781 269.175781 C 227.996094 268.953125 228.230469 268.871094 228.449219 269.300781 C 228.4375 268.890625 228.558594 268.613281 228.90625 268.574219 C 229.410156 268.789062 229.582031 269.199219 230.359375 268.933594 C 230.421875 268.625 229.777344 267.929688 230.441406 267.664062 C 231.199219 267.664062 231.414062 268.523438 231.988281 268.480469 C 232.527344 268.429688 232.476562 268.101562 233.082031 267.753906 C 233.5625 267.992188 234.09375 268.328125 234.441406 267.753906 C 234.21875 267.335938 233.121094 267.796875 233.253906 267.027344 C 233.480469 266.710938 233.941406 266.925781 234.164062 267.121094 C 234.15625 266.710938 234.574219 266.742188 234.984375 266.753906 C 235.34375 267.089844 235.3125 267.816406 236.160156 267.664062 C 236.621094 267.488281 236.785156 267.019531 237.246094 266.84375 C 236.742188 266.824219 236.292969 267.242188 236.070312 266.753906 C 236.292969 265.984375 238.144531 266.386719 238.15625 266.84375 C 238.484375 266.261719 239.035156 266.40625 239.617188 266.507812 C 239.800781 266.34375 240.171875 266.375 240.386719 266.570312 C 241.011719 266.488281 241.53125 266.035156 241.878906 266.660156 C 241.867188 266.191406 242.113281 265.964844 242.421875 265.800781 C 242.339844 265.71875 242.289062 265.605469 242.257812 265.476562 C 242.320312 264.808594 243.503906 265.097656 243.25 265.832031 C 243.179688 265.875 243.097656 265.914062 243.074219 266.007812 C 243.1875 266.078125 243.289062 266.148438 243.414062 266.210938 C 243.558594 265.445312 244.734375 265.710938 245.234375 265.300781 C 245.726562 265.269531 245.613281 265.832031 246.050781 265.851562 C 246.175781 265.617188 246.15625 265.238281 246.59375 265.300781 C 247.074219 265.25 247.035156 265.875 247.496094 265.578125 C 247.996094 265.6875 247.8125 265.105469 248.222656 265.125 C 248.640625 265.078125 248.609375 265.464844 249.039062 265.394531 C 249.398438 265.421875 249.316406 265.003906 249.671875 265.035156 C 249.929688 265.074219 250.183594 265.097656 250.449219 265.117188 C 250.542969 264.910156 250.828125 264.902344 251.144531 264.933594 C 251.167969 264.992188 251.207031 265.054688 251.238281 265.117188 C 252.464844 265.066406 253.765625 264.820312 255.023438 264.667969 C 256.617188 264.480469 258.246094 264.429688 259.832031 264.308594 C 267.1875 263.746094 274.613281 263.347656 282.058594 263.675781 C 283.933594 263.757812 285.601562 263.683594 287.410156 263.765625 C 294.511719 264.082031 301.160156 264.933594 306.910156 266.117188 C 309.886719 266.734375 312.679688 267.234375 315.347656 268.207031 C 316.597656 268.664062 317.832031 269.300781 319.152344 269.65625 C 319.890625 269.863281 320.515625 270.027344 321.148438 270.292969 C 321.761719 270.546875 322.3125 270.988281 322.96875 271.203125 C 323.746094 271.457031 323.992188 271.253906 324.421875 271.46875 C 326.046875 272.296875 325.261719 275.109375 323.140625 274.652344 C 322.4375 274.488281 322.046875 273.617188 321.609375 273.382812 C 321.136719 273.125 320.433594 273.085938 319.789062 272.828125 C 319.253906 272.613281 318.722656 272.246094 318.160156 272.023438 C 316.953125 271.53125 315.429688 271.417969 314.078125 271.203125 C 311.265625 270.761719 308.21875 270.242188 305.375 270.109375 C 299.183594 269.84375 293.160156 269.957031 287.503906 270.199219 C 270.675781 270.949219 255.421875 274.25 241.324219 277.09375 C 241.550781 278.9375 241.671875 280.871094 241.695312 282.90625 C 253.230469 280.636719 266.582031 278.996094 280.421875 278.363281 C 299.390625 277.503906 319.253906 278.191406 334.671875 282.085938 C 334.179688 269.492188 334.089844 256.289062 334.671875 243.171875 C 334.949219 236.882812 334.84375 230.601562 335.121094 224.390625 C 335.480469 216.277344 335.890625 208.269531 336.480469 200.535156 C 336.125 200.320312 335.714844 200.15625 335.570312 199.726562 C 336.289062 198.828125 335.082031 198.898438 335.214844 198.089844 C 335.304688 197.507812 336.011719 197.414062 336.667969 197.816406 C 336.511719 197.097656 336.585938 196.371094 336.757812 195.726562 C 336.082031 195.164062 335.347656 193.089844 336.839844 192.832031 C 337.289062 193.148438 336.296875 194.019531 337.023438 194.367188 C 337.117188 193.683594 337.207031 192.984375 337.207031 192.199219 C 336.03125 191.851562 336.503906 189.792969 337.472656 189.570312 C 336.574219 189.230469 336.65625 188.28125 337.566406 188.023438 C 337.75 187.207031 337.648438 186.101562 337.84375 185.304688 C 337.066406 184.699219 336.667969 182.460938 338.117188 182.304688 C 338.027344 181.722656 338.273438 181.242188 338.117188 180.855469 C 336.511719 182.296875 335.347656 184.230469 333.945312 186.03125 C 332.59375 187.75 331.121094 189.425781 329.769531 191.195312 C 327.960938 193.546875 325.84375 196.769531 323.960938 199.359375 C 323.007812 200.667969 321.964844 201.691406 321.78125 203.347656 C 321.28125 207.960938 321.546875 212.789062 321.332031 217.679688 C 321.148438 221.886719 321.148438 225.804688 321.332031 229.925781 C 321.546875 234.589844 321.8125 238.734375 321.609375 243.355469 C 321.566406 244.105469 321.382812 245.546875 321.609375 246.171875 C 321.863281 246.867188 322.753906 246.957031 322.785156 248.074219 C 322.816406 249.230469 321.925781 249.957031 320.882812 249.882812 C 318.507812 249.730469 319.613281 247 319.613281 245.257812 C 319.59375 238.621094 319.039062 231.378906 319.519531 223.941406 C 319.542969 223.632812 319.613281 223.347656 319.613281 223.03125 C 319.582031 217.792969 319.183594 212.257812 318.886719 207.613281 C 316.933594 211.019531 315.101562 214.714844 313.078125 218.316406 C 312.410156 219.5 311.367188 220.6875 311.082031 221.855469 C 310.917969 222.519531 311.09375 223.398438 311.082031 224.21875 C 311.0625 228.105469 310.5 233.332031 310.898438 236.820312 C 311.019531 237.875 311.492188 239.910156 309.90625 239.816406 C 309.078125 239.765625 308.882812 238.507812 308.8125 237.730469 C 308.554688 234.476562 309.21875 230.210938 308.453125 227.113281 C 307.316406 230.3125 305.761719 234.703125 304.464844 238.089844 C 303.246094 241.28125 301.546875 244.265625 297.117188 243.898438 C 295.933594 243.796875 295.277344 243.285156 294.027344 243.082031 C 293.527344 242.710938 293.363281 241.984375 292.761719 241.71875 C 292.503906 241.863281 292.679688 242.425781 292.125 242.261719 C 291.625 241.6875 291.257812 240.921875 291.402344 240.175781 C 291.113281 240.316406 291.339844 240.636719 290.765625 240.449219 C 290.273438 240.042969 291.0625 239.632812 290.675781 239.355469 C 290.234375 239.296875 290.152344 239.929688 289.761719 239.632812 C 288.996094 239.375 289.332031 238.261719 289.496094 237.914062 C 289.171875 238.167969 288.585938 237.914062 288.496094 237.636719 C 288.515625 237.320312 288.875 237.351562 289.035156 237.1875 C 288.761719 237.125 288.628906 236.449219 288.402344 236.636719 C 288.527344 236.644531 288.496094 236.800781 288.589844 236.820312 Z M 233.890625 221.402344 C 234.164062 221.597656 234.042969 221.976562 233.980469 222.304688 C 234.257812 222.066406 234.320312 221.125 234.164062 220.769531 C 234.09375 220.992188 233.921875 221.125 233.890625 221.402344 Z M 233.253906 224.851562 C 233.582031 224.664062 233.695312 224.859375 233.980469 224.941406 C 233.980469 224.664062 233.980469 224.390625 233.980469 224.125 C 233.808594 224.125 233.625 224.125 233.441406 224.125 C 233.429688 224.410156 233.234375 224.523438 233.253906 224.851562 Z M 232.804688 228.5625 C 233.46875 228.347656 233.152344 229.125 233.4375 229.289062 C 233.625 228.6875 233.941406 227.746094 233.714844 227.027344 C 233.492188 227.621094 232.804688 227.746094 232.804688 228.5625 Z M 179.375 261.308594 C 179.363281 260.601562 179.230469 260.011719 178.925781 259.589844 C 179.046875 260.195312 179.058594 260.910156 179.375 261.308594 Z M 180.101562 263.855469 C 180.070312 263.578125 180.050781 263.304688 179.835938 263.210938 C 179.9375 263.414062 179.84375 263.804688 180.101562 263.855469 Z M 182.28125 274.371094 C 182.78125 274.414062 183.039062 274.710938 183.28125 275.007812 C 183.222656 274.667969 183.058594 274.433594 183.007812 274.105469 C 182.699219 274.136719 182.496094 274.066406 182.28125 274.015625 C 182.28125 274.128906 182.28125 274.25 182.28125 274.371094 Z M 233.625 279.179688 C 233.53125 280.785156 233.683594 282.925781 233.625 284.804688 C 235.15625 284.5 236.609375 284.113281 238.0625 283.710938 C 237.910156 281.820312 238.09375 279.578125 237.613281 278.003906 C 236.324219 278.433594 234.71875 278.554688 233.625 279.179688 Z M 183.824219 279.273438 C 183.753906 279.519531 184 279.457031 184.007812 279.628906 C 184.285156 279.578125 184.46875 279.4375 184.460938 279.089844 C 184.121094 279.027344 184.109375 279.28125 183.824219 279.273438 Z M 227.269531 280.726562 C 227.148438 282.597656 227.179688 284.621094 227.179688 286.617188 C 228.355469 286.25 229.574219 285.933594 230.71875 285.53125 C 230.269531 283.949219 230.675781 281.523438 230.269531 279.90625 C 229.265625 280.171875 228.203125 280.378906 227.269531 280.726562 Z M 185 283.898438 C 185.296875 283.917969 185.441406 283.792969 185.453125 283.539062 C 185.347656 283.457031 185.214844 283.414062 185 283.445312 C 185 283.597656 185 283.742188 185 283.898438 Z M 249.949219 293.605469 C 243.105469 295.558594 236.753906 297.890625 230.175781 300.5 C 225.820312 302.226562 220.867188 304.652344 216.753906 307.117188 C 215.332031 307.96875 213.554688 308.828125 212.671875 309.746094 C 212.242188 310.1875 211.90625 311.054688 211.488281 311.742188 C 211.007812 312.519531 210.464844 313.296875 210.496094 314.011719 C 210.515625 314.65625 211.476562 316.4375 212.027344 316.734375 C 212.53125 317 213.636719 316.96875 214.574219 317.09375 C 215.433594 317.214844 216.367188 317.328125 217.113281 317.460938 C 222.085938 318.308594 228.375 318.851562 233.082031 319.097656 C 236.847656 319.28125 240.691406 319.023438 244.414062 318.914062 C 255.964844 318.542969 266.769531 317.808594 277.4375 316.734375 C 284.691406 316.007812 291.933594 315.875 298.929688 314.738281 C 298.847656 305.632812 298.921875 295.160156 298.019531 286.257812 C 280.464844 286.730469 264.761719 289.378906 249.949219 293.605469 Z M 186.636719 291.160156 C 186.78125 291.160156 186.933594 291.160156 187.089844 291.160156 C 187.191406 290.628906 186.597656 290.78125 186.636719 291.160156 Z M 186.730469 292.058594 C 186.90625 292.058594 187.089844 292.058594 187.273438 292.058594 C 187.230469 291.824219 187.222656 291.570312 187.089844 291.425781 C 186.988281 291.660156 186.863281 291.863281 186.730469 292.058594 Z M 188 295.785156 C 188 295.507812 188.050781 295.179688 187.722656 295.242188 C 187.570312 295.539062 187.773438 295.628906 188 295.785156 Z M 187.8125 296.777344 C 187.96875 296.777344 188.101562 296.796875 188.171875 296.867188 C 188.140625 296.632812 188.109375 295.914062 188 296.050781 C 188.070312 296.429688 187.8125 296.480469 187.8125 296.777344 Z M 187.628906 298.503906 C 187.804688 298.667969 188 298.800781 188.355469 298.769531 C 188.386719 298.65625 188.46875 297.859375 188.171875 297.777344 C 188.089844 298.117188 187.558594 298.003906 187.628906 298.503906 Z M 185.921875 314.453125 C 185.789062 314.648438 185.6875 314.871094 185.289062 314.8125 C 184.980469 314.308594 185.71875 313.960938 185.921875 314.453125 Z M 187.199219 314.003906 C 187.324219 314.113281 187.324219 314.421875 187.199219 314.542969 C 186.945312 314.523438 186.8125 314.382812 186.832031 314.085938 C 186.914062 314.023438 187.039062 313.992188 187.199219 314.003906 Z M 185.289062 311.363281 C 185.339844 312.078125 184.460938 312.558594 183.753906 312.816406 C 183.734375 312.191406 184.40625 311.085938 185.289062 311.363281 Z M 183.386719 310.554688 C 183.765625 310.503906 183.847656 311.046875 183.660156 311.28125 C 183.539062 311.28125 183.417969 311.28125 183.292969 311.28125 C 183.109375 311.078125 183.222656 310.667969 183.386719 310.554688 Z M 185.75 310.1875 C 185.972656 310.195312 186.097656 310.320312 186.105469 310.554688 C 185.933594 310.554688 185.996094 310.800781 185.75 310.730469 C 185.625 310.617188 185.625 310.300781 185.75 310.1875 Z M 182.75 309.644531 C 182.894531 309.613281 182.90625 309.726562 183.027344 309.738281 C 183.039062 309.898438 182.914062 309.921875 182.933594 310.09375 C 182.730469 310.085938 182.742188 309.871094 182.75 309.644531 Z M 186.476562 309.101562 C 186.792969 309.082031 186.945312 309.226562 186.925781 309.550781 C 186.820312 309.625 186.679688 309.675781 186.476562 309.644531 C 186.394531 309.378906 186.394531 309.367188 186.476562 309.101562 Z M 183.292969 307.648438 C 183.710938 307.722656 183.621094 308.292969 183.753906 308.640625 C 184.089844 308.703125 184.703125 308.476562 184.652344 308.917969 C 184.992188 308.855469 185.207031 308.316406 185.65625 308.640625 C 185.726562 309.082031 185.136719 309.328125 184.839844 309.101562 C 184.582031 309.359375 184.347656 309.632812 184.113281 309.921875 C 184.246094 310.207031 184.878906 309.992188 185.023438 310.277344 C 185.175781 311.679688 183.273438 311.21875 183.835938 310.003906 C 183.703125 309.847656 183.292969 309.941406 183.203125 309.738281 C 183.476562 308.917969 183.40625 308.589844 183.292969 307.648438 Z M 186.476562 307.109375 C 186.597656 307.160156 186.691406 307.238281 186.738281 307.375 C 186.617188 307.699219 186.484375 308.015625 186.105469 308.097656 C 186.097656 307.753906 185.800781 307.679688 185.839844 307.28125 C 185.984375 307.148438 186.339844 307.414062 186.476562 307.109375 Z M 181.574219 306.832031 C 181.613281 307.023438 181.511719 307.078125 181.484375 307.191406 C 181.359375 307.160156 181.339844 307.035156 181.207031 307.015625 C 181.226562 306.851562 181.371094 306.8125 181.574219 306.832031 Z M 182.117188 305.746094 C 182.238281 305.777344 182.261719 305.902344 182.394531 305.921875 C 182.34375 306.300781 182.25 306.625 182.117188 306.921875 C 181.832031 306.761719 181.871094 305.910156 182.117188 305.746094 Z M 185.378906 305.65625 C 185.617188 305.929688 185.675781 306.382812 185.65625 306.921875 C 185.226562 306.839844 185.359375 306.195312 184.746094 306.289062 C 184.726562 305.839844 184.929688 305.625 185.378906 305.65625 Z M 183.660156 305.65625 C 183.570312 305.929688 183.445312 306.167969 183.121094 306.195312 C 183.179688 305.902344 183.261719 305.625 183.660156 305.65625 Z M 184.386719 304.558594 C 184.511719 304.558594 184.621094 304.558594 184.746094 304.558594 C 184.910156 304.734375 184.816406 305.164062 184.839844 305.472656 C 184.613281 305.644531 184.386719 305.808594 183.925781 305.746094 C 183.898438 305.574219 183.734375 305.511719 183.753906 305.285156 C 183.980469 305.0625 184.429688 305.0625 184.386719 304.558594 Z M 183.292969 304.019531 C 183.792969 304.039062 183.804688 304.539062 183.925781 304.929688 C 183.847656 304.96875 183.761719 305.011719 183.753906 305.113281 C 183.058594 305.152344 183.039062 304.457031 183.292969 304.019531 Z M 184.296875 302.933594 C 184.746094 303.148438 184.960938 304.210938 184.109375 304.109375 C 184.089844 303.710938 183.949219 303.230469 184.296875 302.933594 Z M 184.109375 301.839844 C 184.109375 301.992188 184.109375 302.144531 184.109375 302.300781 C 183.710938 302.515625 183.363281 302.382812 182.933594 302.660156 C 182.84375 301.859375 183.496094 301.410156 184.109375 301.839844 Z M 185.023438 300.753906 C 185.144531 301.019531 185.023438 301.203125 184.839844 301.390625 C 184.398438 301.359375 184.542969 300.632812 185.023438 300.753906 Z M 181.03125 300.664062 C 181.433594 300.652344 181.625 300.855469 181.667969 301.203125 C 181.429688 301.460938 181.257812 301.765625 180.847656 301.839844 C 180.683594 301.390625 180.910156 301.082031 181.03125 300.664062 Z M 182.660156 296.582031 C 182.660156 296.796875 182.8125 296.847656 182.75 297.121094 C 182.585938 297.367188 182.097656 297.367188 181.933594 297.121094 C 181.808594 296.539062 182.261719 296.378906 182.660156 296.582031 Z M 182.117188 294.945312 C 182.066406 295.324219 182.035156 295.710938 181.574219 295.671875 C 181.535156 295.597656 181.492188 295.515625 181.390625 295.496094 C 181.441406 295.140625 181.75 294.6875 182.117188 294.945312 Z M 182.75 290.503906 C 182.527344 291.160156 181.941406 291.445312 181.484375 291.863281 C 181.296875 291.148438 181.675781 290.25 182.75 290.503906 Z M 182.300781 287.96875 C 182.414062 288 182.445312 288.121094 182.566406 288.140625 C 182.320312 288.828125 182.546875 288.847656 182.75 289.421875 C 182.648438 289.492188 182.503906 289.53125 182.300781 289.503906 C 182.085938 288.992188 181.699219 288.335938 182.300781 287.96875 Z M 180.570312 287.058594 C 180.847656 287.058594 180.835938 287.703125 180.480469 287.597656 C 180.285156 287.414062 180.46875 287.199219 180.570312 287.058594 Z M 180.847656 283.519531 C 181.164062 284.203125 180.785156 285.480469 181.03125 286.421875 C 180.417969 286.15625 180.007812 283.785156 180.847656 283.519531 Z M 179.84375 282.882812 C 179.898438 283.355469 179.683594 283.558594 179.210938 283.519531 C 178.957031 283.078125 179.46875 282.6875 179.84375 282.882812 Z M 179.304688 278.074219 C 179.34375 278.546875 178.484375 278.382812 178.578125 277.984375 C 178.933594 278.023438 179.128906 277.777344 179.304688 278.074219 Z M 178.945312 276.355469 C 178.882812 276.777344 178.640625 277.023438 178.21875 277.082031 C 178.097656 276.796875 178.445312 276.304688 178.945312 276.355469 Z M 176.039062 261.207031 C 176.183594 261.175781 176.195312 261.289062 176.316406 261.296875 C 176.335938 261.738281 176.113281 262.023438 176.316406 262.382812 C 175.855469 262.300781 175.753906 261.511719 176.039062 261.207031 Z M 288.609375 246.875 C 288.476562 247.375 288.546875 247.640625 288.699219 248.050781 C 288.617188 248.09375 288.535156 248.132812 288.515625 248.234375 C 287.757812 248.316406 287.769531 246.382812 288.609375 246.875 Z M 285.160156 243.96875 C 285.304688 244.296875 285.417969 244.707031 285.160156 244.972656 C 284.28125 245.195312 284.160156 243.695312 285.160156 243.96875 Z M 284.433594 242.425781 C 284.761719 242.597656 284.628906 242.761719 284.617188 243.152344 C 284.085938 243.285156 284.21875 242.546875 284.433594 242.425781 Z M 283.800781 240.613281 C 283.496094 240.59375 283.332031 240.421875 283.351562 240.074219 C 283.585938 239.847656 284.097656 240.308594 283.800781 240.613281 Z M 285.425781 240.347656 C 285.324219 240.328125 285.273438 240.367188 285.253906 240.429688 C 284.957031 240.421875 284.855469 240.226562 284.886719 239.886719 C 285.171875 239.753906 285.507812 239.878906 285.425781 240.347656 Z M 282.53125 238.527344 C 282.625 238.527344 282.707031 238.527344 282.796875 238.527344 C 282.828125 238.761719 282.765625 238.917969 282.53125 238.894531 C 282.53125 238.773438 282.53125 238.648438 282.53125 238.527344 Z M 279.441406 237.894531 C 279.15625 237.996094 279.207031 237.933594 278.992188 237.800781 C 279.003906 237.535156 279.535156 237.566406 279.441406 237.894531 Z M 230.371094 237.628906 C 230.1875 237.820312 229.972656 237.636719 229.828125 237.535156 C 229.828125 237.257812 230.472656 237.269531 230.371094 237.628906 Z M 283.257812 237.074219 C 283.492188 237.074219 283.738281 237.074219 283.984375 237.074219 C 284.148438 237.257812 284.269531 237.8125 284.066406 238.078125 C 283.464844 238.085938 283.003906 237.648438 283.257812 237.074219 Z M 281.261719 236.082031 C 281.171875 237.023438 280.792969 237.667969 279.71875 237.625 C 279.894531 236.820312 280.363281 235.867188 281.261719 236.082031 Z M 278.175781 235.449219 C 278.226562 235.746094 278.113281 235.867188 278.082031 236.082031 C 277.632812 236.144531 277.488281 235.886719 277.539062 235.449219 C 277.664062 235.316406 278.050781 235.316406 278.175781 235.449219 Z M 277.265625 234.179688 C 277.160156 234.160156 277.109375 234.199219 277.089844 234.261719 C 275.84375 233.84375 277.734375 232.871094 277.265625 234.179688 Z M 229.734375 230.097656 C 229.777344 230.597656 228.9375 230.507812 228.742188 230.273438 C 228.640625 229.738281 229.59375 229.863281 229.734375 230.097656 Z M 230.371094 227.378906 C 230.359375 227.601562 230.238281 227.726562 230.011719 227.734375 C 229.972656 227.652344 229.929688 227.570312 229.828125 227.550781 C 229.839844 227.324219 230.136719 227.378906 230.371094 227.378906 Z M 229.828125 227.378906 C 228.824219 227.601562 228.449219 226.332031 229.011719 225.832031 C 229.644531 225.984375 229.441406 226.976562 229.828125 227.378906 Z M 226.832031 223.109375 C 226.953125 223.140625 226.972656 223.265625 227.105469 223.296875 C 226.972656 223.632812 226.226562 223.765625 225.929688 223.652344 C 225.941406 223.183594 226.585938 223.347656 226.832031 223.109375 Z M 230.277344 222.109375 C 230.472656 222.191406 230.554688 222.375 230.554688 222.652344 C 230.277344 222.660156 230.289062 222.382812 230.277344 222.109375 Z M 229.550781 222.292969 C 229.296875 222.382812 228.835938 222.597656 228.558594 222.382812 C 228.417969 221.710938 229.726562 221.453125 229.550781 222.292969 Z M 331.328125 221.023438 C 331.328125 221.238281 331.480469 221.289062 331.417969 221.566406 C 331.257812 221.8125 330.671875 221.8125 330.507812 221.566406 C 330.355469 220.941406 330.917969 220.820312 331.328125 221.023438 Z M 332.78125 219.386719 C 332.75 219.683594 332.320312 219.878906 332.054688 219.664062 C 331.941406 219.050781 332.628906 219.019531 332.78125 219.386719 Z M 231.28125 218.9375 C 230.964844 219.683594 230.410156 220.65625 229.550781 220.574219 C 229.59375 219.886719 230.585938 218.957031 231.28125 218.9375 Z M 229.285156 218.660156 C 229.65625 218.660156 229.359375 219.316406 229.550781 219.480469 C 229.449219 219.582031 229.234375 219.582031 229.011719 219.570312 C 228.785156 219.171875 229.101562 218.917969 229.285156 218.660156 Z M 332.78125 216.492188 C 332.84375 217.015625 331.65625 216.972656 331.605469 216.574219 C 331.574219 216.09375 332.710938 216.074219 332.78125 216.492188 Z M 331.871094 213.851562 C 331.921875 214.179688 331.796875 214.324219 331.605469 214.40625 C 330.828125 214.386719 331.285156 213.421875 331.871094 213.851562 Z M 230.105469 213.402344 C 230.105469 213.769531 229.765625 213.792969 229.378906 213.769531 C 229.265625 213.660156 229.277344 213.445312 229.285156 213.21875 C 229.511719 213.046875 230.074219 213.105469 230.105469 213.402344 Z M 332.6875 210.589844 C 332.6875 211.203125 333.394531 211.089844 333.230469 211.859375 C 332.269531 212.953125 331.246094 210.652344 332.6875 210.589844 Z M 231.28125 210.589844 C 231.558594 210.917969 232.078125 211 232.367188 211.316406 C 232.148438 212.289062 230.71875 211.460938 231.28125 210.589844 Z M 229.921875 208.964844 C 230.289062 209.066406 229.898438 209.320312 229.644531 209.320312 C 229.644531 209.230469 229.644531 209.136719 229.644531 209.042969 C 229.777344 209.054688 229.898438 209.066406 229.921875 208.964844 Z M 333.230469 208.238281 C 333.230469 208.441406 333.230469 208.65625 333.230469 208.871094 C 332.710938 209.289062 331.972656 208.871094 332.054688 208.144531 C 332.300781 207.664062 332.953125 207.992188 333.230469 208.238281 Z M 332.78125 206.875 C 332.6875 206.875 332.710938 206.988281 332.6875 207.050781 C 331.359375 207.664062 331.542969 205.453125 332.238281 205.515625 C 332.636719 205.546875 332.585938 206.46875 332.78125 206.875 Z M 334.324219 205.148438 C 334.128906 205.230469 334.019531 205.382812 333.691406 205.332031 C 333.003906 204.648438 334.507812 203.972656 334.324219 205.148438 Z M 230.460938 204.246094 C 230.75 204.265625 230.699219 205.085938 230.554688 205.238281 C 230.136719 205.148438 230.390625 204.566406 230.460938 204.246094 Z M 154.539062 201.433594 C 154.855469 201.507812 155.140625 201.617188 155.265625 201.882812 C 155.335938 202.128906 155.089844 202.070312 155.089844 202.242188 C 154.589844 202.261719 154.136719 201.773438 154.539062 201.433594 Z M 231.1875 199.980469 C 231.21875 200.515625 230.328125 200.371094 230.105469 200.167969 C 229.941406 199.542969 231.128906 199.574219 231.1875 199.980469 Z M 156.542969 199.980469 C 156.417969 200.011719 156.398438 200.136719 156.265625 200.167969 C 156 200.1875 155.949219 199.992188 155.816406 199.890625 C 155.773438 199.316406 156.695312 199.277344 156.542969 199.980469 Z M 334.5 199.347656 C 334.355469 200.054688 334.878906 200.675781 333.957031 200.800781 C 333.785156 200.667969 333.640625 200.515625 333.507812 200.339844 C 333.621094 199.828125 334.050781 199.214844 334.5 199.347656 Z M 231.097656 195.441406 C 231.148438 195.828125 230.789062 195.808594 230.554688 195.902344 C 230.605469 195.625 230.757812 195.429688 231.097656 195.441406 Z M 336.226562 163.511719 C 336.679688 163.460938 336.894531 164.015625 336.679688 164.332031 C 336.226562 164.382812 336.023438 163.839844 336.226562 163.511719 Z M 338.039062 160.699219 C 338.242188 161.121094 338.488281 161.742188 337.945312 161.976562 C 336.996094 162.089844 336.769531 160.390625 338.039062 160.699219 Z M 343.847656 156.894531 C 343.582031 157.078125 343.5 157.191406 343.125 157.078125 C 342.292969 156.199219 344.09375 155.535156 343.847656 156.894531 Z M 338.949219 156.257812 C 338.9375 156.761719 338.394531 156.605469 338.128906 156.445312 C 338.128906 156.351562 338.128906 156.257812 338.128906 156.167969 C 338.367188 155.964844 338.773438 156.125 338.949219 156.257812 Z M 338.949219 156.257812 " fill-opacity="1" fill-rule="evenodd"/></g><g fill="#ffffff" fill-opacity="1"><g transform="translate(76.015997, 193.422234)"><g><path d="M 14.117188 -16.023438 C 13.933594 -17.144531 13.707031 -18.300781 13.371094 -19.421875 C 13 -20.507812 12.476562 -21.550781 11.953125 -22.558594 C 11.765625 -22.894531 11.390625 -22.972656 11.09375 -22.859375 C 10.832031 -23.34375 10.457031 -23.980469 9.972656 -24.277344 C 9.523438 -24.539062 8.890625 -24.539062 8.367188 -24.429688 C 7.882812 -24.464844 7.394531 -24.316406 6.910156 -24.128906 C 5.714844 -23.867188 4.816406 -22.710938 4.183594 -21.328125 C 4.109375 -21.328125 3.996094 -21.363281 3.882812 -21.328125 C 4.035156 -21.738281 4.183594 -22.148438 4.371094 -22.558594 C 4.519531 -22.933594 4.742188 -23.308594 4.96875 -23.679688 C 5.003906 -23.753906 4.929688 -23.792969 4.894531 -23.71875 C 4.257812 -22.894531 3.773438 -22 3.398438 -21.027344 C 3.363281 -20.992188 3.363281 -20.953125 3.324219 -20.953125 C 0.820312 -16.769531 0.148438 -11.839844 0.894531 -7.058594 C 1.269531 -4.855469 2.015625 -2.613281 3.773438 -1.121094 C 4.78125 -0.296875 6.164062 0.148438 7.394531 -0.0742188 C 7.804688 -0.0390625 8.21875 -0.0390625 8.628906 -0.0742188 C 9.675781 -0.222656 10.53125 -0.710938 11.242188 -1.417969 C 11.765625 -1.867188 12.214844 -2.390625 12.625 -2.949219 C 13.855469 -4.707031 14.195312 -6.984375 14.378906 -9.039062 C 14.640625 -11.390625 14.492188 -13.707031 14.117188 -16.023438 Z M 9.449219 -5.15625 C 9.335938 -4.707031 9.152344 -4.296875 8.925781 -3.882812 C 8.703125 -3.472656 8.367188 -3.136719 7.917969 -2.988281 C 6.3125 -2.503906 5.003906 -4.035156 4.40625 -5.265625 C 4.78125 -5.042969 5.265625 -4.929688 5.714844 -5.042969 C 5.863281 -5.078125 6.011719 -5.15625 6.125 -5.230469 C 5.566406 -7.65625 5.265625 -10.195312 5.378906 -12.738281 C 5.453125 -13.597656 5.527344 -14.453125 5.675781 -15.3125 C 5.714844 -15.351562 5.714844 -15.390625 5.753906 -15.464844 C 6.050781 -16.996094 6.535156 -18.527344 7.246094 -19.910156 C 7.394531 -20.167969 7.546875 -20.46875 7.769531 -20.617188 C 5.640625 -16.136719 5.566406 -10.644531 6.609375 -5.789062 C 6.796875 -6.125 6.835938 -6.5 6.761719 -6.910156 C 6.3125 -9.675781 6.273438 -12.550781 6.609375 -15.3125 C 6.796875 -16.734375 7.132812 -18.117188 7.546875 -19.460938 C 7.65625 -19.832031 7.804688 -20.320312 8.03125 -20.730469 L 8.21875 -20.730469 C 8.253906 -20.730469 8.328125 -20.691406 8.367188 -20.65625 C 8.515625 -20.394531 8.628906 -20.09375 8.738281 -19.832031 C 9 -19.199219 9.226562 -18.527344 9.449219 -17.855469 C 9.5625 -17.332031 9.636719 -16.769531 9.75 -16.210938 C 10.046875 -14.378906 10.160156 -12.476562 10.308594 -10.609375 C 10.308594 -8.777344 10.085938 -6.910156 9.449219 -5.15625 Z M 9.449219 -5.15625 "/></g></g></g><g fill="#ffffff" fill-opacity="1"><g transform="translate(91.703344, 193.422234)"><g><path d="M 18.003906 -7.207031 C 18.863281 -10.195312 19.011719 -13.335938 18.863281 -16.433594 L 18.863281 -17.929688 C 18.863281 -18.824219 18.714844 -19.722656 18.636719 -20.617188 C 18.527344 -22 18.375 -23.792969 16.695312 -23.980469 C 16.285156 -24.015625 15.949219 -23.605469 15.949219 -23.234375 L 15.949219 -22.859375 C 15.015625 -23.382812 13.671875 -22.636719 13.707031 -21.515625 C 13.746094 -18.152344 13.78125 -14.828125 13.558594 -11.503906 C 13.484375 -10.234375 13.558594 -7.882812 12.699219 -6.609375 C 12.175781 -6.164062 11.542969 -5.863281 10.832031 -5.714844 C 10.160156 -5.753906 9.597656 -6.050781 9.078125 -6.460938 C 8.066406 -9.152344 7.394531 -11.953125 7.207031 -14.828125 C 7.132812 -16.210938 7.132812 -17.628906 7.246094 -19.050781 C 7.320312 -20.207031 7.917969 -21.589844 7.507812 -22.710938 C 7.171875 -23.53125 6.386719 -24.167969 5.492188 -24.277344 C 3.25 -24.613281 2.089844 -22.335938 1.679688 -20.46875 C 0.558594 -15.648438 0.746094 -10.421875 2.578125 -5.789062 C 2.800781 -5.230469 3.324219 -5.042969 3.773438 -5.078125 C 4.183594 -4.222656 4.707031 -3.398438 5.339844 -2.652344 C 7.207031 -0.484375 10.683594 0.894531 13.257812 -0.746094 C 13.894531 -1.046875 14.566406 -1.644531 14.902344 -2.015625 C 14.976562 -2.089844 15.050781 -2.167969 15.164062 -2.242188 C 16.585938 -3.546875 17.441406 -5.378906 18.003906 -7.207031 Z M 7.097656 -20.355469 C 6.535156 -17.070312 6.574219 -13.707031 7.171875 -10.421875 C 7.132812 -10.457031 7.097656 -10.457031 7.058594 -10.457031 C 6.949219 -10.90625 6.835938 -11.390625 6.761719 -11.878906 C 6.273438 -14.34375 6.273438 -16.921875 6.574219 -19.460938 C 6.722656 -19.757812 6.796875 -20.09375 6.871094 -20.429688 C 6.910156 -20.355469 7.023438 -20.320312 7.097656 -20.355469 Z M 7.097656 -20.355469 "/></g></g></g><g fill="#ffffff" fill-opacity="1"><g transform="translate(110.752263, 193.422234)"><g><path d="M 21.289062 -14.230469 C 21.402344 -15.050781 21.179688 -15.726562 20.582031 -16.171875 C 20.09375 -16.546875 19.570312 -16.957031 19.050781 -17.332031 C 18.972656 -17.628906 18.824219 -17.929688 18.527344 -18.152344 C 14.867188 -20.617188 11.167969 -23.15625 7.058594 -24.464844 C 7.023438 -24.464844 6.984375 -24.503906 6.949219 -24.503906 C 6.6875 -24.613281 6.425781 -24.6875 6.164062 -24.800781 C 6.089844 -24.875 5.976562 -24.949219 5.828125 -24.949219 C 4.59375 -25.175781 2.351562 -25.660156 1.644531 -24.277344 C 1.234375 -23.417969 1.644531 -22.375 2.351562 -21.777344 C 2.128906 -21.441406 1.867188 -21.179688 1.570312 -20.953125 C 1.867188 -19.683594 2.128906 -18.375 2.390625 -17.105469 C 2.167969 -17.105469 1.941406 -17.105469 1.71875 -17.070312 C 0.597656 -17.070312 0.148438 -15.203125 1.195312 -14.53125 C 1.53125 -14.304688 1.941406 -14.082031 2.316406 -13.933594 L 1.457031 -13.820312 C 1.867188 -13.671875 2.277344 -13.519531 2.6875 -13.410156 C 2.839844 -13.371094 2.914062 -13.257812 2.914062 -13.148438 C 2.988281 -13.148438 3.0625 -13.148438 3.136719 -13.148438 L 3.363281 -11.839844 C 3.660156 -10.085938 3.960938 -8.328125 4.257812 -6.574219 L 4.59375 -4.109375 C 4.667969 -3.285156 4.59375 -2.390625 4.78125 -1.605469 C 4.78125 -1.195312 5.15625 -0.933594 5.453125 -1.007812 C 5.492188 -0.785156 5.566406 -0.597656 5.675781 -0.410156 C 6.125 0.113281 6.871094 0.0742188 7.359375 -0.335938 C 7.730469 -0.636719 7.992188 -1.007812 8.21875 -1.457031 C 8.21875 -1.644531 8.21875 -1.867188 8.179688 -2.089844 C 8.292969 -3.921875 8.105469 -5.828125 7.992188 -7.65625 C 7.917969 -9.375 7.769531 -11.09375 7.582031 -12.773438 C 8.554688 -12.738281 9.5625 -12.664062 10.53125 -12.625 C 10.71875 -12.289062 10.945312 -11.914062 11.167969 -11.578125 L 11.167969 -11.542969 C 11.390625 -11.167969 11.578125 -10.792969 11.765625 -10.382812 C 12.476562 -9 13.484375 -6.535156 13.894531 -5.566406 C 14.640625 -3.847656 15.390625 -2.089844 16.0625 -0.335938 C 16.210938 -0.261719 16.433594 -0.335938 16.546875 -0.449219 C 16.546875 -0.410156 16.585938 -0.410156 16.621094 -0.410156 C 16.957031 -0.261719 17.292969 -0.261719 17.628906 -0.296875 C 18.265625 -0.0390625 19.125 -0.222656 19.234375 -1.046875 C 19.535156 -3.472656 18.226562 -5.828125 17.21875 -7.957031 C 16.433594 -9.5625 15.539062 -11.09375 14.53125 -12.585938 C 16.285156 -12.4375 18.039062 -12.289062 19.796875 -12.175781 C 20.394531 -12.101562 21.105469 -12.738281 21.179688 -13.445312 Z M 6.125 -19.945312 L 6.011719 -20.542969 C 9.226562 -19.796875 12.214844 -18.191406 15.089844 -16.210938 L 11.46875 -16.660156 C 10.609375 -17.367188 9.375 -18.375 8.253906 -17.667969 C 8.066406 -17.519531 7.957031 -17.292969 7.917969 -17.105469 C 7.730469 -17.144531 7.507812 -17.144531 7.320312 -17.183594 C 7.171875 -17.964844 6.984375 -18.75 6.796875 -19.535156 C 6.761719 -19.871094 6.386719 -19.871094 6.199219 -19.683594 C 6.164062 -19.757812 6.164062 -19.871094 6.125 -19.945312 Z M 8.777344 -3.136719 C 8.925781 -4.035156 9.226562 -4.40625 9.113281 -5.753906 C 8.925781 -7.992188 8.738281 -10.234375 8.367188 -12.402344 L 8.066406 -12.402344 C 8.515625 -9.335938 8.628906 -6.238281 8.777344 -3.136719 Z M 8.777344 -3.136719 "/></g></g></g><g fill="#ffffff" fill-opacity="1"><g transform="translate(132.790216, 193.422234)"><g/></g></g></svg>