<svg xmlns="http://www.w3.org/2000/svg" xmlns:xlink="http://www.w3.org/1999/xlink" width="500" zoomAndPan="magnify" viewBox="0 0 375 374.999991" height="500" preserveAspectRatio="xMidYMid meet" version="1.0"><defs><g/></defs><g fill="#d6cfce" fill-opacity="1"><g transform="translate(107.729432, 163.976818)"><g><path d="M 41.597656 -31.523438 C 41.511719 -33.609375 41.511719 -35.695312 41.597656 -37.863281 C 41.945312 -41.945312 42.816406 -46.203125 42.292969 -50.285156 C 42.035156 -52.628906 40.558594 -54.539062 38.039062 -54.539062 C 35.78125 -54.539062 33.785156 -52.628906 33.785156 -50.285156 C 33.871094 -48.808594 33.871094 -47.332031 33.871094 -45.855469 L 33.4375 -46.289062 C 31.699219 -47.851562 29.789062 -49.15625 27.878906 -50.371094 C 23.796875 -53.0625 19.539062 -54.972656 14.851562 -56.363281 C 14.328125 -56.535156 13.894531 -56.535156 13.546875 -56.449219 C 11.722656 -57.058594 9.8125 -57.578125 7.902344 -57.753906 C 4.949219 -58.011719 2.433594 -56.191406 1.738281 -53.324219 C 1.042969 -50.457031 2.605469 -47.9375 4.167969 -45.769531 C 7.382812 -41.597656 11.117188 -37.953125 15.199219 -34.652344 L 16.5 -33.609375 C 17.714844 -32.394531 18.933594 -31.179688 20.0625 -29.875 C 23.015625 -26.835938 25.792969 -23.710938 28.484375 -20.496094 C 29.355469 -19.453125 30.222656 -18.410156 31.003906 -17.371094 C 31.179688 -16.847656 31.4375 -16.414062 31.613281 -15.980469 C 31.960938 -15.285156 32.742188 -13.636719 32.308594 -12.679688 C 32.308594 -12.417969 32.308594 -12.160156 32.046875 -11.898438 C 31.351562 -10.855469 29.613281 -10.683594 28.484375 -10.59375 C 26.574219 -10.421875 24.75 -10.421875 22.925781 -10.59375 C 21.886719 -10.683594 20.84375 -10.855469 19.800781 -11.203125 C 18.757812 -11.984375 17.804688 -12.941406 16.933594 -13.808594 C 15.371094 -15.457031 14.328125 -17.628906 13.546875 -19.714844 C 11.550781 -25.445312 11.289062 -31.613281 9.464844 -37.34375 C 8.773438 -39.429688 7.035156 -40.210938 4.949219 -39.949219 C 3.214844 -39.6875 1.910156 -38.039062 1.5625 -36.476562 C 1.042969 -33.957031 1.5625 -31.265625 1.910156 -28.832031 C 2.257812 -26.054688 2.605469 -23.273438 3.300781 -20.582031 C 4.601562 -15.804688 5.558594 -10.941406 6.078125 -6.078125 C 6.253906 -5.210938 6.511719 -4.429688 7.035156 -3.820312 C 7.296875 -2.257812 8.164062 -0.78125 9.117188 0.171875 C 9.988281 1.042969 11.375 1.042969 12.246094 0.171875 C 13.375 -0.78125 13.980469 -2.171875 14.328125 -3.648438 C 15.980469 -2.605469 17.804688 -1.824219 19.714844 -1.390625 C 22.492188 -0.609375 25.792969 -0.261719 28.746094 -0.695312 L 29.007812 -0.695312 C 34.476562 -0.957031 40.382812 -5.035156 40.558594 -10.683594 C 40.90625 -12.941406 40.382812 -15.285156 39.429688 -17.457031 C 38.90625 -19.800781 37.691406 -21.972656 36.128906 -23.96875 C 33.871094 -26.835938 31.265625 -29.527344 28.746094 -32.21875 C 26.140625 -35.085938 23.363281 -37.863281 20.582031 -40.558594 L 17.023438 -43.945312 C 19.28125 -43.421875 21.625 -42.640625 23.796875 -41.6875 C 27.964844 -39.777344 31.785156 -37.082031 34.304688 -33.347656 C 34.390625 -33.347656 34.390625 -33.261719 34.476562 -33.261719 C 35 -29.179688 36.476562 -23.449219 40.730469 -24.492188 C 41.945312 -24.839844 42.640625 -26.140625 42.292969 -27.269531 C 42.035156 -28.746094 41.6875 -30.050781 41.597656 -31.523438 Z M 41.597656 -31.523438 "/></g></g></g><g fill="#d6cfce" fill-opacity="1"><g transform="translate(144.115267, 163.976818)"><g><path d="M 37.691406 0.261719 C 39.339844 0.261719 40.730469 -0.78125 41.6875 -2.085938 C 40.992188 -12.765625 40.035156 -23.535156 38.300781 -34.128906 C 37.519531 -39.339844 36.648438 -44.640625 35.257812 -49.675781 C 34.824219 -51.328125 34.304688 -52.976562 33.957031 -54.625 C 33.785156 -54.800781 33.609375 -54.972656 33.347656 -55.0625 C 31.871094 -56.101562 29.265625 -56.277344 28.226562 -54.367188 C 28.226562 -54.277344 28.136719 -54.277344 28.136719 -54.191406 C 27.53125 -53.84375 27.007812 -53.238281 26.660156 -52.628906 C 25.707031 -50.890625 26.488281 -49.242188 26.921875 -47.59375 C 27.789062 -44.464844 28.3125 -41.339844 28.917969 -38.210938 C 29.703125 -33.785156 30.65625 -29.179688 31.089844 -24.839844 L 29.703125 -27.53125 C 29.703125 -27.789062 29.703125 -28.050781 29.527344 -28.398438 C 27.789062 -31.960938 25.96875 -35.433594 23.96875 -38.820312 C 21.625 -43.074219 19.191406 -47.246094 16.242188 -51.152344 C 14.589844 -53.324219 9.640625 -58.449219 6.949219 -54.886719 C 6.511719 -54.277344 6.253906 -53.585938 6.253906 -52.890625 C 5.644531 -52.800781 5.035156 -52.457031 4.601562 -52.109375 C 4.34375 -48.375 4.515625 -44.550781 4.601562 -40.730469 C 4.777344 -34.824219 4.863281 -28.832031 5.125 -22.925781 C 5.382812 -15.632812 5.644531 -8.335938 6.078125 -1.042969 C 6.6875 -0.261719 7.46875 0.347656 8.511719 0.609375 C 10.421875 1.214844 12.417969 0.519531 13.460938 -1.214844 C 17.023438 -1.738281 16.066406 -6.773438 15.980469 -9.464844 C 15.894531 -12.941406 15.804688 -16.414062 15.632812 -19.886719 C 15.632812 -25.792969 15.71875 -31.699219 15.632812 -37.605469 C 16.066406 -36.996094 16.5 -36.300781 17.023438 -35.695312 L 32.132812 -8.683594 L 32.652344 -5.730469 C 33.089844 -3.472656 33.609375 -0.78125 35.953125 0.261719 C 36.476562 0.519531 37.171875 0.609375 37.691406 0.261719 Z M 42.554688 -2.953125 C 42.640625 -4.167969 42.554688 -6.078125 42.46875 -6.6875 C 42.554688 -22.058594 40.644531 -37.429688 37.519531 -52.542969 C 37.34375 -53.410156 36.300781 -53.410156 35.867188 -52.890625 C 35.519531 -52.542969 35.519531 -52.195312 35.605469 -51.933594 C 39.167969 -35.78125 41.078125 -19.28125 42.207031 -2.691406 C 42.292969 -2.867188 42.382812 -2.953125 42.554688 -2.953125 Z M 4.515625 -9.292969 C 4.863281 -5.558594 5.210938 -5.730469 5.210938 -5.730469 L 4.429688 -25.273438 C 4.253906 -31.351562 4.082031 -37.429688 3.996094 -43.421875 C 3.90625 -46.203125 3.820312 -48.980469 3.90625 -51.761719 C 3.300781 -50.371094 3.125 -48.722656 3.214844 -47.246094 C 3.300781 -40.992188 3.386719 -34.738281 3.648438 -28.574219 C 3.90625 -22.320312 3.996094 -15.457031 4.515625 -9.292969 Z M 14.242188 -13.546875 C 14.328125 -12.507812 14.417969 -11.550781 14.417969 -10.507812 C 14.589844 -8.773438 14.675781 -7.035156 14.765625 -5.382812 C 14.851562 -4.601562 14.589844 -3.300781 14.070312 -2.433594 C 14.589844 -4.601562 13.722656 -6.601562 13.722656 -7.988281 L 13.808594 -13.199219 C 13.894531 -13.289062 13.980469 -13.289062 13.980469 -13.289062 Z M 14.242188 -13.546875 "/></g></g></g><g fill="#d6cfce" fill-opacity="1"><g transform="translate(180.501102, 163.976818)"><g><path d="M 44.292969 -3.386719 C 46.375 -3.996094 46.117188 -6.601562 45.769531 -8.335938 C 44.898438 -11.722656 43.769531 -15.023438 42.292969 -18.238281 C 39.429688 -24.839844 35.171875 -30.742188 29.875 -35.695312 C 29.355469 -36.214844 28.484375 -35.605469 28.574219 -35 C 28.136719 -35.347656 27.789062 -35.695312 27.355469 -36.042969 L 29.613281 -37.257812 C 35.171875 -40.382812 40.90625 -43.859375 43.945312 -49.589844 C 44.464844 -50.632812 43.25 -51.585938 42.382812 -50.890625 L 42.121094 -50.632812 C 42.121094 -52.019531 41.425781 -53.324219 40.035156 -53.671875 C 38.300781 -54.191406 36.390625 -52.628906 35 -51.847656 C 28.226562 -47.9375 19.714844 -43.769531 12.507812 -40.644531 C 12.332031 -43.859375 12.246094 -46.984375 12.160156 -50.199219 L 12.160156 -50.804688 C 12.160156 -50.804688 12.070312 -50.890625 12.070312 -50.804688 C 11.464844 -47.15625 11.03125 -43.511719 10.683594 -39.777344 C 10.421875 -39.6875 10.246094 -39.515625 9.988281 -39.253906 L 10.246094 -47.070312 C 10.335938 -49.066406 10.246094 -51.152344 10.769531 -52.890625 C 12.417969 -57.578125 5.296875 -60.445312 2.953125 -56.191406 C 2.777344 -55.84375 2.605469 -55.582031 2.519531 -55.234375 C 0.695312 -54.800781 0.519531 -52.714844 0.609375 -51.152344 C 0.609375 -49.589844 0.695312 -48.027344 0.695312 -46.460938 C 0.957031 -40.46875 1.214844 -34.566406 1.648438 -28.660156 C 2.085938 -22.753906 2.777344 -16.847656 3.472656 -10.941406 C 3.734375 -8.335938 3.734375 -5.730469 4.777344 -3.300781 C 5.644531 -1.390625 7.730469 -0.171875 9.726562 -0.433594 C 12.160156 0.433594 14.765625 -0.0859375 16.847656 -1.824219 C 17.457031 -2.34375 17.542969 -3.214844 17.371094 -3.90625 C 17.023438 -5.90625 16.242188 -7.816406 15.804688 -9.464844 C 15.457031 -11.375 15.023438 -13.289062 14.765625 -15.199219 C 14.15625 -20.0625 13.636719 -24.925781 13.199219 -29.703125 C 13.808594 -29.960938 14.503906 -30.222656 15.285156 -30.570312 L 16.675781 -31.089844 C 19.191406 -29.265625 21.277344 -26.921875 23.363281 -24.578125 C 28.136719 -19.367188 32.742188 -13.460938 35.953125 -6.949219 C 35.953125 -6.078125 36.128906 -5.296875 36.5625 -4.515625 C 37.257812 -3.039062 38.820312 -2.085938 40.46875 -2.085938 C 43.164062 -2.085938 44.8125 -4.34375 44.550781 -6.6875 C 44.117188 -11.722656 35.519531 -27.007812 32.21875 -31.089844 C 37.257812 -25.53125 41.078125 -19.367188 43.683594 -12.332031 C 44.292969 -10.59375 46.984375 -4.863281 44.203125 -3.734375 C 44.03125 -3.648438 44.117188 -3.300781 44.292969 -3.386719 Z M 44.292969 -3.386719 "/></g></g></g><g fill="#d6cfce" fill-opacity="1"><g transform="translate(216.01852, 163.976818)"><g><path d="M 49.503906 -33.089844 C 49.761719 -35 49.242188 -36.5625 47.851562 -37.605469 C 46.722656 -38.472656 45.507812 -39.429688 44.292969 -40.296875 C 44.117188 -40.992188 43.769531 -41.6875 43.074219 -42.207031 C 34.566406 -47.9375 25.96875 -53.84375 16.414062 -56.882812 C 16.328125 -56.882812 16.242188 -56.972656 16.152344 -56.972656 C 15.546875 -57.230469 14.9375 -57.40625 14.328125 -57.667969 C 14.15625 -57.839844 13.894531 -58.011719 13.546875 -58.011719 C 10.683594 -58.535156 5.472656 -59.664062 3.820312 -56.449219 C 2.867188 -54.453125 3.820312 -52.019531 5.472656 -50.632812 C 4.949219 -49.851562 4.34375 -49.242188 3.648438 -48.722656 C 4.34375 -45.769531 4.949219 -42.726562 5.558594 -39.777344 C 5.035156 -39.777344 4.515625 -39.777344 3.996094 -39.6875 C 1.390625 -39.6875 0.347656 -35.347656 2.777344 -33.785156 C 3.5625 -33.261719 4.515625 -32.742188 5.382812 -32.394531 L 3.386719 -32.132812 C 4.34375 -31.785156 5.296875 -31.4375 6.253906 -31.179688 C 6.601562 -31.089844 6.773438 -30.832031 6.773438 -30.570312 C 6.949219 -30.570312 7.121094 -30.570312 7.296875 -30.570312 L 7.816406 -27.53125 C 8.511719 -23.449219 9.207031 -19.367188 9.902344 -15.285156 L 10.683594 -9.554688 C 10.855469 -7.640625 10.683594 -5.558594 11.117188 -3.734375 C 11.117188 -2.777344 11.984375 -2.171875 12.679688 -2.34375 C 12.765625 -1.824219 12.941406 -1.390625 13.199219 -0.957031 C 14.242188 0.261719 15.980469 0.171875 17.109375 -0.78125 C 17.976562 -1.476562 18.585938 -2.34375 19.105469 -3.386719 C 19.105469 -3.820312 19.105469 -4.34375 19.019531 -4.863281 C 19.28125 -9.117188 18.84375 -13.546875 18.585938 -17.804688 C 18.410156 -21.796875 18.0625 -25.792969 17.628906 -29.703125 C 19.886719 -29.613281 22.234375 -29.441406 24.492188 -29.355469 C 24.925781 -28.574219 25.445312 -27.703125 25.96875 -26.921875 L 25.96875 -26.835938 C 26.488281 -25.96875 26.921875 -25.097656 27.355469 -24.144531 C 29.007812 -20.929688 31.351562 -15.199219 32.308594 -12.941406 C 34.042969 -8.945312 35.78125 -4.863281 37.34375 -0.78125 C 37.691406 -0.609375 38.210938 -0.78125 38.472656 -1.042969 C 38.472656 -0.957031 38.558594 -0.957031 38.648438 -0.957031 C 39.429688 -0.609375 40.210938 -0.609375 40.992188 -0.695312 C 42.46875 -0.0859375 44.464844 -0.519531 44.726562 -2.433594 C 45.421875 -8.078125 42.382812 -13.546875 40.035156 -18.5 C 38.210938 -22.234375 36.128906 -25.792969 33.785156 -29.265625 C 37.863281 -28.917969 41.945312 -28.574219 46.027344 -28.3125 C 47.417969 -28.136719 49.066406 -29.613281 49.242188 -31.265625 Z M 14.242188 -46.375 L 13.980469 -47.765625 C 21.449219 -46.027344 28.398438 -42.292969 35.085938 -37.691406 L 26.660156 -38.734375 C 24.664062 -40.382812 21.796875 -42.726562 19.191406 -41.078125 C 18.757812 -40.730469 18.5 -40.210938 18.410156 -39.777344 C 17.976562 -39.863281 17.457031 -39.863281 17.023438 -39.949219 C 16.675781 -41.773438 16.242188 -43.597656 15.804688 -45.421875 C 15.71875 -46.203125 14.851562 -46.203125 14.417969 -45.769531 C 14.328125 -45.941406 14.328125 -46.203125 14.242188 -46.375 Z M 20.410156 -7.296875 C 20.757812 -9.378906 21.449219 -10.246094 21.191406 -13.375 C 20.757812 -18.585938 20.320312 -23.796875 19.453125 -28.832031 L 18.757812 -28.832031 C 19.800781 -21.710938 20.0625 -14.503906 20.410156 -7.296875 Z M 20.410156 -7.296875 "/></g></g></g><g fill="#d6cfce" fill-opacity="1"><g transform="translate(67.007054, 226.079807)"><g><path d="M 41.859375 -32.914062 C 40.296875 -35.171875 37.34375 -36.214844 34.914062 -34.738281 C 32.308594 -33.261719 31.960938 -30.308594 33.089844 -27.789062 C 33.609375 -26.574219 33.695312 -25.273438 33.785156 -23.882812 C 33.871094 -20.84375 33.523438 -17.542969 31.960938 -14.765625 C 31.4375 -13.722656 30.570312 -12.679688 29.703125 -11.898438 C 27.355469 -9.8125 24.316406 -8.683594 21.105469 -8.597656 C 20.757812 -8.597656 20.320312 -8.683594 19.976562 -8.683594 C 14.328125 -9.03125 11.289062 -13.894531 9.640625 -19.019531 C 9.03125 -20.929688 8.683594 -22.925781 8.773438 -25.011719 C 8.773438 -25.445312 8.773438 -25.96875 8.859375 -26.402344 C 8.859375 -26.921875 8.945312 -26.921875 9.03125 -27.617188 C 10.421875 -35 13.636719 -40.90625 19.539062 -45.421875 C 19.976562 -45.679688 20.320312 -45.941406 20.667969 -46.203125 L 21.191406 -29.441406 C 21.277344 -26.660156 21.191406 -23.796875 22.40625 -21.105469 C 23.363281 -19.019531 25.707031 -17.542969 27.964844 -17.804688 C 29.789062 -17.976562 29.441406 -20.667969 27.617188 -20.320312 C 25.097656 -19.886719 23.882812 -22.667969 23.363281 -24.664062 L 23.363281 -24.925781 L 23.621094 -24.925781 C 23.796875 -24.402344 23.96875 -23.796875 24.316406 -23.273438 C 24.839844 -22.234375 25.621094 -21.363281 26.75 -21.015625 C 26.921875 -21.015625 27.183594 -20.929688 27.445312 -21.015625 C 27.53125 -20.84375 27.703125 -20.757812 27.964844 -20.582031 C 28.398438 -20.320312 29.09375 -20.582031 29.179688 -21.105469 C 29.441406 -22.234375 29.265625 -23.449219 29.265625 -24.664062 C 29.179688 -26.054688 29.09375 -27.53125 29.09375 -29.007812 L 28.832031 -37.257812 C 28.746094 -40.035156 28.660156 -48.546875 28.832031 -50.023438 C 28.917969 -51.328125 29.007812 -52.367188 28.484375 -53.410156 C 28.484375 -54.886719 27.355469 -56.191406 25.53125 -56.363281 C 23.449219 -56.535156 21.277344 -55.929688 19.539062 -54.886719 C 17.714844 -53.84375 15.980469 -52.714844 14.328125 -51.5 C 10.769531 -48.980469 6.949219 -45.074219 4.34375 -41.597656 C 0.433594 -36.5625 -0.867188 -30.308594 -0.957031 -23.96875 C -0.957031 -22.058594 -0.695312 -20.148438 -0.347656 -18.324219 C 1.300781 -10.683594 6.949219 -4.34375 14.070312 -1.476562 C 21.363281 1.476562 29.960938 -0.433594 35.867188 -5.210938 C 39.515625 -8.078125 41.6875 -12.679688 42.816406 -17.109375 C 44.117188 -21.972656 44.726562 -28.484375 41.859375 -32.914062 Z M 22.40625 -47.417969 C 22.144531 -44.203125 22.144531 -40.992188 22.320312 -37.777344 L 21.886719 -37.777344 C 21.625 -40.644531 21.277344 -43.511719 21.015625 -46.460938 C 21.449219 -46.722656 21.972656 -47.070312 22.40625 -47.417969 Z M 33 -27.964844 C 33 -28.050781 32.914062 -28.136719 32.914062 -28.136719 C 32.914062 -28.050781 33 -28.050781 33 -27.964844 Z M 33.089844 -27.789062 C 33.089844 -27.878906 33 -27.878906 33 -27.964844 C 33 -27.878906 33 -27.878906 33.089844 -27.789062 Z M 33.089844 -27.789062 "/></g></g></g><g fill="#d6cfce" fill-opacity="1"><g transform="translate(104.261299, 226.079807)"><g><path d="M 31.785156 -2.605469 C 33.785156 3.648438 40.210938 3.472656 39.253906 -4.34375 C 38.558594 -9.554688 37.082031 -16.585938 35.953125 -21.710938 C 40.730469 -24.75 39.777344 -32.566406 33.175781 -33.347656 C 32.566406 -38.558594 32.046875 -51.671875 31.960938 -50.804688 C 31.613281 -47.9375 31.4375 -44.898438 31.351562 -41.945312 C 31.265625 -41.945312 31.265625 -41.945312 31.179688 -42.035156 C 30.832031 -45.421875 30.484375 -48.980469 30.222656 -52.457031 C 29.960938 -55.234375 28.136719 -56.972656 25.621094 -57.144531 C 24.925781 -58.535156 23.1875 -59.578125 21.710938 -59.488281 C 17.28125 -59.402344 15.546875 -54.019531 13.980469 -50.632812 C 11.722656 -45.246094 10.335938 -39.601562 9.117188 -33.871094 C -1.214844 -32.308594 -1.214844 -22.839844 4.34375 -21.449219 C 4.429688 -21.191406 4.34375 -20.84375 4.253906 -20.667969 C 4.949219 -20.667969 5.820312 -20.757812 6.601562 -20.84375 C 5.296875 -15.804688 4.429688 -10.769531 3.734375 -5.644531 C 2.605469 2.519531 13.375 3.734375 14.070312 -4.167969 L 14.589844 -8.078125 C 14.589844 -8.078125 16.066406 -16.933594 17.195312 -21.191406 L 17.976562 -21.191406 C 16.328125 -16.066406 15.546875 -10.769531 15.109375 -5.558594 C 15.023438 -4.515625 16.5 -4.515625 16.5 -5.558594 C 16.933594 -10.855469 17.890625 -15.980469 19.191406 -21.191406 L 25.96875 -21.277344 C 26.660156 -18.152344 30.136719 -3.214844 31.785156 -2.605469 Z M 18.933594 -32.480469 C 19.714844 -36.5625 20.757812 -40.035156 22.144531 -44.898438 C 23.015625 -40.90625 23.449219 -35 23.796875 -32.828125 C 22.582031 -32.742188 20.148438 -32.652344 18.933594 -32.480469 Z M 18.933594 -32.480469 "/></g></g></g><g fill="#d6cfce" fill-opacity="1"><g transform="translate(137.17346, 226.079807)"><g><path d="M 49.503906 -33.089844 C 49.761719 -35 49.242188 -36.5625 47.851562 -37.605469 C 46.722656 -38.472656 45.507812 -39.429688 44.292969 -40.296875 C 44.117188 -40.992188 43.769531 -41.6875 43.074219 -42.207031 C 34.566406 -47.9375 25.96875 -53.84375 16.414062 -56.882812 C 16.328125 -56.882812 16.242188 -56.972656 16.152344 -56.972656 C 15.546875 -57.230469 14.9375 -57.40625 14.328125 -57.667969 C 14.15625 -57.839844 13.894531 -58.011719 13.546875 -58.011719 C 10.683594 -58.535156 5.472656 -59.664062 3.820312 -56.449219 C 2.867188 -54.453125 3.820312 -52.019531 5.472656 -50.632812 C 4.949219 -49.851562 4.34375 -49.242188 3.648438 -48.722656 C 4.34375 -45.769531 4.949219 -42.726562 5.558594 -39.777344 C 5.035156 -39.777344 4.515625 -39.777344 3.996094 -39.6875 C 1.390625 -39.6875 0.347656 -35.347656 2.777344 -33.785156 C 3.5625 -33.261719 4.515625 -32.742188 5.382812 -32.394531 L 3.386719 -32.132812 C 4.34375 -31.785156 5.296875 -31.4375 6.253906 -31.179688 C 6.601562 -31.089844 6.773438 -30.832031 6.773438 -30.570312 C 6.949219 -30.570312 7.121094 -30.570312 7.296875 -30.570312 L 7.816406 -27.53125 C 8.511719 -23.449219 9.207031 -19.367188 9.902344 -15.285156 L 10.683594 -9.554688 C 10.855469 -7.640625 10.683594 -5.558594 11.117188 -3.734375 C 11.117188 -2.777344 11.984375 -2.171875 12.679688 -2.34375 C 12.765625 -1.824219 12.941406 -1.390625 13.199219 -0.957031 C 14.242188 0.261719 15.980469 0.171875 17.109375 -0.78125 C 17.976562 -1.476562 18.585938 -2.34375 19.105469 -3.386719 C 19.105469 -3.820312 19.105469 -4.34375 19.019531 -4.863281 C 19.28125 -9.117188 18.84375 -13.546875 18.585938 -17.804688 C 18.410156 -21.796875 18.0625 -25.792969 17.628906 -29.703125 C 19.886719 -29.613281 22.234375 -29.441406 24.492188 -29.355469 C 24.925781 -28.574219 25.445312 -27.703125 25.96875 -26.921875 L 25.96875 -26.835938 C 26.488281 -25.96875 26.921875 -25.097656 27.355469 -24.144531 C 29.007812 -20.929688 31.351562 -15.199219 32.308594 -12.941406 C 34.042969 -8.945312 35.78125 -4.863281 37.34375 -0.78125 C 37.691406 -0.609375 38.210938 -0.78125 38.472656 -1.042969 C 38.472656 -0.957031 38.558594 -0.957031 38.648438 -0.957031 C 39.429688 -0.609375 40.210938 -0.609375 40.992188 -0.695312 C 42.46875 -0.0859375 44.464844 -0.519531 44.726562 -2.433594 C 45.421875 -8.078125 42.382812 -13.546875 40.035156 -18.5 C 38.210938 -22.234375 36.128906 -25.792969 33.785156 -29.265625 C 37.863281 -28.917969 41.945312 -28.574219 46.027344 -28.3125 C 47.417969 -28.136719 49.066406 -29.613281 49.242188 -31.265625 Z M 14.242188 -46.375 L 13.980469 -47.765625 C 21.449219 -46.027344 28.398438 -42.292969 35.085938 -37.691406 L 26.660156 -38.734375 C 24.664062 -40.382812 21.796875 -42.726562 19.191406 -41.078125 C 18.757812 -40.730469 18.5 -40.210938 18.410156 -39.777344 C 17.976562 -39.863281 17.457031 -39.863281 17.023438 -39.949219 C 16.675781 -41.773438 16.242188 -43.597656 15.804688 -45.421875 C 15.71875 -46.203125 14.851562 -46.203125 14.417969 -45.769531 C 14.328125 -45.941406 14.328125 -46.203125 14.242188 -46.375 Z M 20.410156 -7.296875 C 20.757812 -9.378906 21.449219 -10.246094 21.191406 -13.375 C 20.757812 -18.585938 20.320312 -23.796875 19.453125 -28.832031 L 18.757812 -28.832031 C 19.800781 -21.710938 20.0625 -14.503906 20.410156 -7.296875 Z M 20.410156 -7.296875 "/></g></g></g><g fill="#d6cfce" fill-opacity="1"><g transform="translate(180.506627, 226.079807)"><g><path d="M 49.589844 -51.152344 C 51.671875 -52.019531 51.761719 -55.320312 49.761719 -56.449219 C 49.589844 -56.625 49.414062 -56.710938 49.242188 -56.796875 C 49.414062 -56.882812 49.675781 -56.882812 49.851562 -56.882812 C 50.71875 -57.058594 50.457031 -58.535156 49.675781 -58.449219 C 48.375 -58.273438 47.070312 -58.1875 45.769531 -58.011719 C 45.246094 -58.101562 44.726562 -58.011719 44.292969 -58.011719 C 43.421875 -57.925781 42.554688 -57.839844 41.597656 -57.667969 C 29.527344 -56.625 17.371094 -56.363281 5.210938 -57.058594 C 4.949219 -57.144531 4.863281 -56.625 5.125 -56.625 C 9.8125 -55.84375 14.503906 -55.320312 19.191406 -55.0625 C 19.191406 -54.972656 19.105469 -54.886719 19.105469 -54.800781 C 14.328125 -54.800781 9.640625 -55.148438 4.863281 -55.582031 C 2.953125 -55.753906 1.214844 -54.105469 0.695312 -52.367188 C 0.171875 -50.285156 1.214844 -48.199219 2.953125 -47.246094 C 3.472656 -45.855469 4.601562 -44.640625 5.730469 -43.859375 C 7.296875 -42.902344 9.207031 -42.640625 11.03125 -42.382812 C 13.289062 -42.207031 15.632812 -42.121094 17.976562 -42.121094 C 19.105469 -42.121094 20.234375 -42.121094 21.363281 -42.121094 L 21.363281 -39.339844 L 21.191406 -35.519531 C 21.015625 -31.003906 20.757812 -26.488281 20.496094 -22.058594 C 20.320312 -17.628906 20.234375 -13.113281 20.496094 -8.683594 C 20.667969 -5.296875 21.449219 -1.300781 25.097656 -0.171875 C 26.921875 0.347656 29.09375 -0.695312 29.703125 -2.605469 C 30.308594 -4.34375 30.394531 -6.773438 30.742188 -8.335938 L 30.742188 -5.035156 C 30.65625 -3.820312 30.65625 -2.605469 30.570312 -1.390625 L 30.570312 -1.214844 C 32.132812 -2.433594 32.480469 -4.515625 32.652344 -6.601562 C 32.566406 -9.640625 32.394531 -12.679688 32.308594 -15.71875 C 32.308594 -21.015625 32.21875 -26.316406 32.21875 -31.613281 C 32.21875 -35.433594 32.308594 -39.253906 32.308594 -43.074219 C 36.734375 -43.683594 41.078125 -44.464844 45.507812 -45.332031 C 45.769531 -45.332031 45.941406 -45.507812 46.117188 -45.679688 C 46.550781 -45.769531 47.070312 -45.941406 47.417969 -46.203125 C 48.808594 -47.15625 49.15625 -48.722656 49.242188 -50.285156 C 49.414062 -50.542969 49.503906 -50.804688 49.589844 -51.152344 Z M 11.03125 -44.464844 C 8.945312 -44.550781 6.6875 -45.160156 5.296875 -46.460938 C 8.683594 -45.421875 12.160156 -44.8125 15.632812 -44.464844 C 14.070312 -44.378906 12.507812 -44.378906 11.03125 -44.464844 Z M 11.03125 -44.464844 "/></g></g></g><g fill="#d6cfce" fill-opacity="1"><g transform="translate(222.971384, 226.079807)"><g><path d="M 1.996094 -45.855469 C 1.824219 -45.679688 1.824219 -45.421875 1.996094 -45.332031 C 3.90625 -46.203125 5.820312 -46.984375 7.816406 -47.59375 C 13.546875 -49.589844 19.453125 -50.890625 25.359375 -52.195312 C 28.746094 -52.976562 32.21875 -53.84375 35.605469 -54.714844 C 34.824219 -54.714844 34.042969 -54.714844 33.261719 -54.625 C 29.527344 -54.367188 25.96875 -53.671875 22.40625 -52.976562 L 20.410156 -52.457031 C 14.15625 -50.804688 7.730469 -48.894531 1.996094 -45.855469 Z M 50.71875 -10.507812 C 51.761719 -11.289062 52.457031 -12.507812 52.367188 -14.070312 C 52.019531 -19.019531 50.371094 -26.660156 43.683594 -25.273438 C 42.726562 -25.011719 41.859375 -24.578125 40.90625 -24.316406 L 37.519531 -23.273438 C 35.433594 -22.582031 33.347656 -21.796875 31.265625 -21.015625 C 29.960938 -20.582031 28.660156 -20.0625 27.355469 -19.539062 L 19.976562 -16.675781 C 18.0625 -15.894531 16.152344 -15.109375 14.242188 -14.242188 L 13.980469 -14.070312 C 13.980469 -14.242188 13.980469 -14.328125 13.980469 -14.417969 L 13.460938 -20.0625 C 15.894531 -21.277344 18.238281 -22.492188 20.757812 -23.535156 C 24.839844 -25.273438 28.917969 -26.574219 33.089844 -27.703125 C 35.171875 -28.226562 37.34375 -28.660156 39.429688 -29.007812 C 41.425781 -29.441406 43.335938 -29.355469 45.160156 -30.222656 C 46.722656 -31.003906 47.765625 -32.914062 47.417969 -34.566406 C 47.246094 -35.433594 46.722656 -36.300781 45.941406 -36.734375 C 45.855469 -36.734375 45.855469 -36.734375 45.769531 -36.824219 C 45.679688 -37.171875 45.507812 -37.519531 45.332031 -37.863281 C 45.246094 -38.039062 45.160156 -38.300781 44.988281 -38.558594 C 43.769531 -40.644531 41.6875 -40.730469 39.515625 -40.644531 C 38.472656 -40.558594 37.519531 -40.46875 36.476562 -40.296875 L 35.347656 -40.035156 C 32.566406 -39.253906 29.703125 -38.472656 26.921875 -37.777344 C 21.972656 -35.953125 17.195312 -33.871094 12.332031 -31.785156 C 12.332031 -32.21875 11.8125 -35.347656 11.722656 -36.214844 L 11.898438 -36.390625 C 14.589844 -37.519531 17.371094 -38.558594 20.148438 -39.515625 C 21.105469 -39.949219 29.703125 -42.554688 34.128906 -43.769531 C 34.304688 -43.769531 34.476562 -43.859375 34.652344 -43.945312 C 36.648438 -44.464844 38.648438 -45.074219 40.558594 -45.679688 L 44.898438 -46.984375 C 45.246094 -48.722656 44.988281 -50.542969 44.378906 -52.367188 C 43.945312 -52.714844 43.421875 -53.148438 42.988281 -53.496094 L 41.597656 -54.019531 C 41.078125 -54.191406 40.46875 -54.277344 39.863281 -54.367188 C 35.347656 -53.148438 30.832031 -51.933594 26.226562 -50.890625 C 20.320312 -49.675781 14.417969 -48.375 8.683594 -46.375 C 6.859375 -45.769531 4.949219 -45.074219 3.125 -44.292969 C 3.039062 -44.03125 2.867188 -43.769531 2.777344 -43.597656 C 1.5625 -42.554688 0.78125 -41.253906 0.609375 -39.515625 C 0.433594 -38.039062 0.957031 -36.390625 1.996094 -35.257812 L 3.039062 -25.359375 L 4.082031 -14.9375 C 4.34375 -11.898438 4.515625 -8.773438 5.035156 -5.820312 C 4.253906 -3.5625 5.730469 -0.957031 7.902344 -0.0859375 C 7.816406 0.347656 7.816406 0.695312 7.988281 1.128906 C 8.683594 2.605469 10.246094 2.691406 11.636719 2.433594 C 11.984375 2.433594 12.507812 2.34375 12.507812 2.34375 C 12.417969 2.433594 17.371094 0.957031 18.410156 0.261719 L 18.5 0.171875 C 19.453125 -0.261719 20.410156 -0.609375 21.363281 -1.042969 C 21.539062 -1.128906 21.796875 -1.214844 21.972656 -1.300781 L 22.058594 -1.300781 C 24.925781 -2.519531 27.878906 -3.5625 30.832031 -4.601562 C 36.996094 -6.773438 43.421875 -8.425781 49.851562 -9.640625 C 50.371094 -9.726562 50.632812 -10.074219 50.71875 -10.507812 Z M 29.703125 -28.917969 L 29.789062 -28.660156 C 29.265625 -28.484375 28.832031 -28.3125 28.3125 -28.050781 C 23.96875 -26.316406 19.453125 -24.664062 15.199219 -22.492188 C 15.894531 -23.101562 16.414062 -23.96875 16.585938 -24.925781 C 18.238281 -25.359375 19.886719 -25.878906 21.625 -26.402344 C 24.316406 -27.269531 27.007812 -28.050781 29.703125 -28.917969 Z M 10.507812 1.128906 C 12.246094 0.695312 13.894531 0 15.546875 -0.609375 C 17.195312 -1.128906 18.757812 -1.738281 20.320312 -2.34375 L 20.320312 -2.171875 C 19.019531 -1.476562 17.714844 -0.78125 16.328125 -0.0859375 C 15.71875 0.261719 15.023438 0.609375 14.328125 0.957031 C 14.242188 1.042969 14.15625 1.042969 14.070312 1.042969 C 13.808594 1.128906 11.8125 1.300781 10.507812 1.128906 Z M 10.507812 1.128906 "/></g></g></g><g fill="#d6cfce" fill-opacity="1"><g transform="translate(267.172962, 226.079807)"><g><path d="M 38.558594 -2.519531 C 41.078125 -2.257812 42.726562 -5.472656 41.511719 -7.554688 C 41.164062 -8.078125 40.816406 -8.511719 40.46875 -8.945312 C 40.558594 -9.378906 40.644531 -9.902344 40.644531 -10.335938 C 40.644531 -11.636719 39.6875 -12.59375 38.734375 -13.289062 C 37.691406 -14.070312 36.214844 -14.242188 34.914062 -14.328125 C 33.261719 -14.417969 31.523438 -14.328125 29.789062 -14.328125 C 25.53125 -14.242188 21.191406 -13.722656 17.109375 -12.679688 C 17.109375 -12.851562 17.195312 -12.941406 17.195312 -13.199219 L 17.195312 -13.375 C 17.109375 -13.289062 17.023438 -13.289062 17.023438 -13.289062 L 16.761719 -17.714844 C 16.585938 -22.320312 16.328125 -26.921875 15.980469 -31.523438 C 15.632812 -35.867188 15.285156 -40.296875 14.851562 -44.726562 C 14.417969 -48.375 14.328125 -52.542969 11.984375 -55.582031 C 11.898438 -55.84375 11.550781 -55.667969 11.636719 -55.40625 C 12.59375 -53.671875 12.851562 -51.761719 12.941406 -49.851562 C 13.027344 -48.375 13.199219 -45.160156 13.113281 -43.074219 L 12.679688 -45.59375 C 12.246094 -48.722656 11.722656 -51.847656 11.117188 -54.972656 C 10.421875 -55.496094 9.640625 -55.753906 8.859375 -55.929688 C 8.164062 -56.277344 7.296875 -56.625 6.425781 -56.710938 C 3.734375 -57.144531 1.214844 -55.582031 1.476562 -52.714844 C 1.996094 -44.550781 2.867188 -36.390625 3.648438 -28.136719 C 4.082031 -24.054688 4.515625 -19.886719 5.035156 -15.804688 C 4.949219 -12.417969 4.949219 -9.03125 4.777344 -5.644531 C 4.777344 -4.777344 4.691406 -3.996094 4.691406 -3.125 C 4.515625 -0.867188 6.949219 0.78125 9.03125 0.261719 C 18.671875 -2.34375 28.660156 -3.214844 38.558594 -2.519531 Z M 3.300781 -49.761719 C 3.214844 -51.414062 2.34375 -54.105469 4.34375 -54.886719 C 4.777344 -55.0625 5.296875 -55.148438 5.644531 -55.148438 C 5.472656 -54.886719 5.296875 -54.539062 5.210938 -54.277344 L 4.949219 -51.328125 C 4.253906 -49.066406 4.691406 -46.027344 4.777344 -43.945312 C 4.863281 -39.6875 4.949219 -35.433594 5.035156 -31.179688 L 5.035156 -26.402344 C 4.601562 -32.566406 4.253906 -38.734375 3.734375 -44.988281 C 3.5625 -46.550781 3.472656 -48.199219 3.300781 -49.761719 Z M 37.082031 1.042969 C 38.210938 1.128906 38.210938 -0.78125 37.082031 -0.867188 C 32.132812 -0.957031 27.183594 -0.78125 22.234375 -0.347656 C 20.0625 -0.171875 17.890625 0.0859375 15.632812 0.347656 C 13.375 0.695312 10.769531 0.867188 8.773438 1.824219 C 8.683594 1.910156 8.683594 1.996094 8.773438 1.996094 C 11.03125 2.257812 13.546875 1.5625 15.804688 1.390625 C 18.152344 1.128906 20.496094 0.957031 22.839844 0.867188 C 27.617188 0.609375 32.308594 0.695312 37.082031 1.042969 Z M 37.082031 1.042969 "/></g></g></g></svg>