<svg xmlns="http://www.w3.org/2000/svg" xmlns:xlink="http://www.w3.org/1999/xlink" width="500" zoomAndPan="magnify" viewBox="0 0 375 374.999991" height="500" preserveAspectRatio="xMidYMid meet" version="1.0"><defs><clipPath id="a552486f08"><path d="M 292 130.121094 L 335 130.121094 L 335 215 L 292 215 Z M 292 130.121094 " clip-rule="nonzero"/></clipPath></defs><path fill="#e4e2dd" d="M 38.457031 183.292969 C 35.359375 177.71875 29.375 174.414062 24.214844 170.90625 C 21.53125 169.046875 18.226562 166.984375 16.574219 164.09375 C 14.71875 160.792969 15.335938 156.457031 16.371094 153.152344 C 18.847656 145.515625 25.246094 139.734375 32.058594 135.8125 C 33.914062 134.78125 32.46875 131.890625 30.613281 132.925781 C 24.625 136.433594 19.054688 141.179688 15.542969 147.375 C 12.035156 153.566406 10.382812 162.03125 15.75 167.808594 C 20.085938 172.765625 26.484375 175.242188 31.4375 179.574219 C 33.710938 181.433594 35.773438 183.910156 36.804688 186.59375 C 38.042969 189.898438 37.632812 193.613281 36.1875 196.710938 C 32.46875 204.757812 23.800781 208.476562 15.75 210.746094 C 13.6875 211.570312 14.511719 214.460938 16.574219 214.046875 C 23.800781 211.984375 31.4375 208.886719 36.1875 202.902344 C 40.519531 197.121094 42.171875 189.691406 38.457031 183.292969 Z M 38.457031 183.292969 " fill-opacity="1" fill-rule="nonzero"/><path fill="#e4e2dd" d="M 91.09375 153.566406 C 88.824219 173.175781 86.554688 192.582031 84.078125 212.191406 C 78.089844 196.914062 72.308594 181.640625 66.738281 166.160156 C 64.878906 161.203125 63.226562 156.25 61.371094 151.296875 C 60.75 149.644531 58.480469 149.851562 58.273438 151.707031 C 57.035156 169.667969 56.210938 187.832031 56.003906 205.792969 C 56.003906 210.953125 56.003906 215.90625 56.003906 221.066406 C 56.003906 223.132812 59.097656 223.132812 59.097656 221.066406 C 58.894531 202.902344 59.304688 184.941406 60.335938 166.777344 C 60.542969 164.09375 60.75 161.617188 60.75 158.933594 C 66.117188 174.003906 71.484375 189.277344 77.265625 204.140625 C 79.121094 209.09375 81.1875 214.046875 83.042969 219.003906 C 83.664062 220.65625 85.933594 220.449219 86.140625 218.589844 C 88.617188 196.914062 91.300781 175.242188 93.777344 153.359375 C 94.398438 151.707031 91.300781 151.707031 91.09375 153.566406 Z M 91.09375 153.566406 " fill-opacity="1" fill-rule="nonzero"/><path fill="#e4e2dd" d="M 140.84375 197.742188 C 131.554688 197.949219 122.265625 198.566406 112.976562 199.394531 C 112.5625 189.484375 112.355469 179.574219 112.148438 169.667969 C 120.820312 169.460938 129.28125 169.046875 137.953125 168.84375 C 140.015625 168.84375 140.015625 165.539062 137.953125 165.746094 C 129.28125 165.953125 120.820312 166.363281 112.148438 166.570312 C 111.945312 156.664062 112.148438 146.753906 112.148438 136.847656 C 120.40625 136.433594 128.871094 136.019531 137.332031 136.019531 C 139.398438 136.019531 139.398438 132.925781 137.332031 132.925781 C 128.664062 132.925781 119.992188 133.335938 111.324219 133.957031 C 110.5 133.542969 109.261719 133.957031 109.261719 135.195312 C 108.847656 157.28125 109.261719 179.164062 110.085938 201.25 C 110.085938 201.871094 110.292969 202.078125 110.703125 202.488281 C 110.910156 202.902344 111.324219 203.109375 111.945312 203.109375 C 121.644531 202.078125 131.347656 201.457031 141.050781 201.25 C 142.90625 200.632812 142.90625 197.535156 140.84375 197.742188 Z M 140.84375 197.742188 " fill-opacity="1" fill-rule="nonzero"/><path fill="#e4e2dd" d="M 278.113281 217.972656 C 268.824219 218.175781 259.535156 218.796875 250.246094 219.621094 C 249.835938 209.714844 249.628906 199.804688 249.421875 189.898438 C 258.089844 189.691406 266.554688 189.277344 275.222656 189.070312 C 277.289062 189.070312 277.289062 185.769531 275.222656 185.976562 C 266.554688 186.179688 258.089844 186.59375 249.421875 186.800781 C 249.214844 176.890625 249.421875 166.984375 249.421875 157.074219 C 257.679688 156.664062 266.140625 156.25 274.605469 156.25 C 276.667969 156.25 276.667969 153.152344 274.605469 153.152344 C 265.933594 153.152344 257.265625 153.566406 248.597656 154.1875 C 247.769531 153.773438 246.53125 154.1875 246.53125 155.425781 C 246.117188 177.511719 246.53125 199.394531 247.355469 221.480469 C 247.355469 222.097656 247.5625 222.304688 247.976562 222.71875 C 248.183594 223.132812 248.597656 223.335938 249.214844 223.335938 C 258.917969 222.304688 268.617188 221.6875 278.320312 221.480469 C 280.179688 221.066406 280.179688 217.972656 278.113281 217.972656 Z M 278.113281 217.972656 " fill-opacity="1" fill-rule="nonzero"/><path fill="#e4e2dd" d="M 174.078125 168.015625 C 172.839844 162.855469 171.601562 157.695312 170.15625 152.535156 C 169.742188 150.882812 167.679688 151.089844 167.058594 152.535156 C 161.484375 169.875 157.5625 187.832031 154.054688 205.585938 C 153.023438 210.746094 152.195312 215.699219 151.164062 220.859375 C 150.75 222.925781 153.847656 223.75 154.261719 221.6875 C 155.707031 214.046875 157.148438 206.617188 158.59375 198.980469 C 164.996094 199.394531 171.601562 199.804688 178 200.425781 C 178.410156 202.902344 179.03125 205.171875 179.648438 207.648438 C 180.683594 212.808594 181.714844 217.972656 182.746094 223.132812 C 183.160156 225.195312 186.050781 224.371094 185.84375 222.304688 C 182.332031 204.347656 178.410156 186.179688 174.078125 168.015625 Z M 159.421875 196.089844 C 161.277344 186.800781 163.34375 177.511719 165.820312 168.429688 C 166.644531 165.332031 167.679688 162.238281 168.503906 159.140625 C 171.804688 171.9375 174.695312 184.738281 177.378906 197.535156 C 171.394531 196.914062 165.40625 196.296875 159.421875 196.089844 Z M 159.421875 196.089844 " fill-opacity="1" fill-rule="nonzero"/><path fill="#e4e2dd" d="M 234.765625 201.457031 C 228.160156 192.375 219.902344 184.941406 212.058594 177.304688 C 209.996094 175.449219 208.136719 173.382812 206.074219 171.320312 C 205.246094 170.492188 204.214844 169.460938 203.390625 168.429688 C 202.976562 168.015625 202.355469 167.601562 202.152344 166.984375 C 201.945312 166.363281 202.355469 165.746094 202.769531 165.332031 C 206.484375 160.585938 210.199219 155.835938 213.710938 151.089844 C 217.632812 145.515625 221.554688 139.941406 225.269531 134.164062 C 226.300781 132.511719 223.617188 130.859375 222.585938 132.511719 C 215.773438 143.246094 208.34375 153.359375 200.5 163.269531 C 200.085938 163.679688 199.671875 164.300781 199.46875 164.714844 C 199.46875 159.347656 199.46875 154.1875 199.46875 148.820312 L 199.46875 132.71875 C 199.46875 130.652344 196.371094 130.652344 196.371094 132.71875 L 196.164062 189.070312 L 196.164062 205.171875 C 196.164062 207.238281 199.261719 207.238281 199.261719 205.171875 C 199.261719 192.992188 199.46875 180.609375 199.46875 168.429688 C 199.878906 169.046875 200.292969 169.460938 200.707031 170.082031 C 202.5625 172.351562 204.835938 174.414062 206.898438 176.480469 C 211.027344 180.609375 215.15625 184.324219 219.285156 188.453125 C 223.824219 192.992188 228.367188 197.742188 232.289062 203.109375 C 233.320312 204.554688 236.003906 202.902344 234.765625 201.457031 Z M 234.765625 201.457031 " fill-opacity="1" fill-rule="nonzero"/><g clip-path="url(#a552486f08)"><path fill="#e4e2dd" d="M 334.46875 206.617188 C 323.527344 195.46875 312.585938 184.324219 299.582031 175.242188 C 303.089844 174.003906 306.601562 172.558594 309.285156 169.875 C 311.140625 168.222656 312.585938 166.160156 314.03125 164.300781 C 315.476562 162.238281 316.921875 160.171875 317.953125 157.902344 C 319.8125 153.773438 320.636719 149.230469 319.605469 144.691406 C 318.78125 140.5625 316.300781 136.640625 313 133.957031 C 309.695312 131.480469 305.15625 130.242188 301.027344 130.859375 C 298.964844 131.066406 296.691406 131.890625 294.835938 132.925781 C 294.007812 133.542969 292.976562 134.164062 292.5625 135.195312 C 291.945312 136.433594 292.152344 137.878906 292.152344 139.117188 C 292.5625 150.675781 293.390625 162.03125 294.214844 173.589844 C 295.246094 186.59375 296.28125 199.597656 297.519531 212.605469 C 297.722656 214.667969 300.820312 214.667969 300.613281 212.605469 C 299.582031 201.042969 298.550781 189.484375 297.722656 178.132812 C 310.316406 187.007812 321.257812 197.949219 331.992188 209.09375 C 333.640625 210.332031 335.914062 208.0625 334.46875 206.617188 Z M 296.484375 135.609375 C 299.789062 133.542969 303.917969 133.335938 307.632812 134.371094 C 315.269531 136.847656 318.78125 145.722656 316.714844 153.152344 C 315.269531 157.902344 312.175781 162.441406 308.871094 166.160156 C 305.980469 169.460938 301.851562 171.113281 297.722656 172.558594 C 297.105469 165.125 296.484375 157.488281 296.074219 149.851562 C 295.867188 147.167969 295.867188 144.691406 295.660156 142.007812 C 295.660156 140.769531 295.453125 139.324219 295.453125 138.085938 C 295.453125 137.054688 295.246094 136.433594 296.484375 135.609375 Z M 296.484375 135.609375 " fill-opacity="1" fill-rule="nonzero"/></g><path fill="#e4e2dd" d="M 359.652344 182.464844 C 353.046875 173.796875 336.945312 168.636719 340.246094 155.21875 C 342.3125 146.960938 349.125 140.148438 356.140625 136.019531 C 357.792969 134.988281 356.347656 132.304688 354.492188 133.335938 C 343.34375 139.734375 330.339844 155.835938 339.835938 168.636719 C 343.34375 173.175781 348.503906 176.273438 352.839844 179.988281 C 354.902344 181.847656 356.96875 183.910156 358.414062 186.179688 C 360.269531 189.484375 360.683594 193.199219 360.476562 196.914062 C 359.445312 205.792969 353.253906 213.015625 347.265625 219.003906 C 345.820312 220.449219 348.09375 222.71875 349.535156 221.273438 C 354.902344 215.90625 360.269531 209.921875 362.542969 202.28125 C 364.605469 195.882812 363.988281 188.246094 359.652344 182.464844 Z M 359.652344 182.464844 " fill-opacity="1" fill-rule="nonzero"/></svg>